<?xml version="1.0" encoding="UTF-8" standalone="no"?>
<!-- Created with Inkscape (http://www.inkscape.org/) -->

<svg
   width="127.25986mm"
   height="89.842278mm"
   viewBox="0 0 127.25986 89.842278"
   version="1.1"
   id="svg1"
   inkscape:version="1.4 (e7c3feb1, 2024-10-09)"
   sodipodi:docname="ExultlogoNew.svg"
   xmlns:inkscape="http://www.inkscape.org/namespaces/inkscape"
   xmlns:sodipodi="http://sodipodi.sourceforge.net/DTD/sodipodi-0.dtd"
   xmlns="http://www.w3.org/2000/svg"
   xmlns:svg="http://www.w3.org/2000/svg">
  <sodipodi:namedview
     id="namedview1"
     pagecolor="#ffffff"
     bordercolor="#000000"
     borderopacity="0.25"
     inkscape:showpageshadow="2"
     inkscape:pageopacity="0.0"
     inkscape:pagecheckerboard="0"
     inkscape:deskcolor="#d1d1d1"
     inkscape:document-units="mm"
     inkscape:zoom="1.2117277"
     inkscape:cx="264.91101"
     inkscape:cy="359.40419"
     inkscape:window-width="1904"
     inkscape:window-height="1186"
     inkscape:window-x="170"
     inkscape:window-y="62"
     inkscape:window-maximized="0"
     inkscape:current-layer="layer1"
     showgrid="true">
    <inkscape:grid
       id="grid1"
       units="mm"
       originx="-29.731071"
       originy="-36.180284"
       spacingx="0.99999998"
       spacingy="1"
       empcolor="#0099e5"
       empopacity="0.30196078"
       color="#0099e5"
       opacity="0.14901961"
       empspacing="5"
       enabled="true"
       visible="true" />
    <inkscape:page
       x="0"
       y="0"
       width="127.25986"
       height="89.842278"
       id="page2"
       margin="0"
       bleed="0" />
  </sodipodi:namedview>
  <defs
     id="defs1">
    <filter
       id="c"
       x="-0.098036259"
       y="-0.060725728"
       width="1.1960725"
       height="1.1214515"
       color-interpolation-filters="sRGB">
      <feGaussianBlur
         stdDeviation="4.439"
         id="feGaussianBlur1" />
    </filter>
    <linearGradient
       id="d"
       x1="142.88"
       x2="167.7"
       y1="6.085"
       y2="42.341"
       gradientTransform="translate(-38.928,18.353)"
       gradientUnits="userSpaceOnUse">
      <stop
         stop-color="#adadad"
         offset="0"
         id="stop1" />
      <stop
         stop-color="#909090"
         offset=".1"
         id="stop2" />
      <stop
         stop-color="#fff"
         offset=".264"
         id="stop3" />
      <stop
         stop-color="#8f8f8f"
         offset=".391"
         id="stop4" />
      <stop
         stop-color="#fff"
         offset=".484"
         id="stop5" />
      <stop
         stop-color="#909090"
         offset=".729"
         id="stop6" />
      <stop
         stop-color="#fff"
         offset="1"
         id="stop7" />
    </linearGradient>
    <radialGradient
       id="e"
       cx="173.11"
       cy="50.610001"
       r="12.412"
       gradientTransform="matrix(0.80597,0.46062,-0.567,0.99211,0.444,-38.718)"
       gradientUnits="userSpaceOnUse">
      <stop
         stop-color="#8e8e8e"
         offset="0"
         id="stop8" />
      <stop
         stop-color="#fff"
         stop-opacity="0"
         offset="1"
         id="stop9" />
    </radialGradient>
    <linearGradient
       id="f"
       x1="72.735001"
       x2="72.735001"
       y1="13.672"
       y2="89.742996"
       gradientUnits="userSpaceOnUse">
      <stop
         stop-color="#fff"
         stop-opacity=".996"
         offset=".175"
         id="stop10" />
      <stop
         stop-color="#d5d5d5"
         stop-opacity=".996"
         offset=".482"
         id="stop11" />
      <stop
         stop-color="#afafaf"
         stop-opacity=".996"
         offset=".517"
         id="stop12" />
      <stop
         stop-color="#fff"
         stop-opacity=".996"
         offset=".577"
         id="stop13" />
      <stop
         stop-color="#fff"
         stop-opacity=".996"
         offset=".754"
         id="stop14" />
      <stop
         stop-color="#7b7b7b"
         offset="1"
         id="stop15" />
    </linearGradient>
    <radialGradient
       id="g"
       cx="161.67999"
       cy="28.903999"
       r="9.9280005"
       gradientTransform="matrix(0.8067,-0.59096,1.0877,1.4848,12.706,78.531)"
       gradientUnits="userSpaceOnUse">
      <stop
         stop-color="#838383"
         offset="0"
         id="stop16" />
      <stop
         stop-color="#fff"
         offset=".844"
         id="stop17" />
      <stop
         stop-color="#fff"
         stop-opacity="0"
         offset="1"
         id="stop18" />
    </radialGradient>
    <radialGradient
       id="h"
       cx="185.36"
       cy="56.123001"
       r="14.238"
       gradientTransform="matrix(1.6566,0.74581,-1.7447,3.8753,-23.908,-305.86)"
       gradientUnits="userSpaceOnUse">
      <stop
         stop-color="#fff"
         offset="0"
         id="stop19" />
      <stop
         stop-color="#7f7f7f"
         offset=".417"
         id="stop20" />
      <stop
         offset="1"
         id="stop21" />
    </radialGradient>
    <radialGradient
       id="i"
       cx="182.55"
       cy="56.493999"
       r="14.238"
       gradientTransform="matrix(0.2594,-0.26586,0.07053,0.06881,128.19,93.441)"
       gradientUnits="userSpaceOnUse">
      <stop
         stop-color="#fff"
         offset=".198"
         id="stop22" />
      <stop
         stop-color="#d9d9d9"
         stop-opacity="0"
         offset="1"
         id="stop23" />
    </radialGradient>
    <filter
       id="j"
       x="-0.014537657"
       y="-0.006401951"
       width="1.0290753"
       height="1.0128039"
       color-interpolation-filters="sRGB">
      <feGaussianBlur
         stdDeviation=".175"
         id="feGaussianBlur23" />
    </filter>
    <radialGradient
       id="k"
       cx="175.44"
       cy="27.122999"
       r="6.822"
       gradientTransform="matrix(1.3203,-0.54872,0.16813,0.40454,-60.861,112.07)"
       gradientUnits="userSpaceOnUse">
      <stop
         offset=".454"
         id="stop24" />
      <stop
         stop-opacity="0"
         offset="1"
         id="stop25" />
    </radialGradient>
    <radialGradient
       id="l"
       cx="112.24"
       cy="141.59"
       r="3.704"
       gradientTransform="matrix(-0.39121,-1.8463,-2.6784,0.56755,520.41,276.67)"
       gradientUnits="userSpaceOnUse">
      <stop
         stop-color="#fff"
         offset="0"
         id="stop26" />
      <stop
         stop-color="#a6a6a6"
         offset=".156"
         id="stop27" />
      <stop
         stop-color="#6a6a6a"
         offset=".406"
         id="stop28" />
      <stop
         stop-color="#a6a6a6"
         offset=".534"
         id="stop29" />
    </radialGradient>
    <linearGradient
       id="m"
       x1="105.16"
       x2="112.77"
       y1="146.7"
       y2="147.36"
       gradientTransform="matrix(-5.6965,0,0,5.6965,700.2,-742.48)"
       gradientUnits="userSpaceOnUse">
      <stop
         stop-color="#7a7a7a"
         offset=".105"
         id="stop30" />
      <stop
         stop-color="#b9b9b9"
         offset=".184"
         id="stop31" />
      <stop
         stop-color="#b7b7b7"
         offset=".834"
         id="stop32" />
      <stop
         stop-color="#fff"
         offset="1"
         id="stop33" />
    </linearGradient>
    <linearGradient
       id="n"
       x1="105.16"
       x2="112.77"
       y1="146.7"
       y2="147.36"
       gradientTransform="matrix(5.6965,0,0,5.6965,-492.3,-742.48)"
       gradientUnits="userSpaceOnUse">
      <stop
         stop-color="#7a7a7a"
         offset=".105"
         id="stop34" />
      <stop
         stop-color="#b9b9b9"
         offset=".184"
         id="stop35" />
      <stop
         stop-color="#b7b7b7"
         offset=".834"
         id="stop36" />
      <stop
         stop-color="#9e9e9e"
         offset="1"
         id="stop37" />
    </linearGradient>
    <radialGradient
       id="o"
       cx="111.43"
       cy="149.02"
       r="1.375"
       gradientTransform="matrix(1.1912,1.6152,-2.0036,1.4776,277.56,-251.41)"
       gradientUnits="userSpaceOnUse">
      <stop
         stop-color="#b7b7b7"
         stop-opacity=".992"
         offset=".386"
         id="stop38" />
      <stop
         stop-color="#5a5a5a"
         offset=".702"
         id="stop39" />
    </radialGradient>
    <radialGradient
       id="p"
       cx="111.7"
       cy="142.45"
       r="3.704"
       gradientTransform="matrix(-0.36471,1.8517,-1.6668,-0.3283,384.27,-11.509)"
       gradientUnits="userSpaceOnUse">
      <stop
         stop-color="#767676"
         offset=".094"
         id="stop40" />
      <stop
         stop-color="#d8d8d8"
         offset=".746"
         id="stop41" />
      <stop
         stop-color="#6a6a6a"
         offset=".84"
         id="stop42" />
      <stop
         stop-color="#969696"
         stop-opacity=".992"
         offset=".951"
         id="stop43" />
    </radialGradient>
    <linearGradient
       id="q"
       x1="102.26"
       x2="102.85"
       y1="159.42"
       y2="151.64999"
       gradientTransform="matrix(-1,0,0,1,209.34,0)"
       gradientUnits="userSpaceOnUse">
      <stop
         stop-color="#c9c9c9"
         offset="0"
         id="stop44" />
      <stop
         stop-color="#8d8d8d"
         stop-opacity=".996"
         offset=".2"
         id="stop45" />
      <stop
         stop-color="#bbb"
         offset=".344"
         id="stop46" />
      <stop
         stop-color="#c4c4c4"
         stop-opacity=".996"
         offset="1"
         id="stop47" />
    </linearGradient>
    <radialGradient
       id="r"
       cx="104.71"
       cy="163.84"
       r="1.673"
       gradientTransform="matrix(0.97956,0.20114,-0.39154,1.9068,66.257,-169.14)"
       gradientUnits="userSpaceOnUse">
      <stop
         stop-color="#b4b4b4"
         offset="0"
         id="stop48" />
      <stop
         stop-color="#333"
         stop-opacity=".957"
         offset=".917"
         id="stop49" />
    </radialGradient>
    <linearGradient
       id="s"
       x1="101.32"
       x2="104.67"
       y1="160.39999"
       y2="164.34"
       gradientUnits="userSpaceOnUse">
      <stop
         stop-color="#b4b4b4"
         offset="0"
         id="stop50" />
      <stop
         stop-color="#f4f4f4"
         stop-opacity=".992"
         offset=".288"
         id="stop51" />
      <stop
         stop-color="#b4b4b4"
         stop-opacity=".992"
         offset=".541"
         id="stop52" />
      <stop
         stop-color="#cecece"
         stop-opacity=".996"
         offset=".707"
         id="stop53" />
      <stop
         stop-color="#e9e9e9"
         offset="1"
         id="stop54" />
    </linearGradient>
    <linearGradient
       id="t"
       x1="102.35"
       x2="103.44"
       y1="160.36"
       y2="148.60001"
       gradientUnits="userSpaceOnUse">
      <stop
         stop-color="#c9c9c9"
         offset="0"
         id="stop55" />
      <stop
         stop-color="#fff"
         offset=".154"
         id="stop56" />
      <stop
         stop-color="#aaa"
         offset="1"
         id="stop57" />
    </linearGradient>
    <radialGradient
       id="u"
       cx="111.37"
       cy="148.97"
       r="1.375"
       gradientTransform="matrix(-1.1912,1.6152,2.0036,1.4776,-68.215,-251.41)"
       gradientUnits="userSpaceOnUse">
      <stop
         stop-color="#fff"
         stop-opacity=".992"
         offset=".386"
         id="stop58" />
      <stop
         stop-color="#c3c3c3"
         offset=".702"
         id="stop59" />
    </radialGradient>
    <mask
       id="v"
       maskUnits="userSpaceOnUse">
      <path
         d="m 31.614,72.396 c -12.141,0.637 -13.048,3.3 -16.585,5.488 l 11.191,11.526 7.773,2.233 4.58,-13.277 z M 27.239,27.795 c -2.077,-0.83 -5.13,-5.584 -10.649,-9 l 7.246,0.193 2.385,2.427 1.786,-4.494 3.762,-0.04 3.206,-7.23 1.727,13.614 -6.873,-3.793 z m -0.652,8.583 C 23.835,34.407 15.03,27.795 10.055,27.188 l -0.077,1.72 c 1.975,5.032 11.682,1.642 16.608,7.47 z M 23.289,52.073 C 17.807,52.112 10.898,50.613 7.649,48.65 l 0.615,6.178 c 6.126,0.267 10.503,-0.754 15.025,-2.755 z"
         fill="none"
         filter="url(#a)"
         stroke="#fefefe"
         stroke-linecap="square"
         stroke-width="4"
         paint-order="markers fill stroke"
         id="path59" />
    </mask>
    <filter
       id="a"
       x="-0.17936883"
       y="-0.1284549"
       width="1.3570548"
       height="1.1968402"
       color-interpolation-filters="sRGB">
      <feGaussianBlur
         stdDeviation="1.317"
         id="feGaussianBlur59" />
    </filter>
    <mask
       id="w"
       maskUnits="userSpaceOnUse">
      <path
         d="M 65.85,9.404 C 62.706,6.596 59.21,4.199 57.25,0 L 46.825,8.016 c 4.567,-2.542 16.534,2.996 21.099,4.537 1.924,0.65 -3.995,-4.014 -2.074,-3.149 z m -12.157,29.202 -24.912,8.59 -2.516,-0.903 c 7.303,-2.182 19.162,-5.119 27.428,-7.687 z"
         fill="#ffffff"
         fill-opacity="0.996"
         filter="url(#b)"
         stroke="#fcfcfc"
         stroke-linecap="square"
         stroke-width="4"
         style="mix-blend-mode:normal"
         paint-order="markers fill stroke"
         id="path60" />
    </mask>
    <filter
       id="b"
       x="-0.32548375"
       y="-0.22008279"
       width="1.5471058"
       height="1.4192891"
       color-interpolation-filters="sRGB">
      <feGaussianBlur
         stdDeviation="3.034"
         id="feGaussianBlur60" />
    </filter>
    <radialGradient
       id="x"
       cx="104"
       cy="40.379002"
       r="15.635"
       gradientTransform="matrix(0.47902,0.12746,-0.69639,2.6171,82.304,-105.26)"
       gradientUnits="userSpaceOnUse">
      <stop
         stop-color="#fff"
         offset="0"
         id="stop60" />
      <stop
         stop-color="#fff"
         stop-opacity="0"
         offset="1"
         id="stop61" />
    </radialGradient>
    <linearGradient
       id="y"
       x1="112.77"
       x2="96.570999"
       y1="155.91"
       y2="133.31"
       gradientTransform="matrix(5.6965,0,0,5.6965,-492.3,-742.48)"
       gradientUnits="userSpaceOnUse">
      <stop
         stop-color="#d2d2d2"
         offset="0"
         id="stop62" />
      <stop
         stop-color="#fff"
         offset=".5"
         id="stop63" />
      <stop
         stop-color="silver"
         offset=".798"
         id="stop64" />
    </linearGradient>
  </defs>
  <g
     inkscape:label="Layer 1"
     inkscape:groupmode="layer"
     id="layer1"
     inkscape:export-filename="layer1.svg"
     inkscape:export-xdpi="96"
     inkscape:export-ydpi="96"
     transform="translate(-29.731071,-36.180284)">
    <path
       d="m 32.302335,121.58251 q -0.04961,-0.19844 -0.04961,-0.29765 0,-0.42168 0.545704,-0.99219 1.389062,-1.46348 1.562695,-2.0836 0.620117,-2.35644 0.620117,-7.4414 V 90.998319 q 0,-2.480469 -0.347266,-3.199805 -0.595312,-0.620117 -0.942578,-1.041796 -0.347265,-0.42168 -0.347265,-0.79375 0,-0.148829 0.04961,-0.347266 0.07441,-0.198438 0.917773,-0.198438 0.595313,0 2.232422,0.248047 1.63711,0.248047 2.232422,0.248047 l 4.440039,0.04961 q 0.223242,0 1.488281,-0.07441 1.289844,-0.09922 3.59668,-0.198438 2.306836,-0.09922 3.274219,-0.09922 1.513086,0 2.406054,0.09922 0.892969,0.07441 1.116211,0.272852 0.595313,0.545703 1.488282,3.224609 0.992187,2.951758 0.992187,4.787305 0,0.719335 -0.198437,1.190625 -0.173633,0.471289 -0.545704,0.620117 -0.620117,0.248047 -1.860351,-1.091407 -0.570508,-0.620117 -2.356445,-2.877343 -1.488282,-1.885156 -2.207618,-2.38125 -2.778125,-1.95957 -6.077148,-1.95957 l -0.818555,0.0248 -0.496093,0.04961 v 14.337122 l 1.016992,0.0992 0.595312,0.0248 q 3.125391,0 4.936133,-1.43869 0.520899,-0.39687 1.835547,-3.299018 0.545703,-1.190625 0.892969,-1.190625 h 0.570507 V 109.87467 H 52.17089 q -0.37207,0 -1.116211,-1.86035 -0.843359,-2.1084 -1.488281,-2.6293 -1.810742,-1.43867 -4.936133,-1.43867 l -0.595312,0.0248 q -0.297656,0 -0.446485,0.0248 -0.124023,0 -0.570507,0.0992 v 8.4832 q 0,4.04316 0.967382,5.72988 0.992188,1.68672 3.299024,1.68672 2.604492,0 5.531445,-2.6293 0.868164,-0.76894 1.785938,-1.83554 1.11621,-1.26504 1.885156,-2.53008 0.669726,-1.09141 1.339453,-2.20762 0.719336,-1.04179 1.190625,-0.86816 0.347265,0.14883 0.520898,0.66972 0.173633,0.5209 0.173633,1.31465 0,2.38125 -1.116211,6.17637 -1.116211,3.77031 -1.711523,4.09277 -0.198438,0.12403 -1.339453,0.17364 -1.116211,0.0496 -2.778125,0.0496 -2.80293,0 -5.159375,-0.0744 -2.331641,-0.0496 -4.34082,-0.14883 l -4.365625,0.0496 q -0.620118,0 -1.289844,0 -0.644922,0 -1.364258,0.0248 -2.182812,0 -3.026172,-0.17363 -0.818554,-0.17364 -0.917773,-0.4961 z m 35.696406,0.0496 q 0,0.39688 -0.272852,0.5457 -0.272852,0.17364 -0.744141,0.17364 -0.347265,0 -0.942578,-0.0744 -0.595312,-0.0496 -0.644922,-0.0496 l -2.902148,-0.0496 q -0.545703,0 -1.537891,0.0248 -0.967382,0.0248 -1.389062,0.0248 -0.297656,0 -0.868164,0.0496 -0.570508,0.0744 -0.669727,0.0744 -0.471289,0 -0.719336,-0.14883 -0.272851,-0.14883 -0.347265,-0.57051 -0.02481,-0.17363 1.240234,-1.01699 0.892969,-0.59531 1.513086,-1.38906 0.917773,-1.19063 2.505273,-3.49746 1.736329,-2.55489 3.001368,-4.63848 1.289843,-2.0836 2.554882,-4.11758 0.669727,-1.19062 0.669727,-1.73633 0,-0.42168 -1.116211,-3.02617 -1.091406,-2.604504 -2.058789,-4.737708 -1.116211,-2.455664 -1.141016,-2.455664 -0.248047,-0.74414 -1.265039,-2.75332 -0.79375,-1.5875 -1.413867,-2.455664 -0.42168,-0.595312 -2.00918,-1.909961 -1.215429,-1.016992 -1.215429,-1.711523 0,-0.148828 0.09922,-0.446485 0.223242,-0.595312 1.066601,-0.595312 0.42168,0 2.356445,0.520898 0.917774,0.248047 1.413868,0.248047 l 5.060156,0.02481 q 0.173632,0 2.083593,-0.42168 1.016993,-0.223242 1.438672,-0.223242 0.818555,0 1.016992,0.446484 0.07441,0.198438 0.07441,0.372071 0,0.471289 -0.768945,0.942578 -0.942578,0.570508 -1.016992,0.669726 -0.520898,0.644922 -0.520898,1.612305 0,0.570508 0.272851,1.463477 0.173633,0.669726 0.297656,1.16582 0.124024,0.471289 0.347266,1.091406 0.620117,1.761133 0.917773,2.530078 1.016993,2.579688 1.661914,2.579688 0.520899,0 1.26504,-1.711524 0.545703,-1.240234 1.190625,-3.274218 0.148828,-0.520899 0.272851,-1.041797 0.148828,-0.520899 0.198438,-0.84336 0.07441,-0.347265 0.124023,-0.719336 0.04961,-0.37207 0.04961,-0.818554 v -0.694532 q 0,-0.471289 -0.09922,-0.818554 -0.07441,-0.347266 -0.347266,-0.669727 -0.07441,-0.07441 -0.942578,-0.644922 -0.620117,-0.396875 -0.620117,-0.818554 0,-0.148828 0.07441,-0.347266 0.09922,-0.198437 0.396875,-0.297656 0.297656,-0.124024 0.768945,-0.124024 0.768945,0 2.282031,0.322461 1.537891,0.297657 1.785938,0.297657 l 2.033984,-0.02481 q 0.124024,0 1.537891,-0.297656 0.719336,-0.148828 1.066601,-0.148828 0.520899,0 0.694531,0.248046 0.09922,0.124024 0.09922,0.297657 0,0.446484 -1.909961,1.885156 -1.116211,0.843359 -1.711523,1.5875 -0.992188,1.265039 -2.158008,3.100586 -1.16582,1.810742 -2.232422,3.869531 -0.818554,1.364258 -1.215429,2.058789 -1.21543,2.133206 -1.21543,2.579696 0,0.57051 0.843359,2.6045 0.644922,1.56269 2.033985,4.48964 0.595312,1.28985 2.356445,4.86172 0.644922,1.33946 1.289844,2.67891 1.215429,2.50527 1.934765,3.52227 0.372071,0.5457 1.413867,1.14101 0.79375,0.44649 0.79375,0.94258 0,0.19844 -0.04961,0.32246 -0.124023,0.42168 -0.396875,0.57051 -0.248047,0.17363 -0.694531,0.17363 -0.248047,0 -0.942578,-0.0992 -0.694532,-0.0992 -0.917774,-0.0992 l -3.96875,-0.0496 q -0.79375,0 -1.810742,0 -1.016992,0.0248 -2.257226,0.0496 -0.347266,0 -0.992188,0.0744 -1.513086,0.17363 -1.909961,0.17363 -0.446484,0 -0.694531,-0.0992 -0.248047,-0.0744 -0.248047,-0.29765 0,-0.14883 0.04961,-0.22325 0.148828,-0.34726 0.620117,-0.64492 0.620117,-0.32246 1.265039,-0.66973 0.248047,-0.22324 0.37207,-0.62011 0.124023,-0.42168 0.124023,-0.99219 0,-0.76895 -0.297656,-1.86035 -0.09922,-0.37207 -0.396875,-1.14102 -0.37207,-0.94258 -0.520898,-1.36426 -0.719336,-2.18281 -1.240235,-3.67109 -1.041796,-2.90215 -1.513085,-2.90215 -0.42168,0 -1.488282,2.6541 -0.644922,1.5875 -1.240234,3.32383 -0.446484,1.16582 -0.868164,2.30684 -0.09922,0.44648 -0.173633,0.94258 -0.07441,0.49609 -0.07441,0.86816 0,1.26504 0.545703,2.18281 0.148828,0.22325 0.892969,0.54571 0.744141,0.32246 0.744141,0.81855 z M 115.57414,86.260624 q 0,0.669726 -1.78593,2.282031 -1.0418,0.917773 -1.43868,1.810742 -0.5705,1.265039 -0.84335,2.232422 -0.24805,0.967383 -0.24805,2.257227 0,1.488281 -0.0496,4.067968 -0.0496,2.579696 -0.0744,4.464856 0,6.35 0.64493,7.51582 0.66972,1.16582 0.69453,1.21543 v 1.01699 q 0,2.00918 -1.28985,4.2416 -1.48828,2.6045 -4.06796,4.16719 -3.07579,1.88516 -7.118967,1.88516 -6.225975,0 -9.376171,-4.53926 -2.728515,-3.91914 -2.728515,-10.36836 0,-1.73633 0.07441,-4.56406 0.09922,-2.82774 0.198437,-5.85392 0,-1.141016 -0.124023,-3.547071 -0.09922,-2.406054 -0.148828,-2.703711 -0.719336,-3.472656 -2.331641,-4.365624 -0.644922,-0.347266 -0.644922,-1.240235 0,-0.595312 0.223243,-0.768945 0.223242,-0.198438 0.520898,-0.198438 1.612305,0.496094 2.530078,0.744141 2.877344,0.768945 4.241602,0.768945 1.215429,0 2.951757,-0.818554 1.736329,-0.818555 2.356446,-0.818555 0.595312,0 1.041797,0.595312 0.37207,0.496094 0.37207,0.892969 0,0.471289 -0.694531,1.066602 -1.810743,1.53789 -2.282032,2.926953 -0.09922,0.545703 -0.198437,1.835547 -0.07441,1.289843 -0.07441,2.505273 0,1.612305 -0.07441,4.142383 -0.07441,2.530088 -0.07441,4.142398 0.124023,0.39687 0.124023,3.15019 0,2.75332 0.124024,4.83692 0.148828,2.08359 0.719336,3.24941 1.190625,2.35645 4.191996,2.35645 3.24943,0 4.76251,-2.40606 1.24024,-1.95957 1.24024,-5.33301 0,-6.9205 0.0248,-8.90489 0.0496,-2.009182 0.0992,-3.299025 0,-1.016993 -0.27285,-2.703711 -0.24805,-1.711524 -0.66973,-2.951758 -0.79375,-2.455664 -2.85254,-3.745508 -0.81855,-0.520898 -0.81855,-1.091406 0,-0.37207 0.32246,-0.818555 0.34726,-0.446484 0.69453,-0.446484 0.94258,0.570508 2.72852,1.041797 1.78593,0.446484 3.7207,0.446484 1.43867,0 2.60449,-0.446484 0.94258,-0.520899 1.88516,-1.041797 0.14883,0 0.66973,0.396875 0.52089,0.37207 0.52089,0.719336 z m -0.31468,35.917196 q -0.22325,0 -0.32246,-0.39687 -0.0744,-0.39688 -0.0744,-0.5209 0,-0.66973 0.96738,-1.46348 1.06661,-0.89296 1.26504,-1.5875 0.62012,-2.35644 0.62012,-7.4414 V 96.331327 q 0,-0.347266 0.0248,-1.364258 0.0248,-1.016992 0.0248,-1.562695 0,-0.868164 -0.0496,-1.463477 -0.0496,-0.595312 -0.24805,-0.942578 -0.17363,-0.37207 -0.69453,-0.744141 -0.5209,-0.396875 -0.66972,-0.79375 -0.29766,-0.79375 1.53789,-1.488281 0.32246,-0.124023 3.10058,-0.892968 0.14883,-0.04961 2.43086,-1.190625 0.89297,-0.446485 1.36426,-0.446485 0.42168,0 0.71934,0.272852 0.29765,0.248047 0.42168,0.967383 0.14882,0.719335 0.14882,1.637109 0,0.719336 -0.0248,1.389062 -0.0248,0.669727 -0.0496,1.289844 v 21.580091 q 0,4.04316 0.91777,5.72988 0.47129,0.89297 1.46348,1.86035 0.99219,0.96739 1.95957,1.43868 1.33945,0.64492 3.10059,1.24023 1.76113,0.59531 3.00136,0.79375 1.24024,0.22324 2.75332,0.22324 1.09141,0 1.93477,-0.0744 0.86816,-0.0744 2.03398,-0.34727 -1.48828,1.36426 -3.10058,1.95957 -1.61231,0.62012 -3.64629,0.62012 -1.36426,0 -3.52227,-0.5209 -2.1332,-0.49609 -4.36562,-1.24023 -2.23242,-0.74414 -3.91914,-1.11621 -0.42168,-0.0992 -3.27422,-0.59532 -1.41387,-0.24804 -2.55488,-0.32246 -1.11622,-0.0496 -3.27422,-0.0496 z m 20.87074,-0.49609 q -0.14883,-0.27285 -0.14883,-0.5209 0,-0.47129 0.64492,-1.0418 1.5627,-1.36425 1.71153,-1.95957 0.62012,-2.48046 0.62012,-9.40097 v -2.20762 -16.519934 q 0,-1.066601 -0.17364,-1.389062 -0.14883,-0.322461 -0.62011,-0.322461 -1.46348,0 -3.6959,2.158008 -0.37207,0.347265 -1.73633,3.447851 -1.09141,2.455664 -2.45567,2.455664 -0.22324,0 -0.34726,-0.0248 -0.0992,0.124023 -0.29766,0.124023 -0.27285,0 -0.44648,-0.272852 -0.17363,-0.272851 -0.17363,-1.091406 0,-1.934765 0.76894,-5.357812 0.79375,-3.423047 1.26504,-3.795117 0.24805,-0.198438 3.42305,-0.297657 3.1998,-0.124023 7.86308,-0.124023 5.13457,0 8.75606,0.124023 3.62148,0.09922 3.86953,0.297657 0.49609,0.421679 1.26504,3.646289 0.76894,3.199804 0.76894,5.13457 0,1.364258 -0.37207,1.513086 -0.37207,0.124023 -0.47129,0.148828 -0.0744,0.02481 -0.12402,-0.04961 -0.29766,0.04961 -0.44648,0.04961 -1.06661,0 -1.90997,-1.513086 -1.0914,-2.207617 -2.18281,-4.415234 -2.28203,-2.158008 -3.67109,-2.158008 -0.4961,0 -0.66973,0.347265 -0.14883,0.322461 -0.14883,1.364258 v 1.488282 17.239268 q 0,7.06933 0.62012,9.40097 0.14883,0.57051 1.63711,1.90997 0.66973,0.59531 0.66973,1.0666 0,0.27285 -0.12403,0.49609 -0.22324,0.42168 -0.5705,0.57051 -0.34727,0.17363 -0.86817,0.17363 -0.27285,0 -0.89297,-0.0744 -0.62011,-0.0744 -0.91777,-0.0744 l -3.57188,-0.0496 q -0.71933,0 -1.6123,0 -0.89297,0.0248 -1.98437,0.0496 -0.17364,0 -1.14102,0.12403 -0.37207,0.0496 -0.71934,0.0496 -0.52089,0 -0.84336,-0.14883 -0.29765,-0.12403 -0.5457,-0.57051 z"
       id="text1"
       style="fill:#000428;fill-opacity:1"
       aria-label="EXULT"
       inkscape:label="Shadow" />
    <path
       d="m 29.780682,119.49984 q -0.04961,-0.19844 -0.04961,-0.29765 0,-0.42168 0.545704,-0.99219 1.389062,-1.46348 1.562695,-2.0836 0.620117,-2.35644 0.620117,-7.4414 V 88.915662 q 0,-2.480469 -0.347266,-3.199805 -0.595312,-0.620117 -0.942578,-1.041796 -0.347265,-0.42168 -0.347265,-0.79375 0,-0.148829 0.04961,-0.347266 0.07441,-0.198438 0.917773,-0.198438 0.595313,0 2.232422,0.248047 1.63711,0.248047 2.232422,0.248047 l 4.440039,0.04961 q 0.223242,0 1.488281,-0.07441 1.289844,-0.09922 3.59668,-0.198438 2.306836,-0.09922 3.274219,-0.09922 1.513086,0 2.406054,0.09922 0.892969,0.07441 1.116211,0.272852 0.595313,0.545703 1.488282,3.224609 0.992187,2.951758 0.992187,4.787305 0,0.719335 -0.198437,1.190625 -0.173633,0.471289 -0.545704,0.620117 -0.620117,0.248047 -1.860351,-1.091407 -0.570508,-0.620117 -2.356445,-2.877343 -1.488282,-1.885156 -2.207618,-2.38125 -2.778125,-1.95957 -6.077148,-1.95957 l -0.818555,0.0248 -0.496093,0.04961 V 99.80492 l 1.016992,0.09922 0.595312,0.02481 q 3.125391,0 4.936133,-1.438672 0.520899,-0.396875 1.835547,-3.299023 0.545703,-1.190625 0.892969,-1.190625 h 0.570507 v 13.79141 h -0.694531 q -0.37207,0 -1.116211,-1.86035 -0.843359,-2.1084 -1.488281,-2.6293 -1.810742,-1.43867 -4.936133,-1.43867 l -0.595312,0.0248 q -0.297656,0 -0.446485,0.0248 -0.124023,0 -0.570507,0.0992 v 8.4832 q 0,4.04316 0.967382,5.72988 0.992188,1.68672 3.299024,1.68672 2.604492,0 5.531445,-2.6293 0.868164,-0.76894 1.785938,-1.83554 1.11621,-1.26504 1.885156,-2.53008 0.669726,-1.09141 1.339453,-2.20762 0.719336,-1.04179 1.190625,-0.86816 0.347265,0.14883 0.520898,0.66972 0.173633,0.5209 0.173633,1.31465 0,2.38125 -1.116211,6.17637 -1.116211,3.77031 -1.711523,4.09277 -0.198438,0.12403 -1.339453,0.17364 -1.116211,0.0496 -2.778125,0.0496 -2.80293,0 -5.159375,-0.0744 -2.331641,-0.0496 -4.34082,-0.14883 l -4.365625,0.0496 q -0.620118,0 -1.289844,0 -0.644922,0 -1.364258,0.0248 -2.182812,0 -3.026172,-0.17363 -0.818554,-0.17364 -0.917773,-0.4961 z m 35.696406,0.0496 q 0,0.39688 -0.272852,0.5457 -0.272852,0.17364 -0.744141,0.17364 -0.347265,0 -0.942578,-0.0744 -0.595312,-0.0496 -0.644922,-0.0496 l -2.902148,-0.0496 q -0.545703,0 -1.537891,0.0248 -0.967382,0.0248 -1.389062,0.0248 -0.297656,0 -0.868164,0.0496 -0.570508,0.0744 -0.669727,0.0744 -0.471289,0 -0.719336,-0.14883 -0.272851,-0.14883 -0.347265,-0.57051 -0.02481,-0.17363 1.240234,-1.01699 0.892969,-0.59531 1.513086,-1.38906 0.917773,-1.19063 2.505273,-3.49746 1.736329,-2.55489 3.001368,-4.63848 1.289843,-2.0836 2.554882,-4.11758 0.669727,-1.19062 0.669727,-1.73633 0,-0.42168 -1.116211,-3.02617 -1.091406,-2.604491 -2.058789,-4.737695 -1.116211,-2.455664 -1.141016,-2.455664 -0.248047,-0.74414 -1.265039,-2.75332 -0.79375,-1.5875 -1.413867,-2.455664 -0.42168,-0.595312 -2.00918,-1.909961 -1.215429,-1.016992 -1.215429,-1.711523 0,-0.148828 0.09922,-0.446485 0.223242,-0.595312 1.066601,-0.595312 0.42168,0 2.356445,0.520898 0.917774,0.248047 1.413868,0.248047 l 5.060156,0.02481 q 0.173632,0 2.083593,-0.42168 1.016993,-0.223242 1.438672,-0.223242 0.818555,0 1.016992,0.446484 0.07441,0.198438 0.07441,0.372071 0,0.471289 -0.768945,0.942578 -0.942578,0.570508 -1.016992,0.669726 -0.520898,0.644922 -0.520898,1.612305 0,0.570508 0.272851,1.463477 0.173633,0.669726 0.297656,1.16582 0.124024,0.471289 0.347266,1.091406 0.620117,1.761133 0.917773,2.530078 1.016993,2.579688 1.661914,2.579688 0.520899,0 1.26504,-1.711524 0.545703,-1.240234 1.190625,-3.274218 0.148828,-0.520899 0.272851,-1.041797 0.148828,-0.520899 0.198438,-0.84336 0.07441,-0.347265 0.124023,-0.719336 0.04961,-0.37207 0.04961,-0.818554 v -0.694532 q 0,-0.471289 -0.09922,-0.818554 -0.07441,-0.347266 -0.347266,-0.669727 -0.07441,-0.07441 -0.942578,-0.644922 -0.620117,-0.396875 -0.620117,-0.818554 0,-0.148828 0.07441,-0.347266 0.09922,-0.198437 0.396875,-0.297656 0.297656,-0.124024 0.768945,-0.124024 0.768945,0 2.282031,0.322461 1.537891,0.297657 1.785938,0.297657 l 2.033984,-0.02481 q 0.124024,0 1.537891,-0.297656 0.719336,-0.148828 1.066601,-0.148828 0.520899,0 0.694531,0.248046 0.09922,0.124024 0.09922,0.297657 0,0.446484 -1.909961,1.885156 -1.116211,0.843359 -1.711523,1.5875 -0.992188,1.265039 -2.158008,3.100586 -1.16582,1.810742 -2.232422,3.869531 -0.818554,1.364258 -1.215429,2.058789 -1.21543,2.133203 -1.21543,2.579687 0,0.570508 0.843359,2.604496 0.644922,1.56269 2.033985,4.48964 0.595312,1.28985 2.356445,4.86172 0.644922,1.33946 1.289844,2.67891 1.215429,2.50527 1.934765,3.52227 0.372071,0.5457 1.413867,1.14101 0.79375,0.44649 0.79375,0.94258 0,0.19844 -0.04961,0.32246 -0.124023,0.42168 -0.396875,0.57051 -0.248047,0.17363 -0.694531,0.17363 -0.248047,0 -0.942578,-0.0992 -0.694532,-0.0992 -0.917774,-0.0992 l -3.96875,-0.0496 q -0.79375,0 -1.810742,0 -1.016992,0.0248 -2.257226,0.0496 -0.347266,0 -0.992188,0.0744 -1.513086,0.17363 -1.909961,0.17363 -0.446484,0 -0.694531,-0.0992 -0.248047,-0.0744 -0.248047,-0.29765 0,-0.14883 0.04961,-0.22325 0.148828,-0.34726 0.620117,-0.64492 0.620117,-0.32246 1.265039,-0.66973 0.248047,-0.22324 0.37207,-0.62011 0.124023,-0.42168 0.124023,-0.99219 0,-0.76895 -0.297656,-1.86035 -0.09922,-0.37207 -0.396875,-1.14102 -0.37207,-0.94258 -0.520898,-1.36426 -0.719336,-2.18281 -1.240235,-3.67109 -1.041796,-2.90215 -1.513085,-2.90215 -0.42168,0 -1.488282,2.6541 -0.644922,1.5875 -1.240234,3.32383 -0.446484,1.16582 -0.868164,2.30684 -0.09922,0.44648 -0.173633,0.94258 -0.07441,0.49609 -0.07441,0.86816 0,1.26504 0.545703,2.18281 0.148828,0.22325 0.892969,0.54571 0.744141,0.32246 0.744141,0.81855 z M 113.05248,84.177967 q 0,0.669726 -1.78593,2.282031 -1.0418,0.917773 -1.43868,1.810742 -0.5705,1.265039 -0.84335,2.232422 -0.24805,0.967383 -0.24805,2.257227 0,1.488281 -0.0496,4.067968 -0.0496,2.579688 -0.0744,4.464843 0,6.35 0.64493,7.51582 0.66972,1.16582 0.69453,1.21543 v 1.01699 q 0,2.00918 -1.28985,4.2416 -1.48828,2.6045 -4.06796,4.16719 -3.07579,1.88516 -7.118959,1.88516 -6.225976,0 -9.376172,-4.53926 -2.728515,-3.91914 -2.728515,-10.36836 0,-1.73633 0.07441,-4.56406 0.09922,-2.827736 0.198437,-5.853907 0,-1.141016 -0.124023,-3.547071 -0.09922,-2.406054 -0.148828,-2.703711 -0.719336,-3.472656 -2.331641,-4.365624 -0.644922,-0.347266 -0.644922,-1.240235 0,-0.595312 0.223243,-0.768945 0.223242,-0.198438 0.520898,-0.198438 1.612305,0.496094 2.530078,0.744141 2.877344,0.768945 4.241602,0.768945 1.215429,0 2.951757,-0.818554 1.736329,-0.818555 2.356446,-0.818555 0.595312,0 1.041797,0.595312 0.37207,0.496094 0.37207,0.892969 0,0.471289 -0.694531,1.066602 -1.810743,1.53789 -2.282032,2.926953 -0.09922,0.545703 -0.198437,1.835547 -0.07441,1.289843 -0.07441,2.505273 0,1.612305 -0.07441,4.142383 -0.07441,2.530078 -0.07441,4.142385 0.124023,0.39687 0.124023,3.15019 0,2.75332 0.124024,4.83692 0.148828,2.08359 0.719336,3.24941 1.190625,2.35645 4.191992,2.35645 3.249427,0 4.762507,-2.40606 1.24024,-1.95957 1.24024,-5.33301 0,-6.9205 0.0248,-8.904879 0.0496,-2.00918 0.0992,-3.299023 0,-1.016993 -0.27285,-2.703711 -0.24805,-1.711524 -0.66973,-2.951758 -0.79375,-2.455664 -2.85254,-3.745508 -0.818557,-0.520898 -0.818557,-1.091406 0,-0.37207 0.322457,-0.818555 0.34727,-0.446484 0.69453,-0.446484 0.94259,0.570508 2.72853,1.041797 1.78593,0.446484 3.7207,0.446484 1.43867,0 2.60449,-0.446484 0.94258,-0.520899 1.88516,-1.041797 0.14883,0 0.66973,0.396875 0.52089,0.37207 0.52089,0.719336 z m -0.31468,35.917183 q -0.22325,0 -0.32246,-0.39687 -0.0744,-0.39688 -0.0744,-0.5209 0,-0.66973 0.96738,-1.46348 1.06661,-0.89296 1.26504,-1.5875 0.62012,-2.35644 0.62012,-7.4414 V 94.24867 q 0,-0.347266 0.0248,-1.364258 0.0248,-1.016992 0.0248,-1.562695 0,-0.868164 -0.0496,-1.463477 -0.0496,-0.595312 -0.24805,-0.942578 -0.17363,-0.37207 -0.69453,-0.744141 -0.5209,-0.396875 -0.66972,-0.79375 -0.29766,-0.79375 1.53789,-1.488281 0.32246,-0.124023 3.10058,-0.892968 0.14883,-0.04961 2.43086,-1.190625 0.89297,-0.446485 1.36426,-0.446485 0.42168,0 0.71934,0.272852 0.29765,0.248047 0.42168,0.967383 0.14882,0.719335 0.14882,1.637109 0,0.719336 -0.0248,1.389062 -0.0248,0.669727 -0.0496,1.289844 v 21.580078 q 0,4.04316 0.91777,5.72988 0.47129,0.89297 1.46348,1.86035 0.99219,0.96739 1.95957,1.43868 1.33945,0.64492 3.10059,1.24023 1.76113,0.59531 3.00136,0.79375 1.24024,0.22324 2.75332,0.22324 1.09141,0 1.93477,-0.0744 0.86816,-0.0744 2.03398,-0.34727 -1.48828,1.36426 -3.10058,1.95957 -1.61231,0.62012 -3.64629,0.62012 -1.36426,0 -3.52227,-0.5209 -2.1332,-0.49609 -4.36562,-1.24023 -2.23242,-0.74414 -3.91914,-1.11621 -0.42168,-0.0992 -3.27422,-0.59532 -1.41387,-0.24804 -2.55488,-0.32246 -1.11622,-0.0496 -3.27422,-0.0496 z m 20.87074,-0.49609 q -0.14883,-0.27285 -0.14883,-0.5209 0,-0.47129 0.64492,-1.0418 1.5627,-1.36425 1.71153,-1.95957 0.62012,-2.48046 0.62012,-9.40097 V 104.4682 87.948279 q 0,-1.066601 -0.17364,-1.389062 -0.14883,-0.322461 -0.62011,-0.322461 -1.46348,0 -3.6959,2.158008 -0.37207,0.347265 -1.73633,3.447851 -1.09141,2.455664 -2.45567,2.455664 -0.22324,0 -0.34726,-0.0248 -0.0992,0.124023 -0.29766,0.124023 -0.27285,0 -0.44648,-0.272852 -0.17363,-0.272851 -0.17363,-1.091406 0,-1.934765 0.76894,-5.357812 0.79375,-3.423047 1.26504,-3.795117 0.24805,-0.198438 3.42305,-0.297657 3.1998,-0.124023 7.86308,-0.124023 5.13457,0 8.75606,0.124023 3.62148,0.09922 3.86953,0.297657 0.49609,0.421679 1.26504,3.646289 0.76894,3.199804 0.76894,5.13457 0,1.364258 -0.37207,1.513086 -0.37207,0.124023 -0.47129,0.148828 -0.0744,0.02481 -0.12402,-0.04961 -0.29766,0.04961 -0.44648,0.04961 -1.06661,0 -1.90997,-1.513086 -1.0914,-2.207617 -2.18281,-4.415234 -2.28203,-2.158008 -3.67109,-2.158008 -0.4961,0 -0.66973,0.347265 -0.14883,0.322461 -0.14883,1.364258 v 1.488282 17.239255 q 0,7.06933 0.62012,9.40097 0.14883,0.57051 1.63711,1.90997 0.66973,0.59531 0.66973,1.0666 0,0.27285 -0.12403,0.49609 -0.22324,0.42168 -0.5705,0.57051 -0.34727,0.17363 -0.86817,0.17363 -0.27285,0 -0.89297,-0.0744 -0.62011,-0.0744 -0.91777,-0.0744 l -3.57188,-0.0496 q -0.71933,0 -1.6123,0 -0.89297,0.0248 -1.98437,0.0496 -0.17364,0 -1.14102,0.12403 -0.37207,0.0496 -0.71934,0.0496 -0.52089,0 -0.84336,-0.14883 -0.29765,-0.12403 -0.5457,-0.57051 z"
       id="path3"
       style="display:none;fill:#4068a7;fill-opacity:1"
       aria-label="EXULT"
       inkscape:label="Exult Dark" />
    <path
       d="m 29.780682,119.49984 q -0.04961,-0.19844 -0.04961,-0.29765 0,-0.42168 0.545704,-0.99219 1.389062,-1.46348 1.562695,-2.0836 0.620117,-2.35644 0.620117,-7.4414 V 88.915662 q 0,-2.480469 -0.347266,-3.199805 -0.595312,-0.620117 -0.942578,-1.041796 -0.347265,-0.42168 -0.347265,-0.79375 0,-0.148829 0.04961,-0.347266 0.07441,-0.198438 0.917773,-0.198438 0.595313,0 2.232422,0.248047 1.63711,0.248047 2.232422,0.248047 l 4.440039,0.04961 q 0.223242,0 1.488281,-0.07441 1.289844,-0.09922 3.59668,-0.198438 2.306836,-0.09922 3.274219,-0.09922 1.513086,0 2.406054,0.09922 0.892969,0.07441 1.116211,0.272852 0.595313,0.545703 1.488282,3.224609 0.992187,2.951758 0.992187,4.787305 0,0.719335 -0.198437,1.190625 -0.173633,0.471289 -0.545704,0.620117 -0.620117,0.248047 -1.860351,-1.091407 -0.570508,-0.620117 -2.356445,-2.877343 -1.488282,-1.885156 -2.207618,-2.38125 -2.778125,-1.95957 -6.077148,-1.95957 l -0.818555,0.0248 -0.496093,0.04961 V 99.80492 l 1.016992,0.09922 0.595312,0.02481 q 3.125391,0 4.936133,-1.438672 0.520899,-0.396875 1.835547,-3.299023 0.545703,-1.190625 0.892969,-1.190625 h 0.570507 v 13.79141 h -0.694531 q -0.37207,0 -1.116211,-1.86035 -0.843359,-2.1084 -1.488281,-2.6293 -1.810742,-1.43867 -4.936133,-1.43867 l -0.595312,0.0248 q -0.297656,0 -0.446485,0.0248 -0.124023,0 -0.570507,0.0992 v 8.4832 q 0,4.04316 0.967382,5.72988 0.992188,1.68672 3.299024,1.68672 2.604492,0 5.531445,-2.6293 0.868164,-0.76894 1.785938,-1.83554 1.11621,-1.26504 1.885156,-2.53008 0.669726,-1.09141 1.339453,-2.20762 0.719336,-1.04179 1.190625,-0.86816 0.347265,0.14883 0.520898,0.66972 0.173633,0.5209 0.173633,1.31465 0,2.38125 -1.116211,6.17637 -1.116211,3.77031 -1.711523,4.09277 -0.198438,0.12403 -1.339453,0.17364 -1.116211,0.0496 -2.778125,0.0496 -2.80293,0 -5.159375,-0.0744 -2.331641,-0.0496 -4.34082,-0.14883 l -4.365625,0.0496 q -0.620118,0 -1.289844,0 -0.644922,0 -1.364258,0.0248 -2.182812,0 -3.026172,-0.17363 -0.818554,-0.17364 -0.917773,-0.4961 z m 35.696406,0.0496 q 0,0.39688 -0.272852,0.5457 -0.272852,0.17364 -0.744141,0.17364 -0.347265,0 -0.942578,-0.0744 -0.595312,-0.0496 -0.644922,-0.0496 l -2.902148,-0.0496 q -0.545703,0 -1.537891,0.0248 -0.967382,0.0248 -1.389062,0.0248 -0.297656,0 -0.868164,0.0496 -0.570508,0.0744 -0.669727,0.0744 -0.471289,0 -0.719336,-0.14883 -0.272851,-0.14883 -0.347265,-0.57051 -0.02481,-0.17363 1.240234,-1.01699 0.892969,-0.59531 1.513086,-1.38906 0.917773,-1.19063 2.505273,-3.49746 1.736329,-2.55489 3.001368,-4.63848 1.289843,-2.0836 2.554882,-4.11758 0.669727,-1.19062 0.669727,-1.73633 0,-0.42168 -1.116211,-3.02617 -1.091406,-2.604491 -2.058789,-4.737695 -1.116211,-2.455664 -1.141016,-2.455664 -0.248047,-0.74414 -1.265039,-2.75332 -0.79375,-1.5875 -1.413867,-2.455664 -0.42168,-0.595312 -2.00918,-1.909961 -1.215429,-1.016992 -1.215429,-1.711523 0,-0.148828 0.09922,-0.446485 0.223242,-0.595312 1.066601,-0.595312 0.42168,0 2.356445,0.520898 0.917774,0.248047 1.413868,0.248047 l 5.060156,0.02481 q 0.173632,0 2.083593,-0.42168 1.016993,-0.223242 1.438672,-0.223242 0.818555,0 1.016992,0.446484 0.07441,0.198438 0.07441,0.372071 0,0.471289 -0.768945,0.942578 -0.942578,0.570508 -1.016992,0.669726 -0.520898,0.644922 -0.520898,1.612305 0,0.570508 0.272851,1.463477 0.173633,0.669726 0.297656,1.16582 0.124024,0.471289 0.347266,1.091406 0.620117,1.761133 0.917773,2.530078 1.016993,2.579688 1.661914,2.579688 0.520899,0 1.26504,-1.711524 0.545703,-1.240234 1.190625,-3.274218 0.148828,-0.520899 0.272851,-1.041797 0.148828,-0.520899 0.198438,-0.84336 0.07441,-0.347265 0.124023,-0.719336 0.04961,-0.37207 0.04961,-0.818554 v -0.694532 q 0,-0.471289 -0.09922,-0.818554 -0.07441,-0.347266 -0.347266,-0.669727 -0.07441,-0.07441 -0.942578,-0.644922 -0.620117,-0.396875 -0.620117,-0.818554 0,-0.148828 0.07441,-0.347266 0.09922,-0.198437 0.396875,-0.297656 0.297656,-0.124024 0.768945,-0.124024 0.768945,0 2.282031,0.322461 1.537891,0.297657 1.785938,0.297657 l 2.033984,-0.02481 q 0.124024,0 1.537891,-0.297656 0.719336,-0.148828 1.066601,-0.148828 0.520899,0 0.694531,0.248046 0.09922,0.124024 0.09922,0.297657 0,0.446484 -1.909961,1.885156 -1.116211,0.843359 -1.711523,1.5875 -0.992188,1.265039 -2.158008,3.100586 -1.16582,1.810742 -2.232422,3.869531 -0.818554,1.364258 -1.215429,2.058789 -1.21543,2.133203 -1.21543,2.579687 0,0.570508 0.843359,2.604496 0.644922,1.56269 2.033985,4.48964 0.595312,1.28985 2.356445,4.86172 0.644922,1.33946 1.289844,2.67891 1.215429,2.50527 1.934765,3.52227 0.372071,0.5457 1.413867,1.14101 0.79375,0.44649 0.79375,0.94258 0,0.19844 -0.04961,0.32246 -0.124023,0.42168 -0.396875,0.57051 -0.248047,0.17363 -0.694531,0.17363 -0.248047,0 -0.942578,-0.0992 -0.694532,-0.0992 -0.917774,-0.0992 l -3.96875,-0.0496 q -0.79375,0 -1.810742,0 -1.016992,0.0248 -2.257226,0.0496 -0.347266,0 -0.992188,0.0744 -1.513086,0.17363 -1.909961,0.17363 -0.446484,0 -0.694531,-0.0992 -0.248047,-0.0744 -0.248047,-0.29765 0,-0.14883 0.04961,-0.22325 0.148828,-0.34726 0.620117,-0.64492 0.620117,-0.32246 1.265039,-0.66973 0.248047,-0.22324 0.37207,-0.62011 0.124023,-0.42168 0.124023,-0.99219 0,-0.76895 -0.297656,-1.86035 -0.09922,-0.37207 -0.396875,-1.14102 -0.37207,-0.94258 -0.520898,-1.36426 -0.719336,-2.18281 -1.240235,-3.67109 -1.041796,-2.90215 -1.513085,-2.90215 -0.42168,0 -1.488282,2.6541 -0.644922,1.5875 -1.240234,3.32383 -0.446484,1.16582 -0.868164,2.30684 -0.09922,0.44648 -0.173633,0.94258 -0.07441,0.49609 -0.07441,0.86816 0,1.26504 0.545703,2.18281 0.148828,0.22325 0.892969,0.54571 0.744141,0.32246 0.744141,0.81855 z M 113.05248,84.177967 q 0,0.669726 -1.78593,2.282031 -1.0418,0.917773 -1.43868,1.810742 -0.5705,1.265039 -0.84335,2.232422 -0.24805,0.967383 -0.24805,2.257227 0,1.488281 -0.0496,4.067968 -0.0496,2.579688 -0.0744,4.464843 0,6.35 0.64493,7.51582 0.66972,1.16582 0.69453,1.21543 v 1.01699 q 0,2.00918 -1.28985,4.2416 -1.48828,2.6045 -4.06796,4.16719 -3.07579,1.88516 -7.118959,1.88516 -6.225976,0 -9.376172,-4.53926 -2.728515,-3.91914 -2.728515,-10.36836 0,-1.73633 0.07441,-4.56406 0.09922,-2.827736 0.198437,-5.853907 0,-1.141016 -0.124023,-3.547071 -0.09922,-2.406054 -0.148828,-2.703711 -0.719336,-3.472656 -2.331641,-4.365624 -0.644922,-0.347266 -0.644922,-1.240235 0,-0.595312 0.223243,-0.768945 0.223242,-0.198438 0.520898,-0.198438 1.612305,0.496094 2.530078,0.744141 2.877344,0.768945 4.241602,0.768945 1.215429,0 2.951757,-0.818554 1.736329,-0.818555 2.356446,-0.818555 0.595312,0 1.041797,0.595312 0.37207,0.496094 0.37207,0.892969 0,0.471289 -0.694531,1.066602 -1.810743,1.53789 -2.282032,2.926953 -0.09922,0.545703 -0.198437,1.835547 -0.07441,1.289843 -0.07441,2.505273 0,1.612305 -0.07441,4.142383 -0.07441,2.530078 -0.07441,4.142385 0.124023,0.39687 0.124023,3.15019 0,2.75332 0.124024,4.83692 0.148828,2.08359 0.719336,3.24941 1.190625,2.35645 4.191992,2.35645 3.249427,0 4.762507,-2.40606 1.24024,-1.95957 1.24024,-5.33301 0,-6.9205 0.0248,-8.904879 0.0496,-2.00918 0.0992,-3.299023 0,-1.016993 -0.27285,-2.703711 -0.24805,-1.711524 -0.66973,-2.951758 -0.79375,-2.455664 -2.85254,-3.745508 -0.818557,-0.520898 -0.818557,-1.091406 0,-0.37207 0.322457,-0.818555 0.34727,-0.446484 0.69453,-0.446484 0.94259,0.570508 2.72853,1.041797 1.78593,0.446484 3.7207,0.446484 1.43867,0 2.60449,-0.446484 0.94258,-0.520899 1.88516,-1.041797 0.14883,0 0.66973,0.396875 0.52089,0.37207 0.52089,0.719336 z m -0.31468,35.917183 q -0.22325,0 -0.32246,-0.39687 -0.0744,-0.39688 -0.0744,-0.5209 0,-0.66973 0.96738,-1.46348 1.06661,-0.89296 1.26504,-1.5875 0.62012,-2.35644 0.62012,-7.4414 V 94.24867 q 0,-0.347266 0.0248,-1.364258 0.0248,-1.016992 0.0248,-1.562695 0,-0.868164 -0.0496,-1.463477 -0.0496,-0.595312 -0.24805,-0.942578 -0.17363,-0.37207 -0.69453,-0.744141 -0.5209,-0.396875 -0.66972,-0.79375 -0.29766,-0.79375 1.53789,-1.488281 0.32246,-0.124023 3.10058,-0.892968 0.14883,-0.04961 2.43086,-1.190625 0.89297,-0.446485 1.36426,-0.446485 0.42168,0 0.71934,0.272852 0.29765,0.248047 0.42168,0.967383 0.14882,0.719335 0.14882,1.637109 0,0.719336 -0.0248,1.389062 -0.0248,0.669727 -0.0496,1.289844 v 21.580078 q 0,4.04316 0.91777,5.72988 0.47129,0.89297 1.46348,1.86035 0.99219,0.96739 1.95957,1.43868 1.33945,0.64492 3.10059,1.24023 1.76113,0.59531 3.00136,0.79375 1.24024,0.22324 2.75332,0.22324 1.09141,0 1.93477,-0.0744 0.86816,-0.0744 2.03398,-0.34727 -1.48828,1.36426 -3.10058,1.95957 -1.61231,0.62012 -3.64629,0.62012 -1.36426,0 -3.52227,-0.5209 -2.1332,-0.49609 -4.36562,-1.24023 -2.23242,-0.74414 -3.91914,-1.11621 -0.42168,-0.0992 -3.27422,-0.59532 -1.41387,-0.24804 -2.55488,-0.32246 -1.11622,-0.0496 -3.27422,-0.0496 z m 20.87074,-0.49609 q -0.14883,-0.27285 -0.14883,-0.5209 0,-0.47129 0.64492,-1.0418 1.5627,-1.36425 1.71153,-1.95957 0.62012,-2.48046 0.62012,-9.40097 V 104.4682 87.948279 q 0,-1.066601 -0.17364,-1.389062 -0.14883,-0.322461 -0.62011,-0.322461 -1.46348,0 -3.6959,2.158008 -0.37207,0.347265 -1.73633,3.447851 -1.09141,2.455664 -2.45567,2.455664 -0.22324,0 -0.34726,-0.0248 -0.0992,0.124023 -0.29766,0.124023 -0.27285,0 -0.44648,-0.272852 -0.17363,-0.272851 -0.17363,-1.091406 0,-1.934765 0.76894,-5.357812 0.79375,-3.423047 1.26504,-3.795117 0.24805,-0.198438 3.42305,-0.297657 3.1998,-0.124023 7.86308,-0.124023 5.13457,0 8.75606,0.124023 3.62148,0.09922 3.86953,0.297657 0.49609,0.421679 1.26504,3.646289 0.76894,3.199804 0.76894,5.13457 0,1.364258 -0.37207,1.513086 -0.37207,0.124023 -0.47129,0.148828 -0.0744,0.02481 -0.12402,-0.04961 -0.29766,0.04961 -0.44648,0.04961 -1.06661,0 -1.90997,-1.513086 -1.0914,-2.207617 -2.18281,-4.415234 -2.28203,-2.158008 -3.67109,-2.158008 -0.4961,0 -0.66973,0.347265 -0.14883,0.322461 -0.14883,1.364258 v 1.488282 17.239255 q 0,7.06933 0.62012,9.40097 0.14883,0.57051 1.63711,1.90997 0.66973,0.59531 0.66973,1.0666 0,0.27285 -0.12403,0.49609 -0.22324,0.42168 -0.5705,0.57051 -0.34727,0.17363 -0.86817,0.17363 -0.27285,0 -0.89297,-0.0744 -0.62011,-0.0744 -0.91777,-0.0744 l -3.57188,-0.0496 q -0.71933,0 -1.6123,0 -0.89297,0.0248 -1.98437,0.0496 -0.17364,0 -1.14102,0.12403 -0.37207,0.0496 -0.71934,0.0496 -0.52089,0 -0.84336,-0.14883 -0.29765,-0.12403 -0.5457,-0.57051 z"
       id="path1"
       style="display:inline;fill:#243c89"
       aria-label="EXULT"
       inkscape:label="Exult" />
    <g
       transform="matrix(0.22396049,0,0,0.20857673,62.441422,35.692754)"
       id="g88">
      <path
         transform="translate(29.905002,-1.1290039)"
         d="m 88.792,91.629 h -39.15 c 5.545,5.26 11.346,10.405 13.175,17.323 11.023,-6.128 21.684,-8.437 34.304,-6.772 0.158,40.337 -0.431,53.28 -11.731,65.527 6.762,2.493 16.592,13.61 18.544,21.851 2.71,-9.719 12.962,-19.983 18.616,-21.864 -11.493,-11.555 -10.748,-25.475 -10.715,-65.689 12.474,-1.13 21.892,-0.175 33.264,6.954 1.756,-5.525 5.938,-11.282 13.213,-17.337 L 119.198,91.58 C 147.843,60.033 134.38,19.038 104.004,14.12 73.579,17.868 61.412,60.85 88.792,91.63 Z m 15.157,-61.978 c 16.082,6.595 21.845,42.292 -0.001,61.946 C 84.747,74.026 84.586,39.292 103.949,29.651 Z"
         filter="url(#c)"
         style="mix-blend-mode:normal"
         id="path2" />
      <path
         transform="translate(29.905,-1.129)"
         d="m 88.792,91.629 h -39.15 c 5.545,5.26 11.346,10.405 13.175,17.323 11.023,-6.128 21.684,-8.437 34.304,-6.772 0.158,40.337 -0.431,53.28 -11.731,65.527 6.762,2.493 16.592,13.61 18.544,21.851 2.71,-9.719 12.962,-19.983 18.616,-21.864 -11.493,-11.555 -10.748,-25.475 -10.715,-65.689 12.474,-1.13 21.892,-0.175 33.264,6.954 1.756,-5.525 5.938,-11.282 13.213,-17.337 L 119.198,91.58 C 147.843,60.033 134.38,19.038 104.004,14.12 73.579,17.868 61.412,60.85 88.792,91.63 Z m 15.157,-61.978 c 16.082,6.595 21.845,42.292 -0.001,61.946 C 84.747,74.026 84.586,39.292 103.949,29.651 Z"
         filter="url(#c)"
         style="mix-blend-mode:normal"
         id="path64" />
      <g
         stroke-linecap="square"
         stroke-linejoin="round"
         id="g82">
        <g
           stroke-width="1.51"
           id="g67">
          <path
             transform="matrix(0.97467,0,0,0.97467,32.539,-5.097)"
             d="m 103.95,24.439 c 31.116,4.758 35.021,48.922 0,72.511 l -0.001,-3.787 c 24.419,-22.73 14.933,-57.17 0.001,-63.556 z"
             fill="url(#d)"
             id="path65"
             style="fill:url(#d)" />
          <path
             transform="matrix(0.97467,0,0,0.97467,32.539,-5.097)"
             d="m 103.95,24.414 c 31.116,4.758 35.021,48.947 0,72.536 l -0.001,-3.787 c 24.419,-22.73 14.933,-57.17 0.001,-63.556 z"
             fill="url(#e)"
             id="path66"
             style="fill:url(#e)" />
          <path
             transform="matrix(0.97467,0,0,0.97467,32.539,-5.097)"
             d="M 104,13.672 C 72.884,18.43 60.186,61.156 88.397,93.196 l 12.781,5.1718 c -6.573,-7.23 -23.757,-27.292 -21.149,-46.492 1.716,-12.63 17.093,-27.986 23.971,-31.77 z"
             fill="url(#f)"
             id="path67"
             style="fill:url(#f)" />
        </g>
        <g
           stroke-width="1.51"
           id="g72">
          <path
             d="m 133.91,8.23 c 30.328,4.637 42.69,46.23 15.194,77.458 l -12.47,5.079 C 143.04,83.72 159.816,64.179 157.274,45.465 155.602,33.155 140.614,18.188 133.91,14.5 V 8.229 Z"
             fill="#8e8e8e"
             id="path68" />
          <path
             transform="matrix(0.97467,0,0,0.97467,-16.562,1.563)"
             d="m 168.23,12.106 c 8.313,5.45 13.825,13.373 16.102,23.84 L 173.881,34.47 c -0.747,-3.495 5.958,-8.881 -4.244,-6.922 -1.503,-2.09 -2.582,-3.356 -4.703,-5.62 -0.782,-5.129 -9.945,-18.276 3.297,-9.822 z"
             fill="url(#g)"
             style="mix-blend-mode:normal;fill:url(#g)"
             id="path69" />
          <path
             transform="matrix(0.97467,0,0,0.97467,-16.562,1.563)"
             d="m 180.12,24.679 c 9.453,16.49 7.846,41.195 -10.149,61.632 l -12.795,5.21 c 6.573,-7.23 23.785,-27.278 21.177,-46.478 -0.416,-3.062 -1.635,-6.283 -3.34,-9.462 -7.782,-8.86 1.582,-8.304 5.107,-10.9 z"
             fill="url(#h)"
             id="path70"
             style="fill:url(#h)" />
          <path
             transform="matrix(0.97467,0,0,0.97467,-16.562,1.563)"
             d="m 180.07,25.495 c 9.453,16.49 7.472,39.958 -10.523,60.395 l -12.795,5.21 c 6.573,-7.23 23.785,-27.278 21.177,-46.478 -0.416,-3.062 -1.635,-6.283 -3.34,-9.462 -7.782,-8.86 1.956,-7.067 5.48,-9.665 z"
             fill="url(#i)"
             filter="url(#j)"
             style="mix-blend-mode:normal;fill:url(#i)"
             id="path71" />
          <path
             transform="matrix(0.97467,0,0,0.97467,-16.562,1.563)"
             d="m 177.1,20.23 c 2.27,2.83 3.994,5.85 5.05,8.94 l -8.333,4.15 c -1.545,-2.577 -3.373,-5.098 -5.31,-7.451 z"
             fill="url(#k)"
             id="path72"
             style="fill:url(#k)" />
        </g>
        <path
           transform="matrix(5.5522,0,0,5.5522,-447.29,-728.77)"
           d="m 104.67,147.84 -7.084,0.195 0.015,0.569 -0.34,1.216 c 1.88,-1.036 3.136,-1.466 6.179,-1.22 l 1.23,0.624 z"
           fill="url(#l)"
           id="path73"
           style="fill:url(#l)" />
        <path
           transform="matrix(0.97467,0,0,0.97467,32.539,-5.097)"
           d="M 88.397,93.196 H 48.229 l 12.649,7.793 40.3,-2.6212 -3.1097,-1.4418 z"
           fill="url(#m)"
           id="path74"
           style="fill:url(#m)" />
        <path
           transform="matrix(0.97467,0,0,0.97467,32.539,-5.097)"
           d="m 119.59,93.144 40.137,0.05165 -12.649,7.793 -40.314,-2.582 3.062,-1.481 z"
           fill="url(#n)"
           id="path75"
           style="fill:url(#n)" />
        <path
           transform="matrix(5.5522,0,0,5.5522,-447.29,-728.77)"
           d="m 111.71,148.76 1.0612,-1.4066 1.697,-0.65745 c -1.309,1.093 -2.0766,2.1314 -2.3866,3.1224 z"
           fill="url(#o)"
           id="path76"
           style="fill:url(#o)" />
        <path
           transform="matrix(5.5522,0,0,5.5522,-447.29,-728.77)"
           d="m 104.67,147.84 h 6.903 l 0.13346,0.92155 0.37154,1.0584 c -1.88,-1.036 -2.945,-1.497 -5.988,-1.251 l -1.42,0.655 z"
           fill="url(#p)"
           id="path77"
           style="fill:url(#p)" />
        <path
           transform="matrix(5.5522,0,0,5.5522,-447.29,-728.77)"
           d="m 106.09,148.57 -0.73482,-0.67565 -0.19518,-0.18185 v 12.694 h 2.857 c -2.712,-2.283 -1.927,-9.688 -1.927,-11.837 z"
           fill="url(#q)"
           id="path78"
           style="fill:url(#q)" />
        <path
           transform="matrix(5.5522,0,0,5.5522,-447.29,-728.77)"
           d="m 108.02,160.41 -3.344,-0.007 -0.006,3.938 c 0.55,-1.18 0.69,-2.255 3.35,-3.931 z"
           fill="url(#r)"
           id="path79"
           style="fill:url(#r)" />
        <path
           transform="matrix(5.5522,0,0,5.5522,-447.29,-728.77)"
           d="m 101.32,160.4 h 3.353 l -0.006,3.938 c -0.55,-1.18 -0.687,-2.262 -3.347,-3.938 z"
           fill="url(#s)"
           id="path80"
           style="fill:url(#s)" />
        <path
           transform="matrix(5.5522,0,0,5.5522,-447.29,-728.77)"
           d="m 103.44,148.6 0.743,-0.992 v 12.794 L 101.32,160.4 c 2.712,-2.283 2.12,-9.651 2.12,-11.8 z"
           fill="url(#t)"
           id="path81"
           style="fill:url(#t)" />
        <path
           transform="matrix(5.5522,0,0,5.5522,-447.29,-728.77)"
           d="m 97.603,148.6 -1.03,-1.242 -1.69,-0.665 c 1.31,1.094 2.07,2.132 2.38,3.123 z"
           fill="url(#u)"
           id="path82"
           style="fill:url(#u)" />
      </g>
      <path
         d="m 133.85,18.722 c -30.328,4.638 -34.134,47.683 0,70.675 l 0.001,-3.691 C 110.051,63.551 119.296,29.984 133.85,23.76 Z"
         fill="#cccccc"
         id="path83" />
      <g
         transform="matrix(0.97467,0,0,0.97467,99.858,4.023)"
         mask="url(#v)"
         opacity="0.501"
         style="mix-blend-mode:normal"
         id="g84">
        <path
           d="M 34.881,15.057 C 3.765,19.815 -0.144,64.003 34.8765,87.592 l 0.002,-3.787 c -24.42,-22.73 -14.933,-57.17 -0.002,-63.556 z"
           id="path84" />
      </g>
      <g
         stroke-linecap="square"
         stroke-linejoin="round"
         id="g87">
        <path
           transform="matrix(0.97467,0,0,0.97467,69.727,5.334)"
           d="M 65.85,2.97 C 34.734,7.73 22.05,50.404 50.261,82.444 l 12.795,5.21 C 56.483,80.424 39.271,60.376 41.879,41.176 43.595,28.546 58.972,13.19 65.85,9.406 c 3.167,-1.743 0,-3.183 0,-6.435 z"
           fill-opacity="0.425"
           mask="url(#w)"
           id="path85" />
        <path
           transform="matrix(0.97467,0,0,0.97467,32.539,-5.097)"
           d="m 104,13.672 c 31.116,4.758 43.771,47.484 15.56,79.524 l -12.766,5.158 c 6.573,-7.23 23.785,-27.278 21.177,-46.478 C 126.255,39.246 110.878,23.89 104,20.106 Z"
           fill="url(#x)"
           id="path86"
           style="fill:url(#x)" />
        <path
           transform="matrix(0.97467,0,0,0.97467,32.539,-5.097)"
           d="M 103.95,16.919 C 73.91,21.602 63.685,66.699 98.068,96.926 H 57.815 l 5.8684,7.1155 c 12.01,-4.125 24.008,-3.8985 36.357,-4.0415 0,41.215 -0.659,55.602 -9.32,71.237 4.86,4.033 9.091,7.9347 13.23,14.875 4.137,-6.94 8.2408,-10.803 13.101,-14.835 -8.66,-15.633 -9.1958,-30.059 -9.1958,-71.278 12.35,0.144 23.816,-0.351 36.18,4.94 l 6.045,-8.013 h -40.253 c 34.383,-30.228 24.162,-75.325 -5.878,-80.007 z m 0,7.52 c 30.616,12.36 25.512,55.793 0,72.485 -25.513,-16.694 -30.616,-60.129 0,-72.485 z"
           fill="url(#y)"
           id="path87"
           style="fill:url(#y)" />
      </g>
    </g>
  </g>
</svg>
