<?xml version="1.0" encoding="UTF-8" standalone="no"?>
<svg id="svg312" width="512" height="512" version="1.1" viewBox="0 0 200 200" xmlns="http://www.w3.org/2000/svg" xmlns:svg="http://www.w3.org/2000/svg">
  <defs id="defs64">
    <radialGradient id="e-9" cx="173.11" cy="50.61" r="12.412" gradientTransform="matrix(.78555 .44895 -.55264 .96698 -.90525 -43.544)" gradientUnits="userSpaceOnUse">
      <stop id="stop37" offset="0" stop-color="#8e8e8e"/>
      <stop id="stop38" offset="1" stop-color="#fff" stop-opacity="0"/>
    </radialGradient>
    <radialGradient id="g-6" cx="161.68" cy="28.904" r="9.928" gradientTransform="matrix(.78627 -.57599 1.0601 1.4472 47.882 77.395)" gradientUnits="userSpaceOnUse">
      <stop id="stop39" offset="0" stop-color="#838383"/>
      <stop id="stop40" offset=".844" stop-color="#fff"/>
      <stop id="stop41" offset="1" stop-color="#fff" stop-opacity="0"/>
    </radialGradient>
    <radialGradient id="h-8" cx="185.36" cy="56.123" r="14.238" gradientTransform="matrix(1.6146 .72692 -1.7005 3.7771 12.196 -297.26)" gradientUnits="userSpaceOnUse">
      <stop id="stop42" offset="0" stop-color="#fff"/>
      <stop id="stop43" offset=".417" stop-color="#7f7f7f"/>
      <stop id="stop44" offset="1"/>
    </radialGradient>
    <radialGradient id="i-0" cx="182.55" cy="56.494" r="14.238" gradientTransform="matrix(.2594 -.26586 .07053 .06881 128.19 93.441)" gradientUnits="userSpaceOnUse">
      <stop id="stop45" offset=".198" stop-color="#fff"/>
      <stop id="stop46" offset="1" stop-color="#d9d9d9" stop-opacity="0"/>
    </radialGradient>
    <radialGradient id="k-5" cx="175.44" cy="27.123" r="6.822" gradientTransform="matrix(1.2869 -.53482 .16387 .39429 -23.822 110.08)" gradientUnits="userSpaceOnUse">
      <stop id="stop47" offset=".454"/>
      <stop id="stop48" offset="1" stop-opacity="0"/>
    </radialGradient>
    <radialGradient id="l-2" cx="112.24" cy="141.59" r="3.704" gradientTransform="matrix(-2.1721 -10.251 -14.871 3.1512 2494.2 806.65)" gradientUnits="userSpaceOnUse">
      <stop id="stop49" offset="0" stop-color="#fff"/>
      <stop id="stop50" offset=".156" stop-color="#a6a6a6"/>
      <stop id="stop51" offset=".406" stop-color="#6a6a6a"/>
      <stop id="stop52" offset=".534" stop-color="#a6a6a6"/>
    </radialGradient>
    <radialGradient id="o-7" cx="111.43" cy="149.02" r="1.375" gradientTransform="matrix(6.6138 8.9679 -11.124 8.2039 1059.9 -2125.4)" gradientUnits="userSpaceOnUse">
      <stop id="stop53" offset=".386" stop-color="#b7b7b7" stop-opacity=".992"/>
      <stop id="stop54" offset=".702" stop-color="#5a5a5a"/>
    </radialGradient>
    <radialGradient id="p-5" cx="111.7" cy="142.45" r="3.704" gradientTransform="matrix(-2.0249 10.281 -9.2544 -1.8228 1652.4 -793.38)" gradientUnits="userSpaceOnUse">
      <stop id="stop55" offset=".094" stop-color="#767676"/>
      <stop id="stop56" offset=".746" stop-color="#d8d8d8"/>
      <stop id="stop57" offset=".84" stop-color="#6a6a6a"/>
      <stop id="stop58" offset=".951" stop-color="#969696" stop-opacity=".992"/>
    </radialGradient>
    <radialGradient id="r-0" cx="104.71" cy="163.84" r="1.673" gradientTransform="matrix(5.4387 1.1168 -2.1739 10.587 -113.29 -1668.6)" gradientUnits="userSpaceOnUse">
      <stop id="stop59" offset="0" stop-color="#b4b4b4"/>
      <stop id="stop60" offset=".917" stop-color="#333"/>
    </radialGradient>
    <radialGradient id="u-3" cx="111.37" cy="148.97" r="1.375" gradientTransform="matrix(-6.6138 8.9679 11.124 8.2039 -859.91 -2125.4)" gradientUnits="userSpaceOnUse">
      <stop id="stop61" offset=".386" stop-color="#fff" stop-opacity=".992"/>
      <stop id="stop62" offset=".702" stop-color="#c3c3c3"/>
    </radialGradient>
    <radialGradient id="x-7" cx="103.91" cy="40.386" r="15.635" gradientTransform="matrix(.46689 .12423 -.67875 2.5508 164.82 -108.4)" gradientUnits="userSpaceOnUse">
      <stop id="stop63" offset="0" stop-color="#fff"/>
      <stop id="stop64" offset="1" stop-color="#fff" stop-opacity="0"/>
    </radialGradient>
    <linearGradient id="d-6" x1="142.88" x2="167.7" y1="6.085" y2="42.341" gradientTransform="translate(-39.28 12.081) scale(.97467)" gradientUnits="userSpaceOnUse">
      <stop id="stop1" offset="0" stop-color="#adadad"/>
      <stop id="stop2" offset=".1" stop-color="#909090"/>
      <stop id="stop3" offset=".264" stop-color="#fff"/>
      <stop id="stop4" offset=".391" stop-color="#8f8f8f"/>
      <stop id="stop5" offset=".484" stop-color="#fff"/>
      <stop id="stop6" offset=".729" stop-color="#909090"/>
      <stop id="stop7" offset="1" stop-color="#fff"/>
    </linearGradient>
    <linearGradient id="f-7" x1="72.735" x2="72.735" y1="13.672" y2="89.743" gradientTransform="translate(-1.3408 -5.8066) scale(.97467)" gradientUnits="userSpaceOnUse">
      <stop id="stop8" offset=".175" stop-color="#fff" stop-opacity=".996"/>
      <stop id="stop9" offset=".482" stop-color="#d5d5d5" stop-opacity=".996"/>
      <stop id="stop10" offset=".517" stop-color="#afafaf" stop-opacity=".996"/>
      <stop id="stop11" offset=".577" stop-color="#fff" stop-opacity=".996"/>
      <stop id="stop12" offset=".754" stop-color="#fff" stop-opacity=".996"/>
      <stop id="stop13" offset="1" stop-color="#7b7b7b"/>
    </linearGradient>
    <linearGradient id="m-0" x1="105.16" x2="112.77" y1="146.7" y2="147.36" gradientTransform="matrix(-5.5522 0 0 5.5522 767.07 -729.48)" gradientUnits="userSpaceOnUse">
      <stop id="stop14" offset=".105" stop-color="#7a7a7a"/>
      <stop id="stop15" offset=".184" stop-color="#b9b9b9"/>
      <stop id="stop16" offset=".834" stop-color="#b7b7b7"/>
      <stop id="stop17" offset="1" stop-color="#fff"/>
    </linearGradient>
    <linearGradient id="n-9" x1="105.16" x2="112.77" y1="146.7" y2="147.36" gradientTransform="translate(-395.23 -729.48) scale(5.5522)" gradientUnits="userSpaceOnUse">
      <stop id="stop18" offset=".105" stop-color="#7a7a7a"/>
      <stop id="stop19" offset=".184" stop-color="#b9b9b9"/>
      <stop id="stop20" offset=".834" stop-color="#b7b7b7"/>
      <stop id="stop21" offset="1" stop-color="#9e9e9e"/>
    </linearGradient>
    <linearGradient id="q-4" x1="102.26" x2="102.85" y1="159.42" y2="151.65" gradientTransform="matrix(-5.5522 0 0 5.5522 681.13 -729.48)" gradientUnits="userSpaceOnUse">
      <stop id="stop22" offset="0" stop-color="#c9c9c9"/>
      <stop id="stop23" offset=".2" stop-color="#8d8d8d" stop-opacity=".996"/>
      <stop id="stop24" offset=".344" stop-color="#bbb"/>
      <stop id="stop25" offset="1" stop-color="#c4c4c4" stop-opacity=".996"/>
    </linearGradient>
    <linearGradient id="s-4" x1="101.32" x2="104.67" y1="160.4" y2="164.34" gradientTransform="translate(-481.17 -729.48) scale(5.5522)" gradientUnits="userSpaceOnUse">
      <stop id="stop26" offset="0" stop-color="#b4b4b4"/>
      <stop id="stop27" offset=".288" stop-color="#f4f4f4" stop-opacity=".992"/>
      <stop id="stop28" offset=".541" stop-color="#b4b4b4" stop-opacity=".992"/>
      <stop id="stop29" offset=".707" stop-color="#cecece" stop-opacity=".996"/>
      <stop id="stop30" offset="1" stop-color="#e9e9e9"/>
    </linearGradient>
    <linearGradient id="t-1" x1="102.35" x2="103.44" y1="160.36" y2="148.6" gradientTransform="translate(-481.17 -729.48) scale(5.5522)" gradientUnits="userSpaceOnUse">
      <stop id="stop31" offset="0" stop-color="#c9c9c9"/>
      <stop id="stop32" offset=".154" stop-color="#fff"/>
      <stop id="stop33" offset="1" stop-color="#aaa"/>
    </linearGradient>
    <linearGradient id="y-4" x1="112.77" x2="96.571" y1="155.91" y2="133.31" gradientTransform="translate(-395.23 -729.48) scale(5.5522)" gradientUnits="userSpaceOnUse">
      <stop id="stop34" offset="0" stop-color="#d2d2d2"/>
      <stop id="stop35" offset=".5" stop-color="#fff"/>
      <stop id="stop36" offset=".798" stop-color="silver"/>
    </linearGradient>
    <filter id="z" width="1.7525652" height="1.1137993" x="-.37628258" y="-.05689963" color-interpolation-filters="sRGB">
      <feGaussianBlur id="feGaussianBlur1" stdDeviation="2.62"/>
    </filter>
    <filter id="c-3" width="1.1960725" height="1.1214515" x="-.09803626" y="-.06072573" color-interpolation-filters="sRGB">
      <feGaussianBlur id="feGaussianBlur36" stdDeviation="4.439"/>
    </filter>
    <filter id="j-7" width="1.0290753" height="1.0128039" x="-.01453766" y="-.00640195" color-interpolation-filters="sRGB">
      <feGaussianBlur id="feGaussianBlur46" stdDeviation=".175"/>
    </filter>
    <filter id="a-5" width="1.3570548" height="1.1968402" x="-.17936883" y="-.1284549" color-interpolation-filters="sRGB">
      <feGaussianBlur id="feGaussianBlur62" stdDeviation="1.317"/>
    </filter>
    <filter id="b-5" width="1.5471058" height="1.4192891" x="-.32548375" y="-.22008279" color-interpolation-filters="sRGB">
      <feGaussianBlur id="feGaussianBlur63" stdDeviation="3.034"/>
    </filter>
    <mask id="w-2" maskUnits="userSpaceOnUse">
      <path id="path62" fill="#fff" fill-opacity=".996" stroke="#fcfcfc" stroke-linecap="square" stroke-width="4" d="M65.85 9.404C62.706 6.596 59.21 4.199 57.25 0L46.825 8.016c4.567-2.542 16.534 2.996 21.099 4.537 1.924.65-3.995-4.014-2.074-3.149zM53.693 38.606l-24.912 8.59-2.516-.903c7.303-2.182 19.162-5.119 27.428-7.687z" filter="url(#b-5)" paint-order="markers fill stroke" style="mix-blend-mode:normal"/>
    </mask>
    <mask id="mask88-8" maskUnits="userSpaceOnUse">
      <g id="g64" transform="translate(-67.696 -3.3995) scale(1.026)">
        <path id="path64" fill="none" stroke="#fefefe" stroke-linecap="square" stroke-width="4" d="M31.614 72.396c-12.141.637-13.048 3.3-16.585 5.488L26.22 89.41l7.773 2.233 4.58-13.277zm-4.375-44.601c-2.077-.83-5.13-5.584-10.649-9l7.246.193 2.385 2.427 1.786-4.494 3.762-.04 3.206-7.23 1.727 13.614-6.873-3.793zm-.652 8.583c-2.752-1.971-11.557-8.583-16.532-9.19l-.077 1.72c1.975 5.032 11.682 1.642 16.608 7.47zm-3.298 15.695c-5.482.039-12.391-1.46-15.64-3.423l.615 6.178c6.126.267 10.503-.754 15.025-2.755z" filter="url(#a-5)" paint-order="markers fill stroke" transform="translate(65.981 3.3134) scale(.97467)"/>
      </g>
    </mask>
  </defs>
  <rect id="rect64" width="144.04" height="144.04" x="27.982" y="28.308" fill="#00c" paint-order="markers fill stroke" ry="14.497"/>
  <path id="path65" fill="#b2b2b2" d="M42.48 29.636a14.466 14.466 0 0 0-14.497 14.497v88.54h82.616v15.445h61.338V86.475h-15.14v-15.4h-15.399v-41.44H42.484z" paint-order="markers fill stroke"/>
  <path id="path66" fill="#363" d="M42.22 27.199a14.466 14.466 0 0 0-14.498 14.497v75.067H64.14v-15.4h15.4v15.4h46.199v15.399h30.799v-30.799h-45.924l-.275-15.399v-15.4h15.4V27.198z" paint-order="markers fill stroke"/>
  <g id="g188" stroke-width=".837" paint-order="markers fill stroke">
    <path id="path67" fill="#999" d="M162.93 110.73h3.083v3.084h-3.083zm0 3.11h3.083v3.084h-3.083zm3.09-3.11h3.083v3.084h-3.083zm-6.18 3.03h3.083v3.084h-3.083zm3.1-21.079v-3.083h3.083v3.083zm3.11 0v-3.083h3.083v3.083zm-.07 3.083v-3.083h3.083v3.083zm-6.12 6.536v-3.083h3.083v3.083z"/>
    <g id="g69" fill="#868686">
      <path id="path68" d="M156.76 110.73h3.083v3.084h-3.083zm0-3.09h3.083v3.084h-3.083zm3.1-2.67h3.083v3.084h-3.083zm3.08-12.365h3.083v3.084h-3.083zm-15.31-2.998h3.083v3.084h-3.083zm-6.29 0h3.083v3.084h-3.083z"/>
      <path id="path69" d="M159.88 110.67h3.083v3.083h-3.083zm6.21 3.11h3.083v3.083h-3.083z" style="-inkscape-stroke:none;font-variation-settings:normal" transform="translate(-.04 .057)"/>
    </g>
    <path id="path70" fill="#999" d="M101.37 120.46h3.083v3.084h-3.083zm0 3.09h3.083v3.084h-3.083zm3.09-3.09h3.083v3.084h-3.083z"/>
    <path id="path71" fill="#868686" d="M79.832 123.42h3.083v3.083h-3.083z" style="-inkscape-stroke:none;font-variation-settings:normal" transform="translate(-.04 .057)"/>
    <path id="path72" fill="#999" d="M79.792 120.36h3.083v3.084h-3.083zm0 9.33h3.083v3.084h-3.083zm49.368-49.417h3.083v3.083h-3.083z"/>
    <g id="g74" fill="#cbcbcb">
      <path id="path73" d="M113.71 77.321h3.083v3.084h-3.083zm9.25 18.395h3.083V98.8h-3.083zm9.26 3.084h3.083v3.083h-3.083z"/>
      <path id="path74" d="M126.04 92.633h3.083v3.084h-3.083zm0-3.083h3.083v3.083h-3.083zm9.22-9.19h3.083v3.083h-3.083z"/>
    </g>
    <g id="g76" fill="#868686">
      <path id="path75" d="M113.71 80.39h3.083v3.083h-3.083zm36.89-.026h3.083v3.084H150.6zm-9.21 0h3.083v3.084h-3.083z"/>
      <path id="path76" d="M116.83 80.332h3.083v3.083h-3.083z" style="-inkscape-stroke:none;font-variation-settings:normal" transform="translate(-.04 .057)"/>
    </g>
    <g id="g80" fill="#999">
      <path id="path77" d="M116.79 77.276h3.083v3.084h-3.083zm15.42-.046h3.083v3.084h-3.083zm-18.5 15.418h3.083v3.084h-3.083zm6.16 0h3.083v3.084h-3.083z"/>
      <path id="path78" d="M116.79 92.648h3.083v3.084h-3.083zm12.34-15.418h3.083v3.084h-3.083z"/>
      <path id="path79" d="M135.3 80.287h3.083v3.083H135.3zm9.25.02h3.083v3.083h-3.083zm3.12-3.072h3.083v3.083h-3.083zm0-3.1h3.083v3.083h-3.083z" style="-inkscape-stroke:none;font-variation-settings:normal" transform="translate(-.04 .057)"/>
      <path id="path80" d="M144.59 71.067h3.083v3.083h-3.083zm-6.17 3.068h3.083v3.083h-3.083z" style="-inkscape-stroke:none;font-variation-settings:normal" transform="translate(-.04 .057)"/>
    </g>
    <path id="path81" fill="#868686" d="M135.26 77.23h3.083v3.084h-3.083z"/>
    <path id="path82" fill="#999" d="M132.25 61.891h3.083v3.083h-3.083zm-6.17-3.113h3.083v3.083h-3.083zm0 6.137h3.083v3.083h-3.083z" style="-inkscape-stroke:none;font-variation-settings:normal" transform="translate(-.04 .057)"/>
    <path id="path83" fill="#868686" d="M132.21 58.835h3.083v3.084h-3.083zm-6.17 3.113h3.083v3.084h-3.083zm18.51 15.312h3.083v3.084h-3.083zm-9.26-40.024h3.083v3.084h-3.083z"/>
    <g id="g85" fill="#999">
      <path id="path84" d="M147.57 95.623v3.083h3.083v-3.083zm-3.13 3.004v3.083h3.083v-3.083z" style="-inkscape-stroke:none;font-variation-settings:normal" transform="translate(-.04 .057)"/>
      <path id="path85" d="M141.4 98.742v3.083h3.083v-3.083z" style="-inkscape-stroke:none;font-variation-settings:normal" transform="translate(-.04 .057)"/>
    </g>
    <path id="path86" fill="#868686" d="M144.43 95.716V98.8h3.083v-3.084z"/>
    <path id="path87" fill="#999" d="M119.91 77.219h3.083v3.083h-3.083zm-3.08 21.599h3.083v3.083h-3.083zm3.08-24.683h3.083v3.083h-3.083zm3.12 6.167h3.083v3.083h-3.083z" style="-inkscape-stroke:none;font-variation-settings:normal" transform="translate(-.04 .057)"/>
    <path id="path88" fill="#868686" d="M113.71 74.237h3.083v3.084h-3.083z"/>
    <path id="path89" fill="#cbcbcb" d="M132.21 80.417h3.083v3.084h-3.083zm9.37-3.141h3.083v3.084h-3.083zm12.09.016h3.083v3.084h-3.083zm-2.96-6.182h3.083v3.083h-3.083zm-21.58-2.994h3.083V71.2h-3.083z"/>
    <path id="path90" fill="#868686" d="M129.13 74.192h3.083v3.084h-3.083zm3.08-6.076h3.083V71.2h-3.083z"/>
    <path id="path91" fill="#999" d="M129.1 92.633h3.083v3.084H129.1z"/>
    <path id="path92" fill="#868686" d="M129.1 89.594h3.083v3.084H129.1z"/>
    <path id="path93" fill="#999" d="M135.3 95.716V98.8h-3.084v-3.084z"/>
    <g id="g95" fill="#868686">
      <path id="path94" d="M132.19 95.716V98.8h-3.084v-3.084zm6.15 0V98.8h-3.084v-3.084zm-24.63.015h3.083v3.084h-3.083zm0-6.151h3.083v3.083h-3.083zm6.16 6.151h3.083v3.084h-3.083zm0-6.151h3.083v3.083h-3.083z"/>
      <path id="path95" d="M116.83 74.18h3.083v3.083h-3.083z" style="-inkscape-stroke:none;font-variation-settings:normal" transform="translate(-.04 .057)"/>
    </g>
    <g id="g100" fill="#cbcbcb">
      <path id="path96" d="M122.96 86.495h3.083v3.084h-3.083zm-52.418 37.002h3.083v3.084h-3.083zm12.298 3.11h3.083v3.084H82.84zm9.286-6.22h3.083v3.084h-3.083z"/>
      <path id="path97" d="M138.3 145h3.083v3.083H138.3zm9.25.03h3.083v3.083h-3.083z" style="-inkscape-stroke:none;font-variation-settings:normal" transform="translate(-.04 .057)"/>
      <path id="path98" d="M73.075 111.24h3.083v3.084h-3.083zm.55 6.17h3.083v3.084h-3.083zm-6.167 3.01h3.083v3.084h-3.083zm-3.083-3.08h3.083v3.084h-3.083z"/>
      <path id="path99" d="M70.248 108.157h3.083v3.084h-3.083zm-9.039 15.34h3.083v3.084H61.21zm-24.577 3.01h3.083v3.084h-3.083zm-3.083 0h3.083v3.084H33.55zm0-9.25h3.083v3.084H33.55zm6.167.04h3.083v3.084h-3.083z"/>
      <path id="path100" d="M36.632 123.47h3.083v3.084h-3.083zm-6.166-6.21h3.083v3.084h-3.083zm0 12.33h3.083v3.084h-3.083zm43.159.1h3.083v3.084h-3.083z"/>
    </g>
    <path id="path101" fill="#868686" d="M70.542 126.57h3.083v3.084h-3.083z"/>
    <path id="path102" fill="#868686" d="M73.665 126.51h3.083v3.083h-3.083z" style="-inkscape-stroke:none;font-variation-settings:normal" transform="translate(-.04 .057)"/>
    <g id="g105" fill="#999">
      <path id="path103" d="M73.625 123.46h3.083v3.084h-3.083zm-3.083 6.18h3.083v3.084h-3.083zm-6.167-3.07h3.083v3.084h-3.083zm-24.659 3.02h3.083v3.084h-3.083zm-9.25-6.16h3.083v3.084h-3.083z"/>
      <path id="path104" d="M30.466 120.35h3.083v3.084h-3.083zm36.717-9.11h3.083v3.084h-3.083z"/>
      <path id="path105" d="M67.183 108.16h3.083v3.084h-3.083zm-2.808 15.34h3.083v3.084h-3.083zm-24.659-3.12h3.083v3.084h-3.083z"/>
    </g>
    <path id="path106" fill="#cbcbcb" d="M39.716 123.47h3.083v3.084h-3.083zm33.909-21.48h3.083v3.084h-3.083zm3.083 0h3.083v3.084h-3.083z"/>
    <path id="path107" fill="#868686" d="M70.542 120.42h3.083v3.084h-3.083z"/>
    <path id="path108" fill="#868686" d="M73.665 120.36h3.083v3.083h-3.083z" style="-inkscape-stroke:none;font-variation-settings:normal" transform="translate(-.04 .057)"/>
    <path id="path109" fill="#cbcbcb" d="M58.208 120.42v-3.083h-3.084v3.083zm-3.013 6.17v-3.083H52.11v3.083zm3.013 3.09v-3.083h-3.084v3.083z"/>
    <path id="path110" fill="#868686" d="M49.043 123.5v-3.083h-3.084v3.083z"/>
    <path id="path111" fill="#868686" d="M49.083 120.36v-3.083H46v3.083z" style="-inkscape-stroke:none;font-variation-settings:normal" transform="translate(-.04 .057)"/>
    <path id="path112" fill="#999" d="M52.156 120.42v-3.083h-3.084v3.083zm-6.181 3.08v-3.083H42.89v3.083z"/>
    <g id="g116" fill="#868686">
      <path id="path113" d="M55.195 123.5v-3.083H52.11v3.083z"/>
      <path id="path114" d="M55.235 120.36v-3.083h-3.083v3.083z" style="-inkscape-stroke:none;font-variation-settings:normal" transform="translate(-.04 .057)"/>
      <path id="path115" d="M95.209 126.62h3.083v3.084H95.21z"/>
      <path id="path116" d="M98.333 126.56h3.083v3.083h-3.083z" style="-inkscape-stroke:none;font-variation-settings:normal" transform="translate(-.04 .057)"/>
    </g>
    <path id="path117" fill="#999" d="M98.293 123.5h3.083v3.084h-3.083zm6.207 6.19h3.083v3.084H104.5zm-9.291 0h3.083v3.084H95.21z"/>
    <path id="path118" fill="#868686" d="M95.209 120.46h3.083v3.084H95.21z"/>
    <path id="path119" fill="#868686" d="M98.333 120.4h3.083v3.083h-3.083z" style="-inkscape-stroke:none;font-variation-settings:normal" transform="translate(-.04 .057)"/>
    <path id="path120" fill="#999" d="M49.043 132.68h-3.084v-3.083h3.084zm0-3.11h-3.084v-3.083h3.084z"/>
    <path id="path121" fill="#cbcbcb" d="M58.294 132.76H55.21v-3.083h3.084z"/>
    <path id="path122" fill="#999" d="M52.126 129.64h-3.084v-3.083h3.084z"/>
    <path id="path123" fill="#868686" d="M55.21 132.68h-3.084v-3.083h3.084z"/>
    <path id="path124" fill="#868686" d="M52.166 132.62h-3.083v-3.083h3.083z" style="-inkscape-stroke:none;font-variation-settings:normal" transform="translate(-.04 .057)"/>
    <g id="g127" fill="#999">
      <path id="path125" d="M150.6 135.827h3.083v3.084H150.6zm0 3.11h3.083v3.084H150.6z"/>
      <path id="path126" d="M159.88 145.03h3.083v3.083h-3.083z" style="-inkscape-stroke:none;font-variation-settings:normal" transform="translate(-.04 .057)"/>
      <path id="path127" d="M162.93 142.007h3.083v3.084h-3.083zm-30.83-3.15h3.083v3.084H132.1zm-3.09-3.05h3.083v3.084h-3.083zm3.09 6.17h3.083v3.084H132.1z"/>
    </g>
    <g id="g129" fill="#868686">
      <path id="path128" d="M144.43 141.98h3.083v3.084h-3.083z"/>
      <path id="path129" d="M141.38 145h3.083v3.083h-3.083zm-6.16 0h3.083v3.083h-3.083zm12.33-3.08h3.083v3.083h-3.083z" style="-inkscape-stroke:none;font-variation-settings:normal" transform="translate(-.04 .057)"/>
    </g>
    <path id="path130" fill="#999" d="M147.51 138.86h3.083v3.084h-3.083z"/>
    <g id="g132" fill="#868686">
      <path id="path131" d="M159.84 141.98h3.083v3.084h-3.083z"/>
      <path id="path132" d="M166.06 145.03h3.083v3.083h-3.083zm-9.26-.03h3.083v3.083H156.8z" style="-inkscape-stroke:none;font-variation-settings:normal" transform="translate(-.04 .057)"/>
    </g>
    <g id="g134" fill="#999">
      <path id="path133" d="M162.93 138.86h3.083v3.084h-3.083zm-3.09-3.08h3.083v3.084h-3.083z"/>
      <path id="path134" d="M144.47 144.99h3.083v3.083h-3.083z" style="-inkscape-stroke:none;font-variation-settings:normal" transform="translate(-.04 .057)"/>
    </g>
    <path id="path135" fill="#868686" d="M129.01 141.99h3.083v3.084h-3.083z"/>
    <path id="path136" fill="#999" d="M129.05 145h3.083v3.083h-3.083z" style="-inkscape-stroke:none;font-variation-settings:normal" transform="translate(-.04 .057)"/>
    <g id="g140" fill="#868686">
      <path id="path137" d="M144.43 135.83h3.083v3.084h-3.083z"/>
      <path id="path138" d="M147.55 135.77h3.083v3.083h-3.083zm-43.01-12.25h3.083v3.083h-3.083z" style="-inkscape-stroke:none;font-variation-settings:normal" transform="translate(-.04 .057)"/>
      <path id="path139" d="M67.183 105.08v3.084h-3.084v-3.084z"/>
      <path id="path140" d="M67.223 108.1v3.083H64.14V108.1zm8.976 0v3.083h-3.083V108.1z" style="-inkscape-stroke:none;font-variation-settings:normal" transform="translate(-.04 .057)"/>
    </g>
    <path id="path141" fill="#cbcbcb" d="M110.83 120.42h-3.084v3.084h3.084z"/>
    <path id="path142" fill="#cbcbcb" d="M113.66 117.34h-3.084v3.084h3.084z"/>
    <path id="path143" fill="#999" d="M116.72 117.34h-3.084v3.084h3.084z"/>
    <g id="g145" fill="#868686">
      <path id="path144" d="M107.79 117.28v3.083h3.083v-3.083zm-40.31-3.09v3.083h-3.083v-3.083z" style="-inkscape-stroke:none;font-variation-settings:normal" transform="translate(-.04 .057)"/>
      <path id="path145" d="M67.458 129.66h3.083v3.084h-3.083z"/>
    </g>
    <path id="path146" fill="#cbcbcb" d="M61.246 123.5v-3.083h-3.084v3.083z"/>
    <path id="path147" fill="#999" d="M61.29 126.59v-3.083h-3.083v3.083z"/>
    <path id="path148" fill="#868686" d="M61.276 129.67v-3.083h-3.084v3.083zm-21.56-3.16h3.083v3.084h-3.083zm-3.084 3.08h3.083v3.084h-3.083z"/>
    <g id="g150" fill="#cbcbcb">
      <path id="path149" d="M135.22 52.715v-3.083h3.083v3.083zm0 3.083v-3.083h3.083v3.083zm-9.26 0v-3.083h3.083v3.083zm.05-6.167v-3.083h3.083v3.083z"/>
      <path id="path150" d="M132.17 52.715v-3.083h3.083v3.083zm-6.21 6.167V55.8h3.083v3.083zm12.35 0V55.8h3.083v3.083z"/>
    </g>
    <g id="g152" fill="#999">
      <path id="path151" d="M138.31 49.631v-3.083h3.083v3.083zm-6.18 9.251V55.8h3.083v3.083z"/>
      <path id="path152" d="M129.05 58.882V55.8h3.083v3.083zm.04-9.251v-3.083h3.083v3.083z"/>
    </g>
    <path id="path153" fill="#cbcbcb" d="M132.17 49.631v-3.083h3.083v3.083zm-3.04-18.491h-3.084v3.084h3.084zm6.16 3.013h-3.084v3.084h3.084zm3.09-3.013h-3.084v3.084h3.084z"/>
    <path id="path154" fill="#868686" d="M132.21 40.304h-3.084v3.084h3.084z"/>
    <path id="path155" fill="#868686" d="M129.17 40.247h-3.083v3.083h3.083z" style="-inkscape-stroke:none;font-variation-settings:normal" transform="translate(-.04 .057)"/>
    <path id="path156" fill="#999" d="M129.13 37.191h-3.084v3.084h3.084zm3.08 6.181h-3.084v3.084h3.084z"/>
    <path id="path157" fill="#868686" d="M132.21 34.153h-3.084v3.084h3.084z"/>
    <path id="path158" fill="#868686" d="M129.17 34.096h-3.083v3.083h3.083z" style="-inkscape-stroke:none;font-variation-settings:normal" transform="translate(-.04 .057)"/>
    <path id="path159" fill="#999" d="M141.38 40.304v3.084h-3.084v-3.084zm-3.11 0v3.084h-3.084v-3.084z"/>
    <path id="path160" fill="#cbcbcb" d="M141.46 31.053v3.084h-3.084v-3.084z"/>
    <path id="path161" fill="#868686" d="M141.38 34.137v3.084h-3.084v-3.084z"/>
    <path id="path162" fill="#868686" d="M141.42 37.164v3.083h-3.083v-3.083z" style="-inkscape-stroke:none;font-variation-settings:normal" transform="translate(-.04 .057)"/>
    <path id="path163" fill="#cbcbcb" d="M132.21 28.102h-3.084v3.084h3.084z"/>
    <path id="path164" fill="#999" d="M135.29 28.056h-3.084v3.084h3.084z"/>
    <path id="path165" fill="#868686" d="M138.38 28.071h-3.084v3.084h3.084zm-3.16 21.56v-3.083h3.083v3.083zm3.09 3.084v-3.083h3.083v3.083z"/>
    <path id="path166" fill="#cbcbcb" d="M76.708 129.69h3.083v3.084h-3.083zm80.052 12.29h3.083v3.084h-3.083z"/>
    <path id="path167" fill="#999" d="M159.84 129.69h3.083v3.084h-3.083zm3.09-3.08h3.083v3.084h-3.083z"/>
    <path id="path168" fill="#868686" d="M159.84 126.57h3.083v3.084h-3.083zm6.18 3.12h3.083v3.084h-3.083zm-9.26-.03h3.083v3.084h-3.083z"/>
    <path id="path169" fill="#999" d="M162.93 123.46h3.083v3.084h-3.083zm-3.09-3.09h3.083v3.084h-3.083z"/>
    <path id="path170" fill="#cbcbcb" d="M156.76 126.57h3.083v3.084h-3.083zm9.26 6.07h3.083v3.084h-3.083zm-12.34 9.35h3.083v3.084h-3.083zm-30.84.04v-3.083h3.083v3.083z"/>
    <g id="g172" fill="#999">
      <path id="path171" d="M113.58 138.96v-3.083h3.083v3.083zm3.11 0v-3.083h3.083v3.083zm6.15-9.26v-3.083h3.083v3.083z"/>
      <path id="path172" d="M119.76 126.62v-3.083h3.083v3.083z"/>
    </g>
    <path id="path173" fill="#868686" d="M119.73 145.12v-3.083h3.083v3.083z"/>
    <path id="path174" fill="#868686" d="M119.77 141.97v-3.083h3.083v3.083z" style="-inkscape-stroke:none;font-variation-settings:normal" transform="translate(-.04 .057)"/>
    <path id="path175" fill="#999" d="M116.62 142.03v-3.083h3.083v3.083z"/>
    <path id="path176" fill="#868686" d="M119.73 129.7v-3.083h3.083v3.083zm3.11-6.16v-3.083h3.083v3.083zm-.02 9.25v-3.083h3.083v3.083z"/>
    <path id="path177" fill="#999" d="M116.68 126.61v-3.083h3.083v3.083zm-3.15 3.09v-3.083h3.083v3.083zm9.27 15.42v-3.083h3.083v3.083z"/>
    <path id="path178" fill="#868686" d="M113.58 145.12v-3.083h3.083v3.083z"/>
    <path id="path179" fill="#868686" d="M113.62 141.97v-3.083h3.083v3.083z" style="-inkscape-stroke:none;font-variation-settings:normal" transform="translate(-.04 .057)"/>
    <g id="g183" fill="#cbcbcb">
      <path id="path180" d="M119.73 132.79v-3.083h3.083v3.083zm-18.36-12.34v-3.083h3.083v3.083z"/>
      <path id="path181" d="M119.75 135.87v-3.083h3.083v3.083zm40.09-18.53h3.083v3.084h-3.083z"/>
      <path id="path182" d="M156.76 117.35h3.083v3.084h-3.083zm6.18-15.43h3.083v3.084h-3.083zm5.87-15.406h3.083v3.084h-3.083zm-2.78 15.406h3.083v3.084h-3.083z"/>
      <path id="path183" d="M159.86 101.93h3.083v3.084h-3.083z"/>
    </g>
    <path id="path184" fill="#868686" d="M85.924 126.62h3.083v3.084h-3.083z"/>
    <path id="path185" fill="#999" d="M89.007 123.5h3.083v3.084h-3.083zm0 3.12h3.083v3.084h-3.083zm-3.048-6.23h3.083v3.084H85.96zm-.035 9.3h3.083v3.084h-3.083z"/>
    <path id="path186" fill="#868686" d="M82.84 129.7h3.083v3.084H82.84zm70.95-40.067V86.55h-3.084v3.083z"/>
    <path id="path187" fill="#999" d="M153.83 95.66v-3.083h-3.083v3.083zm3.07-3.119v-3.083h-3.083v3.083z" style="-inkscape-stroke:none;font-variation-settings:normal" transform="translate(-.04 .057)"/>
    <path id="path188" fill="#868686" d="M156.9 95.681v-3.083h-3.084v3.083z"/>
  </g>
  <g id="g270" stroke-width=".837" paint-order="markers fill stroke">
    <path id="path189" fill="#663" d="M123 68.005h3.084v3.083H123z"/>
    <path id="path190" fill="#222" d="M98.416 71.067h3.083v3.083h-3.083zm0 6.042h3.083v3.083h-3.083zm2.994 3.223h3.083v3.083h-3.083zM82.916 74.18h3.083v3.083h-3.083zm0 6.167h3.083v3.083h-3.083z" style="-inkscape-stroke:none;font-variation-settings:normal" transform="translate(-.004 .007)"/>
    <path id="path191" fill="#663" d="M89.078 80.339h3.084v3.083h-3.084z"/>
    <path id="path192" fill="#222" d="M89.082 89.598h3.083v3.083h-3.083zm9.334-.107h3.083v3.083h-3.083zm-3.167 3.19h3.083v3.083H95.25zm-12.333-3.083h3.083v3.083h-3.083z" style="-inkscape-stroke:none;font-variation-settings:normal" transform="translate(-.004 .007)"/>
    <path id="path193" fill="#663" d="M135.3 111.14h3.084v3.083H135.3z"/>
    <g id="g196" fill="#222">
      <path id="path194" d="M138.38 111.13h3.083v3.083h-3.083z" style="-inkscape-stroke:none;font-variation-settings:normal" transform="translate(-.004 .007)"/>
      <path id="path195" d="M95.245 101.88h3.084v3.083h-3.084z"/>
      <path id="path196" d="M98.333 101.87h3.083v3.083h-3.083z" style="-inkscape-stroke:none;font-variation-settings:normal" transform="translate(-.004 .007)"/>
    </g>
    <path id="path197" fill="#663" d="M39.752 108.03h3.084v3.083h-3.084z"/>
    <path id="path198" fill="#222" d="M39.756 114.19h3.083v3.083h-3.083zm30.826-27.675h3.083v3.083h-3.083zm3.083 3.083h3.083v3.083h-3.083zm0 6.166h3.083v3.083h-3.083zm3.083-9.249h3.083v3.083h-3.083z" style="-inkscape-stroke:none;font-variation-settings:normal" transform="translate(-.004 .007)"/>
    <path id="path199" fill="#663" d="M73.661 86.522h3.084v3.083H73.66zm3.083-12.335h3.084v3.083h-3.084zm-37.001 6.167h3.084v3.083h-3.084zm-6.167 6.168h3.084v3.083h-3.084zm40.085-6.168h3.084v3.083H73.66z"/>
    <g id="g201" fill="#222">
      <path id="path200" d="M70.582 98.848h3.083v3.083h-3.083zm0-6.167h3.083v3.083h-3.083zm70.798 24.599h3.083v3.083h-3.083zm3.09 3.08h3.083v3.083h-3.083zm-12.33.02h3.083v3.083h-3.083z" style="-inkscape-stroke:none;font-variation-settings:normal" transform="translate(-.004 .007)"/>
      <path id="path201" d="M135.22 123.46h3.083v3.083h-3.083zm-9-6.18h3.083v3.083h-3.083zm-.09-6.15h3.083v3.083h-3.083zm18.34 15.4h3.083v3.083h-3.083zm3.08-9.25h3.083v3.083h-3.083zm-6.17 6.16h3.083v3.083h-3.083zM64.415 98.848h3.083v3.083h-3.083zm0-6.167h3.083v3.083h-3.083z" style="-inkscape-stroke:none;font-variation-settings:normal" transform="translate(-.004 .007)"/>
    </g>
    <path id="path202" fill="#663" d="M67.494 95.77h3.084v3.084h-3.084z"/>
    <path id="path203" fill="#222" d="M30.497 74.18h3.083v-3.083h-3.083z" style="-inkscape-stroke:none;font-variation-settings:normal" transform="translate(-.004 .007)"/>
    <path id="path204" fill="#663" d="M33.576 74.187h3.084v-3.084h-3.084z"/>
    <path id="path205" fill="#222" d="M36.664 74.18h3.083v-3.083h-3.083zm-6.158 36.93h3.083v3.083h-3.083z" style="-inkscape-stroke:none;font-variation-settings:normal" transform="translate(-.004 .007)"/>
    <path id="path206" fill="#663" d="M33.585 111.12h3.084v3.083h-3.084z"/>
    <path id="path207" fill="#222" d="M36.672 111.11h3.083v3.083h-3.083zm36.993-33.846h3.083v3.083h-3.083zm0-6.167h3.083v3.083h-3.083zm-6.167 6.167h3.083v3.083h-3.083zm9.25 3.083h3.083v3.083h-3.083zm-6.166 0h3.083v3.083h-3.083zm-3.084-9.25h3.083v3.083h-3.083z" style="-inkscape-stroke:none;font-variation-settings:normal" transform="translate(-.004 .007)"/>
    <path id="path208" fill="#663" d="M150.64 104.97h3.084v3.083h-3.084zm-12.34 21.55h3.084v3.083H138.3zm-9.25 0h3.084v3.083h-3.084zm18.5-15.38h3.084v3.083h-3.084zm3.09 6.16h3.084v3.083h-3.084zm-9.26 3.07h3.084v3.083h-3.084z"/>
    <path id="path209" fill="#222" d="M85.999 71.067h3.083v3.083H86zm6.167 0h3.083v3.083h-3.083zm0 6.042h3.083v3.083h-3.083z" style="-inkscape-stroke:none;font-variation-settings:normal" transform="translate(-.004 .007)"/>
    <path id="path210" fill="#663" d="M82.912 71.074h3.084v3.083h-3.084zm64.634 52.363h3.084v3.083h-3.084zm-15.34-21.56h3.084v3.083h-3.084zm6.17 3.07h3.084v3.083h-3.084z"/>
    <path id="path211" fill="#222" d="M147.55 108.05h3.083v3.083h-3.083z" style="-inkscape-stroke:none;font-variation-settings:normal" transform="translate(-.004 .007)"/>
    <path id="path212" fill="#663" d="M104.5 108.04h3.084v3.083H104.5zm-2.88 3.1h3.084v3.083h-3.084z"/>
    <path id="path213" fill="#222" d="M104.5 104.95h3.083v3.083H104.5zm43.05-3.08h3.083v3.083h-3.083zm-6.17 6.18h3.083v3.083h-3.083zm9.26 3.08h3.083v3.083h-3.083z" style="-inkscape-stroke:none;font-variation-settings:normal" transform="translate(-.004 .007)"/>
    <path id="path214" fill="#663" d="M79.792 108.04h3.084v3.083h-3.084z"/>
    <path id="path215" fill="#222" d="M79.796 104.95h3.083v3.083h-3.083zm3.084 3.08h3.083v3.083H82.88zm3.119-6.16h3.083v3.083H86zm64.641 24.64h3.083v3.083h-3.083zm-6.17-15.38h3.083v3.083h-3.083zM79.628 98.848h3.083v3.083h-3.083zm61.752 3.022h3.083v3.083h-3.083zm-30.51 6.16h3.083v3.083h-3.083zm0-6.17h3.083v3.083h-3.083z" style="-inkscape-stroke:none;font-variation-settings:normal" transform="translate(-.004 .007)"/>
    <path id="path216" fill="#663" d="M64.411 80.354h3.084v3.083H64.41z"/>
    <path id="path217" fill="#222" d="M39.747 89.598h3.083v3.083h-3.083zm-3.083 3.083h3.083v3.083h-3.083z" style="-inkscape-stroke:none;font-variation-settings:normal" transform="translate(-.004 .007)"/>
    <path id="path218" fill="#663" d="M30.493 92.688h3.084v3.083h-3.084z"/>
    <path id="path219" fill="#222" d="M30.497 98.848h3.083v3.083h-3.083z" style="-inkscape-stroke:none;font-variation-settings:normal" transform="translate(-.004 .007)"/>
    <path id="path220" fill="#663" d="M33.576 98.855h3.084v3.083h-3.084z"/>
    <path id="path221" fill="#222" d="M36.664 98.848h3.083v3.083h-3.083z" style="-inkscape-stroke:none;font-variation-settings:normal" transform="translate(-.004 .007)"/>
    <path id="path222" fill="#663" d="M153.72 120.39h3.084v3.083h-3.084zm-64.415-9.25h3.084v3.083h-3.085z"/>
    <path id="path223" fill="#222" d="M58.248 101.93h3.083v3.083h-3.083zM42.83 74.18h3.083v3.083H42.83zm3.084 3.084h3.083v3.083h-3.083zm3.084 3.083h3.083v3.083h-3.083zm0-6.167h3.083v3.083h-3.083zm3.083 3.084h3.083v3.083h-3.083zm-3.083 15.417h3.083v3.083h-3.083zm0-6.166h3.083v3.083h-3.083zm-6.168 6.166h3.083v3.083H42.83zm0-6.166h3.083v3.083H42.83zm9.251 3.083h3.083v3.083h-3.083z" style="-inkscape-stroke:none;font-variation-settings:normal" transform="translate(-.004 .007)"/>
    <path id="path224" fill="#663" d="M48.994 77.27h3.084v3.084h-3.084z"/>
    <path id="path225" fill="#222" d="M58.248 95.764h3.083v3.083h-3.083zm0-6.166h3.083v3.083h-3.083z" style="-inkscape-stroke:none;font-variation-settings:normal" transform="translate(-.004 .007)"/>
    <path id="path226" fill="#663" d="M58.244 92.688h3.084v3.083h-3.084zm-3.084 18.429h3.084v3.083H55.16z"/>
    <path id="path227" fill="#222" d="M58.248 77.264h3.083v3.083h-3.083zm-3.084 3.083h3.083v3.083h-3.083z" style="-inkscape-stroke:none;font-variation-settings:normal" transform="translate(-.004 .007)"/>
    <path id="path228" fill="#663" d="M58.244 80.354h3.084v3.083h-3.084zm-9.25 3.083h3.084v3.083h-3.084zm6.166 3.085h3.084v3.083H55.16zm-3.083 9.248h3.084v3.084h-3.084zm-6.167-6.165h3.084v3.083H45.91z"/>
    <path id="path229" fill="#222" d="M52.081 108.1h3.083v3.083h-3.083zm0-6.17h3.083v3.083h-3.083zm-6.167 6.17h3.083v3.083h-3.083zm3.084-3.08h3.083v3.083h-3.083zm-3.084-3.09h3.083v3.083h-3.083z" style="-inkscape-stroke:none;font-variation-settings:normal" transform="translate(-.004 .007)"/>
    <path id="path230" fill="#663" d="M48.994 101.94h3.084v3.083h-3.084zm0 6.17h3.084v3.083h-3.084zm12.262-3.08h3.084v3.083h-3.084zm-21.513-3.09h3.084v3.083h-3.084z"/>
    <path id="path231" fill="#222" d="M116.83 43.346h3.083v3.083h-3.083zm-6.16 6.166h3.083v3.083h-3.083zM82.916 55.68h3.083v3.083h-3.083zm3.083 3.083h3.083v3.083H86zm3 3.223h3.083v3.083H89zm-58.502-27.89h3.083v3.083h-3.083zm6.167 0h3.083v3.083h-3.083zm6.166-6.168h3.083v3.083H42.83zm3.084 3.083h3.083v3.083h-3.083zm6.167 0h3.083v3.083h-3.083zm3.083 3.085h3.083v3.083h-3.083zm12.334-6.168h3.083v3.083h-3.083zm3.084 3.083h3.083v3.083h-3.083zm3.083 3.085h3.083v3.083h-3.083zm0-6.168h3.083v3.083h-3.083zm3.083 3.083h3.083v3.083h-3.083zm-3.083 15.418h3.083v3.083h-3.083zm0-6.167h3.083v3.083h-3.083zm-6.167 6.167h3.083v3.083h-3.083zm6.167 18.501h3.083v3.083h-3.083zm-6.167 0h3.083v3.083h-3.083zm0-24.668h3.083v3.083h-3.083zm9.25 3.084h3.083v3.083h-3.083zm-18.5-12.335h3.083v3.083h-3.083zm3.083 3.085h3.083v3.083h-3.083z" style="-inkscape-stroke:none;font-variation-settings:normal" transform="translate(-.004 .007)"/>
    <path id="path232" fill="#663" d="M33.576 34.103h3.084v3.083h-3.084zm6.167-3.085h3.084V34.1h-3.084zm-9.25 9.251h3.084v3.083h-3.084zm3.083 6.167h3.084v3.083h-3.084zm24.668-12.333h3.084v3.083h-3.084zm15.417-3.085h3.084V34.1H73.66z"/>
    <path id="path233" fill="#222" d="M82.916 49.512h3.083v3.083h-3.083zm0-6.166h3.083v3.083h-3.083zm3.083 3.083h3.083v3.083H86z" style="-inkscape-stroke:none;font-variation-settings:normal" transform="translate(-.004 .007)"/>
    <path id="path234" fill="#663" d="M82.912 46.436h3.084v3.083h-3.084z"/>
    <path id="path235" fill="#222" d="M98.333 46.429h3.083v3.083h-3.083zm0-6.167h3.083v3.083h-3.083z" style="-inkscape-stroke:none;font-variation-settings:normal" transform="translate(-.004 .007)"/>
    <path id="path236" fill="#663" d="M98.329 43.353h3.084v3.083h-3.084z"/>
    <path id="path237" fill="#222" d="M82.916 31.011h3.083v3.083h-3.083zm-3.084 3.085h3.083v3.083h-3.083zm6.167 0h3.083v3.083H86z" style="-inkscape-stroke:none;font-variation-settings:normal" transform="translate(-.004 .007)"/>
    <path id="path238" fill="#663" d="M82.912 34.103h3.084v3.083h-3.084zm-33.918-3.085h3.084V34.1h-3.084zm15.417 0h3.084V34.1H64.41z"/>
    <path id="path239" fill="#222" d="M92.166 27.928h3.083v3.083h-3.083z" style="-inkscape-stroke:none;font-variation-settings:normal" transform="translate(-.004 .007)"/>
    <path id="path240" fill="#663" d="M89.078 31.018h3.084V34.1h-3.084z"/>
    <path id="path241" fill="#222" d="M95.249 31.011h3.083v3.083H95.25zm3.084 3.085h3.083v3.083h-3.083zm0-6.168h3.083v3.083h-3.083zm3.077 3.083h3.083v3.083h-3.083zm12.34-3.083h3.083v3.083h-3.083zm6.16 0h3.083v3.083h-3.083z" style="-inkscape-stroke:none;font-variation-settings:normal" transform="translate(-.004 .007)"/>
    <path id="path242" fill="#663" d="M98.329 31.018h3.084V34.1h-3.084zm12.337 0h3.084V34.1h-3.084z"/>
    <path id="path243" fill="#222" d="M104.5 34.096h3.083v3.083H104.5zm3.08-3.085h3.083v3.083h-3.083z" style="-inkscape-stroke:none;font-variation-settings:normal" transform="translate(-.004 .007)"/>
    <path id="path244" fill="#663" d="M73.661 37.186h3.084v3.083H73.66zm6.167 3.083h3.084v3.083h-3.084zm-3.084 9.25h3.084v3.083h-3.084zm-6.166-6.166h3.084v3.083h-3.084zm0 24.667h3.084v3.083h-3.084zm6.166 0h3.084v3.083h-3.084z"/>
    <path id="path245" fill="#222" d="M76.748 61.846h3.083v3.083h-3.083z" style="-inkscape-stroke:none;font-variation-settings:normal" transform="translate(-.004 .007)"/>
    <path id="path246" fill="#663" d="M30.493 64.937h3.084v3.083h-3.084z"/>
    <path id="path247" fill="#222" d="M30.497 58.763h3.083v3.083h-3.083z" style="-inkscape-stroke:none;font-variation-settings:normal" transform="translate(-.004 .007)"/>
    <path id="path248" fill="#663" d="M39.743 55.687h3.084v3.083h-3.084z"/>
    <path id="path249" fill="#222" d="M48.998 37.179v3.083h3.083V37.18z" style="-inkscape-stroke:none;font-variation-settings:normal" transform="translate(-.004 .007)"/>
    <path id="path250" fill="#663" d="M33.576 58.77h3.084v3.083h-3.084z"/>
    <path id="path251" fill="#222" d="M36.664 58.763h3.083v3.083h-3.083zm40.084-3.083h3.083v3.083h-3.083zm-6.166 6.166h3.083v3.083h-3.083zM36.664 64.93h3.083v3.083h-3.083zm3.083-3.084h3.083v3.083h-3.083zm3.083-18.5v3.083h3.083v-3.083zm43.169 21.569h3.083v3.083H86zm6.167.015h3.083v3.083h-3.083zm18.504-6.167h3.083v3.083h-3.083zm3.08 3.083h3.083v3.083h-3.083zm0 6.167h3.083v3.083h-3.083zm3.08-9.25h3.083v3.083h-3.083zm-6.16 6.167h3.083v3.083h-3.083z" style="-inkscape-stroke:none;font-variation-settings:normal" transform="translate(-.004 .007)"/>
    <path id="path252" fill="#663" d="M119.91 58.785h3.084v3.083h-3.084zm-9.24 3.068h3.084v3.083h-3.084zm6.16 3.069h3.084v3.083h-3.084z"/>
    <path id="path253" fill="#222" d="M116.83 49.512h3.083v3.083h-3.083zm3.08-3.083h3.083v3.083h-3.083z" style="-inkscape-stroke:none;font-variation-settings:normal" transform="translate(-.004 .007)"/>
    <path id="path254" fill="#663" d="M119.91 52.588h3.084v3.083h-3.084z"/>
    <path id="path255" fill="#222" d="M119.91 67.998h3.083v3.083h-3.083zm-46.245-9.235h3.083v3.083h-3.083zm-3.083-3.083h3.083v3.083h-3.083z" style="-inkscape-stroke:none;font-variation-settings:normal" transform="translate(-.004 .007)"/>
    <path id="path256" fill="#663" d="M73.661 55.687h3.084v3.083H73.66zm0 6.166h3.084v3.083H73.66zm15.417-6.166h3.084v3.083h-3.084zm-6.166 3.083h3.084v3.083h-3.084zm12.167 3.083h3.084v3.083h-3.084zm12.527 6.167h3.084v3.083h-3.084z"/>
    <path id="path257" fill="#222" d="M92.166 46.429h3.083v3.083h-3.083zm-55.502 0h3.083v3.083h-3.083zm0-6.167h3.083v3.083h-3.083zm-6.167 6.167h3.083v3.083h-3.083zm61.669-6.167h3.083v3.083h-3.083z" style="-inkscape-stroke:none;font-variation-settings:normal" transform="translate(-.004 .007)"/>
    <path id="path258" fill="#663" d="M95.245 49.519h3.084v3.083h-3.084zm-30.834 6.168h3.084v3.083H64.41zM45.91 40.269v3.083h3.084V40.27z"/>
    <path id="path259" fill="#222" d="M85.999 40.262h3.083v3.083H86zm-40.085 6.167v3.083h3.083V46.43zm3.084 3.083v3.083h3.083v-3.083zm-6.168 0v3.083h3.083v-3.083zm3.084 3.084v3.083h3.083v-3.083zM42.83 64.93v3.083h3.083V64.93z" style="-inkscape-stroke:none;font-variation-settings:normal" transform="translate(-.004 .007)"/>
    <path id="path260" fill="#663" d="M45.91 49.519v3.083h3.084V49.52zm0 12.334v3.083h3.084v-3.083z"/>
    <path id="path261" fill="#222" d="M48.998 55.68v3.083h3.083V55.68zm-3.084 3.083v3.083h3.083v-3.083zm67.836-15.417h-3.083v-3.083h3.083zm-3.08 3.083h-3.083v-3.083h3.083zm-3.09-3.083h-3.083v-3.083h3.083z" style="-inkscape-stroke:none;font-variation-settings:normal" transform="translate(-.004 .007)"/>
    <path id="path262" fill="#663" d="M110.67 43.353h-3.083v-3.084h3.083z"/>
    <path id="path263" fill="#222" d="M52.081 58.763v3.083h3.083v-3.083zm6.167 0v3.083h3.083v-3.083zm0-6.167v3.083h3.083v-3.083zm3.083 9.25v3.083h3.083v-3.083zm0 6.167v3.083h3.083v-3.083zm-9.25-3.083v3.083h3.083V64.93z" style="-inkscape-stroke:none;font-variation-settings:normal" transform="translate(-.004 .007)"/>
    <path id="path264" fill="#663" d="M52.077 68.02v3.083h3.084V68.02zm3.083-9.25v3.083h3.084V58.77zm3.084 6.167v3.083h3.084v-3.083z"/>
    <path id="path265" fill="#222" d="M52.081 47.97h3.083v-3.083h-3.083zm9.25-3.083h3.083v-3.083h-3.083z" style="-inkscape-stroke:none;font-variation-settings:normal" transform="translate(-.004 .007)"/>
    <path id="path266" fill="#663" d="M61.327 47.977h3.084v-3.084h-3.084zm-6.167-3.083h3.084V41.81H55.16z"/>
    <path id="path267" fill="#222" d="M107.58 64.93v3.083h-3.083V64.93zm-6.17-6.167v3.083h-3.083v-3.083zm6.17 0v3.083h-3.083v-3.083zm-6.17-6.167v3.083h-3.083v-3.083zm3.09 3.084v3.083h-3.083V55.68zm3.08-3.084v3.083h-3.083v-3.083z" style="-inkscape-stroke:none;font-variation-settings:normal" transform="translate(-.004 .007)"/>
    <path id="path268" fill="#663" d="M107.58 55.687v3.083h-3.083v-3.083zm-6.17 0v3.083h-3.083v-3.083zm3.09 9.25v3.083h-3.083v-3.083zm3.08-18.501v3.083h-3.083v-3.083z"/>
    <path id="path269" fill="#222" d="M119.91 37.179v3.083h-3.083V37.18z" style="-inkscape-stroke:none;font-variation-settings:normal" transform="translate(-.004 .007)"/>
    <path id="path270" fill="#663" d="M119.91 34.103v3.083h-3.083v-3.083z"/>
  </g>
  <g id="g272" stroke-linecap="square" stroke-linejoin="round" paint-order="markers fill stroke">
    <path id="path271" fill="#fff" fill-opacity=".327" d="M48.232 27.711v11.731H34.505v-9.304c-.593.395-1.146.842-1.673 1.318v7.986h-4.51a14.613 14.613 0 0 0-.214 1.673h4.724V54.84h-4.778v1.674h4.778V70.24h-4.778v1.673h4.778v13.725h-4.778v1.674h4.778v13.725h-4.778v1.673h4.778v13.727h-4.778v1.674h4.778v13.725h-4.778v1.673h4.778v13.725h-4.778v1.674h4.778v13.727h-3.74c.23.577.491 1.136.79 1.673h2.95v3.693c.527.476 1.08.924 1.673 1.319v-5.012h13.727v7.438h1.673v-7.438H63.63v7.438h1.674v-7.438h13.725v7.438h1.673v-7.438H94.43v7.438h1.674v-7.438h13.726v7.438h1.673v-7.438h13.725v7.438h1.673v-7.438h13.727v7.438h1.674v-7.438h13.725v7.438h1.566c.036 0 .07-.005.107-.005v-7.432h12.562c.299-.537.56-1.097.79-1.674H157.7V148.91h13.726v12.702c.43-1.376.665-2.84.665-4.361V42.21c0-1.522-.234-2.986-.665-4.362v1.595H157.7V27.718c-.036 0-.07-.005-.107-.005h-1.566v11.73H142.3v-11.73h-1.674v11.73H126.9v-11.73h-1.673v11.73h-13.725v-11.73h-1.673v11.73H96.103v-11.73H94.43v11.73H80.703v-11.73h-1.674v11.73H65.304v-11.73H63.63v11.73H49.905v-11.73zM34.505 41.115h13.727V54.84H34.505zm15.401 0h13.725V54.84H49.906zm15.399 0H79.03V54.84H65.305zm15.399 0h13.727V54.84H80.704zm15.4 0h13.726V54.84H96.104zm15.399 0h13.725V54.84h-13.725zm15.399 0h13.727V54.84h-13.727zm15.401 0h13.725V54.84h-13.725zm15.399 0h13.726V54.84h-13.726zm-123.2 15.399h13.727v13.727H34.502zm15.401 0h13.725v13.727H49.903zm15.399 0h13.725v13.727H65.302zm15.399 0h13.727v13.727H80.701zm15.4 0h13.726v13.727H96.101zm15.399 0h13.725v13.727H111.5zm15.399 0h13.727v13.727h-13.727zm15.401 0h13.725v13.727H142.3zm15.399 0h13.726v13.727h-13.726zm-123.2 15.401h13.727V85.64H34.499zm15.401 0h13.725V85.64H49.9zm15.399 0h13.725V85.64H65.299zm15.399 0h13.727V85.64H80.698zm15.4 0h13.726V85.64H96.098zm15.399 0h13.725V85.64h-13.725zm15.399 0h13.727V85.64h-13.727zm15.401 0h13.725V85.64h-13.725zm15.399 0h13.726V85.64h-13.726zm-123.2 15.399h13.727v13.725H34.496zm15.401 0h13.725v13.725H49.897zm15.399 0h13.725v13.725H65.296zm15.399 0h13.727v13.725H80.695zm15.4 0h13.726v13.725H96.095zm15.399 0h13.725v13.725h-13.725zm15.399 0h13.727v13.725h-13.727zm15.401 0h13.725v13.725h-13.725zm15.399 0h13.726v13.725h-13.726zm-123.2 15.399H48.22v13.727H34.493zm15.401 0h13.725v13.727H49.894zm15.399 0h13.725v13.727H65.293zm15.399 0h13.727v13.727H80.692zm15.4 0h13.726v13.727H96.092zm15.399 0h13.725v13.727h-13.725zm15.399 0h13.727v13.727H126.89zm15.401 0h13.725v13.727h-13.725zm15.399 0h13.726v13.727H157.69zm-123.2 15.401h13.727v13.725H34.49zm15.401 0h13.725v13.725H49.891zm15.399 0h13.725v13.725H65.29zm15.399 0h13.727v13.725H80.689zm15.4 0h13.726v13.725H96.089zm15.399 0h13.725v13.725h-13.725zm15.399 0h13.727v13.725h-13.727zm15.401 0h13.725v13.725h-13.725zm15.399 0h13.726v13.725h-13.726zm-123.2 15.399h13.727v13.725H34.487zm15.401 0h13.725v13.725H49.888zm15.399 0h13.725v13.725H65.287zm15.399 0h13.727v13.725H80.686zm15.4 0h13.726v13.725H96.086zm15.399 0h13.725v13.725h-13.725zm15.399 0h13.727v13.725h-13.727zm15.401 0h13.725v13.725h-13.725zm15.399 0h13.726v13.725h-13.726zm-123.2 15.399h13.727v13.727H34.484zm15.401 0H63.61v13.727H49.885zm15.399 0h13.725v13.727H65.284zm15.399 0H94.41v13.727H80.683zm15.4 0h13.726v13.727H96.083zm15.399 0h13.725v13.727h-13.725zm15.399 0h13.727v13.727h-13.727zm15.401 0h13.725v13.727h-13.725z" style="-inkscape-stroke:none" transform="translate(-.07 .597)"/>
    <path id="path272" d="M42.551 26.023c-8.937 0-16.186 7.248-16.186 16.186v115.04c0 8.937 7.248 16.186 16.186 16.186h115.04c8.937 0 16.184-7.248 16.184-16.186V42.209c0-8.937-7.246-16.186-16.184-16.186zm0 3.375h115.04A12.745 12.745 0 0 1 170.4 42.209v115.04a12.745 12.745 0 0 1-12.809 12.811H42.551a12.747 12.747 0 0 1-12.811-12.811V42.209a12.747 12.747 0 0 1 12.811-12.811z" style="-inkscape-stroke:none" transform="translate(-.07 .597)"/>
  </g>
  <g id="g273" stroke-linecap="square" paint-order="markers fill stroke" transform="translate(-58.743 122.08)">
    <rect id="rect272" width="22.026" height="145.66" x="101.92" y="-101.23" stroke="#000" stroke-width="4" filter="url(#z)" ry="2.46"/>
    <rect id="rect273" width="22.026" height="145.66" x="100.99" y="-105.37" stroke="#000" stroke-width="4" ry="2.46"/>
    <path id="path273" fill="#ffc" d="M103.62-103.57v14.592h6.624v3.025h-6.624v15.416h6.624v3.025h-6.624v15.202h6.624v3.025h-6.624v15.118h19.393v3.024H103.62v15.436h6.624v3.025h-6.624V2.415h6.624v3.026h-6.624v15.2h6.056v3.025h-6.056v14.829h21.393v-142.07z"/>
  </g>
  <path id="path274" d="M118.67 85.481H79.52c5.545 5.26 11.346 10.405 13.175 17.323 11.023-6.128 21.684-8.437 34.304-6.772.158 40.337-.431 53.28-11.731 65.527 6.762 2.493 16.592 13.61 18.544 21.851 2.71-9.719 12.962-19.983 18.616-21.864-11.493-11.555-10.748-25.475-10.715-65.689 12.474-1.13 21.892-.175 33.264 6.954 1.756-5.525 5.938-11.282 13.213-17.337l-39.114-.042c28.645-31.547 15.182-72.542-15.194-77.46-30.425 3.748-42.592 46.73-15.212 77.51Zm15.157-61.978c16.082 6.595 21.845 42.292-.001 61.946-19.201-17.571-19.362-52.305.001-61.946z" display="inline" filter="url(#c-3)" style="mix-blend-mode:normal"/>
  <g id="g312" display="inline" transform="translate(-52.093 .4529)">
    <g id="g307" stroke-linecap="square" stroke-linejoin="round">
      <g id="g291" stroke-width="1.4718" transform="translate(85.938)">
        <path id="path288" fill="#ccc" d="M100.03 7.5193c-.0154.00234-.03036.00602-.04578.00839-.0013-.0002-.0025-.00057-.0038-.00076-.28059.0429-.55639.09575-.83389.14496-.18141.03222-.36544.05898-.5455.09384-.34944.06759-.69401.14527-1.0384.22278-.11566.02601-.23359.04765-.34866.07476-.23819.05618-.47157.12071-.70725.18158-.22213.05727-.44617.11107-.66605.17243-.03821.01069-.07553.02275-.11367.03357-18.781 5.3109-29.263 25.482-25.445 47.231 1.7072 9.8542 6.3473 20.032 14.489 29.296H45.64c7.2734 6.0741 11.493 11.849 13.214 17.351 10.438-5.752 17.401-8.1177 34.296-6.752 0 11.932 3.2869 52.852-11.771 65.527 7.3844 4.6528 15.547 15.319 18.6 21.87 3.0537-6.5516 11.199-17.218 18.583-21.87-15.058-12.676-10.705-59.506-10.705-65.471 16.895-1.3658 22.814.96484 33.252 6.7169 1.7212-5.5022 6.0035-11.304 13.271-17.372h-39.147c.54657-.62194 1.0724-1.2491 1.5877-1.8791.004-.0045.007-.0092.0107-.01373.45238-.55337.89215-1.1095 1.3206-1.6685.11341-.14736.2262-.29479.33798-.4425.27958-.37109.55246-.74361.82169-1.1169 13.382-18.462 14.206-39.451 6.2454-54.137-.40809-.78389-.85943-1.5594-1.3512-2.3247-1.3404-2.117-2.8846-4.0614-4.6379-5.8315-5.003-5.019-11.69-8.8958-19.538-10.028-.00002-.00525-.00077-.01-.00077-.01526zm-.05188 15.532c6.3666 2.7237 11.718 10.68 13.73 20.624 2.5855 12.786-.34879 28.858-13.735 41.32-23.8-22.153-14.546-55.718.0053-61.944zm-.0053 63.174.0038 2.4338v.0038c-.0015-.001-.003-.002-.0046-.0031z"/>
        <path id="path289" fill="url(#f-7)" d="M99.983 7.5267c-30.328 4.6375-42.662 46.274-15.166 77.502l12.457 5.0408c-6.4065-7.0469-23.155-26.601-20.613-45.314 1.6725-12.31 16.664-27.275 23.368-30.963-.008-2.105 1.1833-5.2296-.04628-6.2655z"/>
        <path id="path290" fill="url(#d-6)" d="M99.979 18.013c30.328 4.6375 34.134 47.683 0 70.674l-.000975-3.6911c23.800005-22.154 14.555005-55.722.000975-61.946Z"/>
        <path id="path291" fill="url(#e-9)" d="M99.979 18.013c30.328 4.6375 34.134 47.683 0 70.674l-.005-3.6913c23.8-22.154 14.562-55.722.0078-61.946z"/>
      </g>
      <path id="path292" fill="#8e8e8e" stroke-width="1.51" d="M185.92 7.5267c29.352 3.9531 42.74 46.224 15.244 77.452l-12.47 5.079c6.406-7.047 23.182-26.588 20.64-45.302-1.672-12.31-16.66-27.277-23.364-30.965l-.0501-6.2637Z"/>
      <path id="path293" fill="url(#g-6)" stroke-width="1.4718" d="M199.47 12.653c8.1024 5.312 13.475 13.034 15.694 23.236l-10.186-1.4386c-.72807-3.4065 5.8071-8.656-4.1365-6.7467-1.4649-2.0371-2.5166-3.271-4.5839-5.4776-.76219-4.9991-9.6941-17.813 3.2125-9.5732z" style="mix-blend-mode:normal"/>
      <path id="path294" fill="url(#h-8)" stroke-width="1.4718" d="M211.06 24.907c9.2136 16.072 7.6522 40.152-9.887 60.071l-12.476 5.0779c6.4065-7.0469 23.183-26.587 20.641-45.301-.40546-2.9844-1.5936-6.1239-3.2554-9.2223-7.5849-8.6356 1.5419-8.0937 4.9776-10.624z"/>
      <path id="path295" fill="url(#i-0)" stroke-width="1.51" d="M180.07 25.495c9.453 16.49 7.472 39.958-10.523 60.395l-12.795 5.21c6.573-7.23 23.785-27.278 21.177-46.478-.416-3.062-1.635-6.283-3.34-9.462-7.782-8.86 1.956-7.067 5.48-9.665z" filter="url(#j-7)" style="mix-blend-mode:normal" transform="translate(35.498 .85338) scale(.97467)"/>
      <path id="path296" fill="url(#k-5)" stroke-width="1.4718" d="M208.12 20.571c2.2125 2.7583 3.8928 5.7018 4.9221 8.7136l-8.1219 4.0449c-1.5059-2.5117-3.2876-4.9689-5.1755-7.2623z"/>
      <path id="path297" fill="url(#l-2)" stroke-width="5.5522" d="m185.92 91.358-39.332 1.0827.0833 3.1592c-2.1165.37938-2.7063 2.6672-1.8766 6.7293 10.438-5.7521 17.401-8.1173 34.296-6.7515l6.8292 3.4646z"/>
      <path id="path298" fill="url(#m-0)" stroke-width=".97467" d="M170.71 84.978h-39.133l12.356 7.6462 39.279-2.5548-3.0309-1.4053z"/>
      <path id="path299" fill="url(#n-9)" stroke-width=".97467" d="m201.17 84.978 39.156-.00026-12.369 7.6459-39.293-2.5166 2.9844-1.4435z"/>
      <g id="g306" stroke-width="5.5522" transform="translate(85.938)">
        <path id="path300" fill="url(#o-7)" d="m138.53 96.023 6.4309-7.3587 9.4221-3.6858c-7.2678 6.0686-11.55 11.87-13.271 17.373z"/>
        <path id="path301" fill="url(#p-5)" d="M99.982 91.358h38.327l.74057 5.1166 2.0633 5.8764c-10.438-5.7521-16.357-8.0833-33.253-6.7174l-7.8781 3.4083z"/>
        <path id="path302" fill="url(#q-4)" d="m103.79 91.659-1.0837-1.0097v70.455c5.2863.001 8.5939 1.7356 15.863-.00001-15.058-12.676-10.705-59.507-10.705-65.471z"/>
        <path id="path303" fill="url(#r-0)" d="M99.982 161.1c-.0252 7.291-9.1442 2.8784 0 21.87 3.0537-6.5516 11.199-17.217 18.583-21.87z"/>
        <path id="path304" fill="url(#s-4)" d="M99.982 161.1v21.87c-3.0537-6.5516-11.215-17.217-18.6-21.87 3.5869-3.278 12.4 0 18.6 0z"/>
        <path id="path305" fill="url(#t-1)" d="m93.153 95.577 4.1253-5.5078v71.035h-15.896c15.058-12.676 11.771-53.595 11.771-65.527z"/>
        <path id="path306" fill="url(#u-3)" d="m60.744 95.577-5.7318-6.901-9.3702-3.6982c7.2734 6.0741 11.493 11.848 13.214 17.351z"/>
      </g>
    </g>
    <path id="path307" fill="#ccc" d="M185.92 18.012c-30.328 4.638-34.143 47.683-.009 70.675l.001-3.691c-23.8-22.155-14.546-55.722.008-61.946Z"/>
    <path id="path308" d="M34.884 15.081C3.768 19.839-.144 64.003 34.8761 87.592l.002-3.787c-24.42-22.73-14.925-57.169.0059-63.555Z" mask="url(#mask88-8)" opacity=".501" style="mix-blend-mode:normal" transform="translate(151.92 3.3134) scale(.97467)"/>
    <g id="g311" stroke-linecap="square" stroke-linejoin="round">
      <path id="path309" fill-opacity=".425" d="M65.85 2.97c-31.299 4.76-43.8 47.434-15.589 79.474l12.795 5.21c-6.573-7.23-23.785-27.278-21.177-46.478 1.716-12.63 17.093-27.986 23.971-31.77 3.167-1.743 0-3.183 0-6.435z" mask="url(#w-2)" transform="translate(121.79 4.6244) scale(.97467)"/>
      <path id="path310" fill="url(#x-7)" stroke-width=".97467" d="M185.92 7.5267c29.811 4.1046 42.707 46.274 15.211 77.502l-12.443 5.0273c6.4065-7.0469 23.183-26.587 20.641-45.301-1.6725-12.31-16.66-27.277-23.364-30.965z"/>
      <path id="path311" fill="url(#y-4)" stroke-width=".97467" d="M185.95 10.684c-29.279 4.5644-39.272 48.517-5.7595 77.979l-39.233.01405 5.481 7.7979c11.706-4.0205 23.639-4.6745 35.675-4.8139 0 40.171-.64231 54.205-9.0839 69.444 4.7369 3.9308 8.8632 7.7223 12.897 14.487 4.0322-6.7642 8.0296-10.557 12.767-14.487-8.4406-15.237-8.9629-29.27-8.9629-69.445 12.037.14035 23.213-.34211 35.264 4.8149l5.9121-7.8104-39.254-.0016c33.512-29.462 23.577-73.415-5.7022-77.979zm-.0265 7.3297c29.84 12.047 24.866 54.38 0 70.649-24.867-16.271-29.84-58.606 0-70.649z"/>
    </g>
  </g>
</svg>
