<?xml version="1.0" encoding="UTF-8"?>
<svg version="1.1" viewBox="0 0 200 200" width="512px" height="512px" xml:space="preserve" xmlns="http://www.w3.org/2000/svg">
  <defs>
    <radialGradient id="r" cx="104.71" cy="163.84" r="1.673" gradientTransform="matrix(.97956 .20114 -.39154 1.9068 66.257 -169.14)" gradientUnits="userSpaceOnUse">
      <stop stop-color="#b4b4b4" offset="0"/>
      <stop stop-color="#333" stop-opacity=".957" offset=".917"/>
    </radialGradient>
    <radialGradient id="p" cx="111.7" cy="142.45" r="3.704" gradientTransform="matrix(-.36471 1.8517 -1.6668 -.3283 384.27 -11.509)" gradientUnits="userSpaceOnUse">
      <stop stop-color="#767676" offset=".094"/>
      <stop stop-color="#d8d8d8" offset=".746"/>
      <stop stop-color="#6a6a6a" offset=".84"/>
      <stop stop-color="#969696" stop-opacity=".992" offset=".951"/>
    </radialGradient>
    <radialGradient id="o" cx="111.43" cy="149.02" r="1.375" gradientTransform="matrix(1.1912 1.6152 -2.0036 1.4776 277.56 -251.41)" gradientUnits="userSpaceOnUse">
      <stop stop-color="#b7b7b7" stop-opacity=".992" offset=".386"/>
      <stop stop-color="#5a5a5a" offset=".702"/>
    </radialGradient>
    <radialGradient id="u" cx="111.37" cy="148.97" r="1.375" gradientTransform="matrix(-1.1912 1.6152 2.0036 1.4776 -68.215 -251.41)" gradientUnits="userSpaceOnUse">
      <stop stop-color="#fff" stop-opacity=".992" offset=".386"/>
      <stop stop-color="#c3c3c3" offset=".702"/>
    </radialGradient>
    <radialGradient id="l" cx="112.24" cy="141.59" r="3.704" gradientTransform="matrix(-.39121 -1.8463 -2.6784 .56755 520.41 276.67)" gradientUnits="userSpaceOnUse">
      <stop stop-color="#fff" offset="0"/>
      <stop stop-color="#a6a6a6" offset=".156"/>
      <stop stop-color="#6a6a6a" offset=".406"/>
      <stop stop-color="#a6a6a6" offset=".534"/>
    </radialGradient>
    <radialGradient id="h" cx="185.36" cy="56.123" r="14.238" gradientTransform="matrix(1.6566 .74581 -1.7447 3.8753 -23.908 -305.86)" gradientUnits="userSpaceOnUse">
      <stop stop-color="#fff" offset="0"/>
      <stop stop-color="#7f7f7f" offset=".417"/>
      <stop offset="1"/>
    </radialGradient>
    <radialGradient id="i" cx="182.55" cy="56.494" r="14.238" gradientTransform="matrix(.2594 -.26586 .07053 .06881 128.19 93.441)" gradientUnits="userSpaceOnUse">
      <stop stop-color="#fff" offset=".198"/>
      <stop stop-color="#d9d9d9" stop-opacity="0" offset="1"/>
    </radialGradient>
    <radialGradient id="g" cx="161.68" cy="28.904" r="9.928" gradientTransform="matrix(.8067 -.59096 1.0877 1.4848 12.706 78.531)" gradientUnits="userSpaceOnUse">
      <stop stop-color="#838383" offset="0"/>
      <stop stop-color="#fff" offset=".844"/>
      <stop stop-color="#fff" stop-opacity="0" offset="1"/>
    </radialGradient>
    <radialGradient id="k" cx="175.44" cy="27.123" r="6.822" gradientTransform="matrix(1.3203 -.54872 .16813 .40454 -60.861 112.07)" gradientUnits="userSpaceOnUse">
      <stop offset=".454"/>
      <stop stop-opacity="0" offset="1"/>
    </radialGradient>
    <radialGradient id="x" cx="104" cy="40.379" r="15.635" gradientTransform="matrix(.47902 .12746 -.69639 2.6171 82.304 -105.26)" gradientUnits="userSpaceOnUse">
      <stop stop-color="#fff" offset="0"/>
      <stop stop-color="#fff" stop-opacity="0" offset="1"/>
    </radialGradient>
    <radialGradient id="e" cx="173.11" cy="50.61" r="12.412" gradientTransform="matrix(.80597 .46062 -.567 .99211 .444 -38.718)" gradientUnits="userSpaceOnUse">
      <stop stop-color="#8e8e8e" offset="0"/>
      <stop stop-color="#fff" stop-opacity="0" offset="1"/>
    </radialGradient>
    <linearGradient id="y" x1="112.77" x2="96.571" y1="155.91" y2="133.31" gradientTransform="translate(-492.3 -742.48) scale(5.6965)" gradientUnits="userSpaceOnUse">
      <stop stop-color="#d2d2d2" offset="0"/>
      <stop stop-color="#fff" offset=".5"/>
      <stop stop-color="silver" offset=".798"/>
    </linearGradient>
    <linearGradient id="t" x1="102.35" x2="103.44" y1="160.36" y2="148.6" gradientUnits="userSpaceOnUse">
      <stop stop-color="#c9c9c9" offset="0"/>
      <stop stop-color="#fff" offset=".154"/>
      <stop stop-color="#aaa" offset="1"/>
    </linearGradient>
    <linearGradient id="s" x1="101.32" x2="104.67" y1="160.4" y2="164.34" gradientUnits="userSpaceOnUse">
      <stop stop-color="#b4b4b4" offset="0"/>
      <stop stop-color="#f4f4f4" stop-opacity=".992" offset=".288"/>
      <stop stop-color="#b4b4b4" stop-opacity=".992" offset=".541"/>
      <stop stop-color="#cecece" stop-opacity=".996" offset=".707"/>
      <stop stop-color="#e9e9e9" offset="1"/>
    </linearGradient>
    <linearGradient id="q" x1="102.26" x2="102.85" y1="159.42" y2="151.65" gradientTransform="matrix(-1 0 0 1 209.34 0)" gradientUnits="userSpaceOnUse">
      <stop stop-color="#c9c9c9" offset="0"/>
      <stop stop-color="#8d8d8d" stop-opacity=".996" offset=".2"/>
      <stop stop-color="#bbb" offset=".344"/>
      <stop stop-color="#c4c4c4" stop-opacity=".996" offset="1"/>
    </linearGradient>
    <linearGradient id="n" x1="105.16" x2="112.77" y1="146.7" y2="147.36" gradientTransform="translate(-492.3 -742.48) scale(5.6965)" gradientUnits="userSpaceOnUse">
      <stop stop-color="#7a7a7a" offset=".105"/>
      <stop stop-color="#b9b9b9" offset=".184"/>
      <stop stop-color="#b7b7b7" offset=".834"/>
      <stop stop-color="#9e9e9e" offset="1"/>
    </linearGradient>
    <linearGradient id="m" x1="105.16" x2="112.77" y1="146.7" y2="147.36" gradientTransform="matrix(-5.6965 0 0 5.6965 700.2 -742.48)" gradientUnits="userSpaceOnUse">
      <stop stop-color="#7a7a7a" offset=".105"/>
      <stop stop-color="#b9b9b9" offset=".184"/>
      <stop stop-color="#b7b7b7" offset=".834"/>
      <stop stop-color="#fff" offset="1"/>
    </linearGradient>
    <linearGradient id="f" x1="72.735" x2="72.735" y1="13.672" y2="89.743" gradientUnits="userSpaceOnUse">
      <stop stop-color="#fff" stop-opacity=".996" offset=".175"/>
      <stop stop-color="#d5d5d5" stop-opacity=".996" offset=".482"/>
      <stop stop-color="#afafaf" stop-opacity=".996" offset=".517"/>
      <stop stop-color="#fff" stop-opacity=".996" offset=".577"/>
      <stop stop-color="#fff" stop-opacity=".996" offset=".754"/>
      <stop stop-color="#7b7b7b" offset="1"/>
    </linearGradient>
    <linearGradient id="d" x1="142.88" x2="167.7" y1="6.085" y2="42.341" gradientTransform="translate(-38.928 18.353)" gradientUnits="userSpaceOnUse">
      <stop stop-color="#adadad" offset="0"/>
      <stop stop-color="#909090" offset=".1"/>
      <stop stop-color="#fff" offset=".264"/>
      <stop stop-color="#8f8f8f" offset=".391"/>
      <stop stop-color="#fff" offset=".484"/>
      <stop stop-color="#909090" offset=".729"/>
      <stop stop-color="#fff" offset="1"/>
    </linearGradient>
    <filter id="a" x="-.17937" y="-.12845" width="1.3571" height="1.1968" color-interpolation-filters="sRGB">
      <feGaussianBlur stdDeviation="1.317"/>
    </filter>
    <filter id="b" x="-.32548" y="-.22008" width="1.5471" height="1.4193" color-interpolation-filters="sRGB">
      <feGaussianBlur stdDeviation="3.034"/>
    </filter>
    <filter id="j" x="-.014538" y="-.006402" width="1.0291" height="1.0128" color-interpolation-filters="sRGB">
      <feGaussianBlur stdDeviation=".175"/>
    </filter>
    <filter id="c" x="-.098036" y="-.060726" width="1.1961" height="1.1215" color-interpolation-filters="sRGB">
      <feGaussianBlur stdDeviation="4.439"/>
    </filter>
    <filter id="z" x="-.37628" y="-.0569" width="1.7526" height="1.1138" color-interpolation-filters="sRGB">
      <feGaussianBlur stdDeviation="2.62"/>
    </filter>
    <mask id="v" maskUnits="userSpaceOnUse">
      <path d="M31.614 72.396c-12.141.637-13.048 3.3-16.585 5.488L26.22 89.41l7.773 2.233 4.58-13.277zm-4.375-44.601c-2.077-.83-5.13-5.584-10.649-9l7.246.193 2.385 2.427 1.786-4.494 3.762-.04 3.206-7.23 1.727 13.614-6.873-3.793zm-.652 8.583c-2.752-1.971-11.557-8.583-16.532-9.19l-.077 1.72c1.975 5.032 11.682 1.642 16.608 7.47zm-3.298 15.695c-5.482.039-12.391-1.46-15.64-3.423l.615 6.178c6.126.267 10.503-.754 15.025-2.755z" fill="none" filter="url(#a)" stroke="#fefefe" stroke-linecap="square" stroke-width="4" paint-order="markers fill stroke"/>
    </mask>
    <mask id="w" maskUnits="userSpaceOnUse">
      <path d="M65.85 9.404C62.706 6.596 59.21 4.199 57.25 0L46.825 8.016c4.567-2.542 16.534 2.996 21.099 4.537 1.924.65-3.995-4.014-2.074-3.149zM53.693 38.606l-24.912 8.59-2.516-.903c7.303-2.182 19.162-5.119 27.428-7.687z" fill="#fff" fill-opacity=".996" filter="url(#b)" stroke="#fcfcfc" stroke-linecap="square" stroke-width="4" style="mix-blend-mode:normal" paint-order="markers fill stroke"/>
    </mask>
  </defs>
  <rect x="27.982" y="28.308" width="144.04" height="144.04" ry="14.497" fill="#00c" paint-order="markers fill stroke"/>
  <path d="M42.48 29.636a14.466 14.466 0 0 0-14.497 14.497v88.54h82.616v15.445h61.338V86.475h-15.14v-15.4h-15.399v-41.44H42.484z" fill="#b2b2b2" paint-order="markers fill stroke"/>
  <path d="M42.22 27.199a14.466 14.466 0 0 0-14.498 14.497v75.067H64.14v-15.4h15.4v15.4h46.199v15.399h30.799v-30.799h-45.924l-.275-15.399v-15.4h15.4V27.198z" fill="#363" paint-order="markers fill stroke"/>
  <g stroke-width=".837" paint-order="markers fill stroke">
    <path d="m162.93 110.73h3.083v3.084h-3.083zm0 3.11h3.083v3.084h-3.083zm3.09-3.11h3.083v3.084h-3.083zm-6.18 3.03h3.083v3.084h-3.083zm3.1-21.079v-3.083h3.083v3.083zm3.11 0v-3.083h3.083v3.083zm-.07 3.083v-3.083h3.083v3.083zm-6.12 6.536v-3.083h3.083v3.083z" fill="#999"/>
    <g fill="#868686">
      <path d="m156.76 110.73h3.083v3.084h-3.083zm0-3.09h3.083v3.084h-3.083zm3.1-2.67h3.083v3.084h-3.083zm3.08-12.365h3.083v3.084h-3.083zm-15.31-2.998h3.083v3.084h-3.083zm-6.29 0h3.083v3.084h-3.083z"/>
      <path transform="translate(-.04 .057)" d="m159.88 110.67h3.083v3.083h-3.083zm6.21 3.11h3.083v3.083h-3.083z" style="-inkscape-stroke:none;font-variation-settings:normal"/>
    </g>
    <path d="m101.37 120.46h3.083v3.084h-3.083zm0 3.09h3.083v3.084h-3.083zm3.09-3.09h3.083v3.084h-3.083z" fill="#999"/>
    <path transform="translate(-.04 .057)" d="m79.832 123.42h3.083v3.083h-3.083z" fill="#868686" style="-inkscape-stroke:none;font-variation-settings:normal"/>
    <path d="m79.792 120.36h3.083v3.084h-3.083zm0 9.33h3.083v3.084h-3.083zm49.368-49.417h3.083v3.083h-3.083z" fill="#999"/>
    <g fill="#cbcbcb">
      <path d="M113.71 77.321h3.083v3.084h-3.083zm9.25 18.395h3.083V98.8h-3.083zm9.26 3.084h3.083v3.083h-3.083z"/>
      <path d="m126.04 92.633h3.083v3.084h-3.083zm0-3.083h3.083v3.083h-3.083zm9.22-9.19h3.083v3.083h-3.083z"/>
    </g>
    <g fill="#868686">
      <path d="M113.71 80.39h3.083v3.083h-3.083zm36.89-.026h3.083v3.084H150.6zm-9.21 0h3.083v3.084h-3.083z"/>
      <path transform="translate(-.04 .057)" d="m116.83 80.332h3.083v3.083h-3.083z" style="-inkscape-stroke:none;font-variation-settings:normal"/>
    </g>
    <g fill="#999">
      <path d="m116.79 77.276h3.083v3.084h-3.083zm15.42-.046h3.083v3.084h-3.083zm-18.5 15.418h3.083v3.084h-3.083zm6.16 0h3.083v3.084h-3.083z"/>
      <path d="m116.79 92.648h3.083v3.084h-3.083zm12.34-15.418h3.083v3.084h-3.083z"/>
      <path transform="translate(-.04 .057)" d="M135.3 80.287h3.083v3.083H135.3zm9.25.02h3.083v3.083h-3.083zm3.12-3.072h3.083v3.083h-3.083zm0-3.1h3.083v3.083h-3.083z" style="-inkscape-stroke:none;font-variation-settings:normal"/>
      <path transform="translate(-.04 .057)" d="m144.59 71.067h3.083v3.083h-3.083zm-6.17 3.068h3.083v3.083h-3.083z" style="-inkscape-stroke:none;font-variation-settings:normal"/>
    </g>
    <path d="m135.26 77.23h3.083v3.084h-3.083z" fill="#868686"/>
    <path transform="translate(-.04 .057)" d="m132.25 61.891h3.083v3.083h-3.083zm-6.17-3.113h3.083v3.083h-3.083zm0 6.137h3.083v3.083h-3.083z" fill="#999" style="-inkscape-stroke:none;font-variation-settings:normal"/>
    <path d="m132.21 58.835h3.083v3.084h-3.083zm-6.17 3.113h3.083v3.084h-3.083zm18.51 15.312h3.083v3.084h-3.083zm-9.26-40.024h3.083v3.084h-3.083z" fill="#868686"/>
    <g fill="#999">
      <path transform="translate(-.04 .057)" d="m147.57 95.623v3.083h3.083v-3.083zm-3.13 3.004v3.083h3.083v-3.083z" style="-inkscape-stroke:none;font-variation-settings:normal"/>
      <path transform="translate(-.04 .057)" d="m141.4 98.742v3.083h3.083v-3.083z" style="-inkscape-stroke:none;font-variation-settings:normal"/>
    </g>
    <path d="M144.43 95.716V98.8h3.083v-3.084z" fill="#868686"/>
    <path transform="translate(-.04 .057)" d="m119.91 77.219h3.083v3.083h-3.083zm-3.08 21.599h3.083v3.083h-3.083zm3.08-24.683h3.083v3.083h-3.083zm3.12 6.167h3.083v3.083h-3.083z" fill="#999" style="-inkscape-stroke:none;font-variation-settings:normal"/>
    <path d="m113.71 74.237h3.083v3.084h-3.083z" fill="#868686"/>
    <path d="M132.21 80.417h3.083v3.084h-3.083zm9.37-3.141h3.083v3.084h-3.083zm12.09.016h3.083v3.084h-3.083zm-2.96-6.182h3.083v3.083h-3.083zm-21.58-2.994h3.083V71.2h-3.083z" fill="#cbcbcb"/>
    <path d="M129.13 74.192h3.083v3.084h-3.083zm3.08-6.076h3.083V71.2h-3.083z" fill="#868686"/>
    <path d="M129.1 92.633h3.083v3.084H129.1z" fill="#999"/>
    <path d="M129.1 89.594h3.083v3.084H129.1z" fill="#868686"/>
    <path d="M135.3 95.716V98.8h-3.084v-3.084z" fill="#999"/>
    <g fill="#868686">
      <path d="M132.19 95.716V98.8h-3.084v-3.084zm6.15 0V98.8h-3.084v-3.084zm-24.63.015h3.083v3.084h-3.083zm0-6.151h3.083v3.083h-3.083zm6.16 6.151h3.083v3.084h-3.083zm0-6.151h3.083v3.083h-3.083z"/>
      <path transform="translate(-.04 .057)" d="m116.83 74.18h3.083v3.083h-3.083z" style="-inkscape-stroke:none;font-variation-settings:normal"/>
    </g>
    <g fill="#cbcbcb">
      <path d="M122.96 86.495h3.083v3.084h-3.083zm-52.418 37.002h3.083v3.084h-3.083zm12.298 3.11h3.083v3.084H82.84zm9.286-6.22h3.083v3.084h-3.083z"/>
      <path transform="translate(-.04 .057)" d="M138.3 145h3.083v3.083H138.3zm9.25.03h3.083v3.083h-3.083z" style="-inkscape-stroke:none;font-variation-settings:normal"/>
      <path d="m73.075 111.24h3.083v3.084h-3.083zm.55 6.17h3.083v3.084h-3.083zm-6.167 3.01h3.083v3.084h-3.083zm-3.083-3.08h3.083v3.084h-3.083z"/>
      <path d="M70.248 108.157h3.083v3.084h-3.083zm-9.039 15.34h3.083v3.084H61.21zm-24.577 3.01h3.083v3.084h-3.083zm-3.083 0h3.083v3.084H33.55zm0-9.25h3.083v3.084H33.55zm6.167.04h3.083v3.084h-3.083z"/>
      <path d="m36.632 123.47h3.083v3.084h-3.083zm-6.166-6.21h3.083v3.084h-3.083zm0 12.33h3.083v3.084h-3.083zm43.159.1h3.083v3.084h-3.083z"/>
    </g>
    <path d="m70.542 126.57h3.083v3.084h-3.083z" fill="#868686"/>
    <path transform="translate(-.04 .057)" d="m73.665 126.51h3.083v3.083h-3.083z" fill="#868686" style="-inkscape-stroke:none;font-variation-settings:normal"/>
    <g fill="#999">
      <path d="m73.625 123.46h3.083v3.084h-3.083zm-3.083 6.18h3.083v3.084h-3.083zm-6.167-3.07h3.083v3.084h-3.083zm-24.659 3.02h3.083v3.084h-3.083zm-9.25-6.16h3.083v3.084h-3.083z"/>
      <path d="m30.466 120.35h3.083v3.084h-3.083zm36.717-9.11h3.083v3.084h-3.083z"/>
      <path d="m67.183 108.16h3.083v3.084h-3.083zm-2.808 15.34h3.083v3.084h-3.083zm-24.659-3.12h3.083v3.084h-3.083z"/>
    </g>
    <path d="m39.716 123.47h3.083v3.084h-3.083zm33.909-21.48h3.083v3.084h-3.083zm3.083 0h3.083v3.084h-3.083z" fill="#cbcbcb"/>
    <path d="m70.542 120.42h3.083v3.084h-3.083z" fill="#868686"/>
    <path transform="translate(-.04 .057)" d="m73.665 120.36h3.083v3.083h-3.083z" fill="#868686" style="-inkscape-stroke:none;font-variation-settings:normal"/>
    <path d="m58.208 120.42v-3.083h-3.084v3.083zm-3.013 6.17v-3.083h-3.085v3.083zm3.013 3.09v-3.083h-3.084v3.083z" fill="#cbcbcb"/>
    <path d="m49.043 123.5v-3.083h-3.084v3.083z" fill="#868686"/>
    <path transform="translate(-.04 .057)" d="M49.083 120.36v-3.083H46v3.083z" fill="#868686" style="-inkscape-stroke:none;font-variation-settings:normal"/>
    <path d="m52.156 120.42v-3.083h-3.084v3.083zm-6.181 3.08v-3.083h-3.085v3.083z" fill="#999"/>
    <g fill="#868686">
      <path d="m55.195 123.5v-3.083h-3.085v3.083z"/>
      <path transform="translate(-.04 .057)" d="m55.235 120.36v-3.083h-3.083v3.083z" style="-inkscape-stroke:none;font-variation-settings:normal"/>
      <path d="m95.209 126.62h3.083v3.084h-3.082z"/>
      <path transform="translate(-.04 .057)" d="m98.333 126.56h3.083v3.083h-3.083z" style="-inkscape-stroke:none;font-variation-settings:normal"/>
    </g>
    <path d="m98.293 123.5h3.083v3.084h-3.083zm6.207 6.19h3.083v3.084h-3.083zm-9.291 0h3.083v3.084h-3.082z" fill="#999"/>
    <path d="m95.209 120.46h3.083v3.084h-3.082z" fill="#868686"/>
    <path transform="translate(-.04 .057)" d="m98.333 120.4h3.083v3.083h-3.083z" fill="#868686" style="-inkscape-stroke:none;font-variation-settings:normal"/>
    <path d="m49.043 132.68h-3.084v-3.083h3.084zm0-3.11h-3.084v-3.083h3.084z" fill="#999"/>
    <path d="m58.294 132.76h-3.084v-3.083h3.084z" fill="#cbcbcb"/>
    <path d="m52.126 129.64h-3.084v-3.083h3.084z" fill="#999"/>
    <path d="m55.21 132.68h-3.084v-3.083h3.084z" fill="#868686"/>
    <path transform="translate(-.04 .057)" d="m52.166 132.62h-3.083v-3.083h3.083z" fill="#868686" style="-inkscape-stroke:none;font-variation-settings:normal"/>
    <g fill="#999">
      <path d="M150.6 135.827h3.083v3.084H150.6zm0 3.11h3.083v3.084H150.6z"/>
      <path transform="translate(-.04 .057)" d="m159.88 145.03h3.083v3.083h-3.083z" style="-inkscape-stroke:none;font-variation-settings:normal"/>
      <path d="M162.93 142.007h3.083v3.084h-3.083zm-30.83-3.15h3.083v3.084H132.1zm-3.09-3.05h3.083v3.084h-3.083zm3.09 6.17h3.083v3.084H132.1z"/>
    </g>
    <g fill="#868686">
      <path d="m144.43 141.98h3.083v3.084h-3.083z"/>
      <path transform="translate(-.04 .057)" d="m141.38 145h3.083v3.083h-3.083zm-6.16 0h3.083v3.083h-3.083zm12.33-3.08h3.083v3.083h-3.083z" style="-inkscape-stroke:none;font-variation-settings:normal"/>
    </g>
    <path d="m147.51 138.86h3.083v3.084h-3.083z" fill="#999"/>
    <g fill="#868686">
      <path d="m159.84 141.98h3.083v3.084h-3.083z"/>
      <path transform="translate(-.04 .057)" d="M166.06 145.03h3.083v3.083h-3.083zm-9.26-.03h3.083v3.083H156.8z" style="-inkscape-stroke:none;font-variation-settings:normal"/>
    </g>
    <g fill="#999">
      <path d="m162.93 138.86h3.083v3.084h-3.083zm-3.09-3.08h3.083v3.084h-3.083z"/>
      <path transform="translate(-.04 .057)" d="m144.47 144.99h3.083v3.083h-3.083z" style="-inkscape-stroke:none;font-variation-settings:normal"/>
    </g>
    <path d="m129.01 141.99h3.083v3.084h-3.083z" fill="#868686"/>
    <path transform="translate(-.04 .057)" d="m129.05 145h3.083v3.083h-3.083z" fill="#999" style="-inkscape-stroke:none;font-variation-settings:normal"/>
    <g fill="#868686">
      <path d="m144.43 135.83h3.083v3.084h-3.083z"/>
      <path transform="translate(-.04 .057)" d="m147.55 135.77h3.083v3.083h-3.083zm-43.01-12.25h3.083v3.083h-3.083z" style="-inkscape-stroke:none;font-variation-settings:normal"/>
      <path d="m67.183 105.08v3.084h-3.084v-3.084z"/>
      <path transform="translate(-.04 .057)" d="M67.223 108.1v3.083H64.14V108.1zm8.976 0v3.083h-3.083V108.1z" style="-inkscape-stroke:none;font-variation-settings:normal"/>
    </g>
    <path d="m110.83 120.42h-3.084v3.084h3.084z" fill="#cbcbcb"/>
    <path d="m113.66 117.34h-3.084v3.084h3.084z" fill="#cbcbcb"/>
    <path d="m116.72 117.34h-3.084v3.084h3.084z" fill="#999"/>
    <g fill="#868686">
      <path transform="translate(-.04 .057)" d="m107.79 117.28v3.083h3.083v-3.083zm-40.31-3.09v3.083h-3.083v-3.083z" style="-inkscape-stroke:none;font-variation-settings:normal"/>
      <path d="m67.458 129.66h3.083v3.084h-3.083z"/>
    </g>
    <path d="m61.246 123.5v-3.083h-3.084v3.083z" fill="#cbcbcb"/>
    <path d="m61.29 126.59v-3.083h-3.083v3.083z" fill="#999"/>
    <path d="m61.276 129.67v-3.083h-3.084v3.083zm-21.56-3.16h3.083v3.084h-3.083zm-3.084 3.08h3.083v3.084h-3.083z" fill="#868686"/>
    <g fill="#cbcbcb">
      <path d="m135.22 52.715v-3.083h3.083v3.083zm0 3.083v-3.083h3.083v3.083zm-9.26 0v-3.083h3.083v3.083zm.05-6.167v-3.083h3.083v3.083z"/>
      <path d="M132.17 52.715v-3.083h3.083v3.083zm-6.21 6.167V55.8h3.083v3.083zm12.35 0V55.8h3.083v3.083z"/>
    </g>
    <g fill="#999">
      <path d="M138.31 49.631v-3.083h3.083v3.083zm-6.18 9.251V55.8h3.083v3.083z"/>
      <path d="M129.05 58.882V55.8h3.083v3.083zm.04-9.251v-3.083h3.083v3.083z"/>
    </g>
    <path d="m132.17 49.631v-3.083h3.083v3.083zm-3.04-18.491h-3.084v3.084h3.084zm6.16 3.013h-3.084v3.084h3.084zm3.09-3.013h-3.084v3.084h3.084z" fill="#cbcbcb"/>
    <path d="m132.21 40.304h-3.084v3.084h3.084z" fill="#868686"/>
    <path transform="translate(-.04 .057)" d="m129.17 40.247h-3.083v3.083h3.083z" fill="#868686" style="-inkscape-stroke:none;font-variation-settings:normal"/>
    <path d="m129.13 37.191h-3.084v3.084h3.084zm3.08 6.181h-3.084v3.084h3.084z" fill="#999"/>
    <path d="m132.21 34.153h-3.084v3.084h3.084z" fill="#868686"/>
    <path transform="translate(-.04 .057)" d="m129.17 34.096h-3.083v3.083h3.083z" fill="#868686" style="-inkscape-stroke:none;font-variation-settings:normal"/>
    <path d="m141.38 40.304v3.084h-3.084v-3.084zm-3.11 0v3.084h-3.084v-3.084z" fill="#999"/>
    <path d="m141.46 31.053v3.084h-3.084v-3.084z" fill="#cbcbcb"/>
    <path d="m141.38 34.137v3.084h-3.084v-3.084z" fill="#868686"/>
    <path transform="translate(-.04 .057)" d="m141.42 37.164v3.083h-3.083v-3.083z" fill="#868686" style="-inkscape-stroke:none;font-variation-settings:normal"/>
    <path d="m132.21 28.102h-3.084v3.084h3.084z" fill="#cbcbcb"/>
    <path d="m135.29 28.056h-3.084v3.084h3.084z" fill="#999"/>
    <path d="m138.38 28.071h-3.084v3.084h3.084zm-3.16 21.56v-3.083h3.083v3.083zm3.09 3.084v-3.083h3.083v3.083z" fill="#868686"/>
    <path d="m76.708 129.69h3.083v3.084h-3.083zm80.052 12.29h3.083v3.084h-3.083z" fill="#cbcbcb"/>
    <path d="m159.84 129.69h3.083v3.084h-3.083zm3.09-3.08h3.083v3.084h-3.083z" fill="#999"/>
    <path d="m159.84 126.57h3.083v3.084h-3.083zm6.18 3.12h3.083v3.084h-3.083zm-9.26-.03h3.083v3.084h-3.083z" fill="#868686"/>
    <path d="m162.93 123.46h3.083v3.084h-3.083zm-3.09-3.09h3.083v3.084h-3.083z" fill="#999"/>
    <path d="m156.76 126.57h3.083v3.084h-3.083zm9.26 6.07h3.083v3.084h-3.083zm-12.34 9.35h3.083v3.084h-3.083zm-30.84.04v-3.083h3.083v3.083z" fill="#cbcbcb"/>
    <g fill="#999">
      <path d="m113.58 138.96v-3.083h3.083v3.083zm3.11 0v-3.083h3.083v3.083zm6.15-9.26v-3.083h3.083v3.083z"/>
      <path d="m119.76 126.62v-3.083h3.083v3.083z"/>
    </g>
    <path d="m119.73 145.12v-3.083h3.083v3.083z" fill="#868686"/>
    <path transform="translate(-.04 .057)" d="m119.77 141.97v-3.083h3.083v3.083z" fill="#868686" style="-inkscape-stroke:none;font-variation-settings:normal"/>
    <path d="m116.62 142.03v-3.083h3.083v3.083z" fill="#999"/>
    <path d="m119.73 129.7v-3.083h3.083v3.083zm3.11-6.16v-3.083h3.083v3.083zm-.02 9.25v-3.083h3.083v3.083z" fill="#868686"/>
    <path d="m116.68 126.61v-3.083h3.083v3.083zm-3.15 3.09v-3.083h3.083v3.083zm9.27 15.42v-3.083h3.083v3.083z" fill="#999"/>
    <path d="m113.58 145.12v-3.083h3.083v3.083z" fill="#868686"/>
    <path transform="translate(-.04 .057)" d="m113.62 141.97v-3.083h3.083v3.083z" fill="#868686" style="-inkscape-stroke:none;font-variation-settings:normal"/>
    <g fill="#cbcbcb">
      <path d="m119.73 132.79v-3.083h3.083v3.083zm-18.36-12.34v-3.083h3.083v3.083z"/>
      <path d="m119.75 135.87v-3.083h3.083v3.083zm40.09-18.53h3.083v3.084h-3.083z"/>
      <path d="m156.76 117.35h3.083v3.084h-3.083zm6.18-15.43h3.083v3.084h-3.083zm5.87-15.406h3.083v3.084h-3.083zm-2.78 15.406h3.083v3.084h-3.083z"/>
      <path d="m159.86 101.93h3.083v3.084h-3.083z"/>
    </g>
    <path d="m85.924 126.62h3.083v3.084h-3.083z" fill="#868686"/>
    <path d="m89.007 123.5h3.083v3.084h-3.083zm0 3.12h3.083v3.084h-3.083zm-3.048-6.23h3.083v3.084h-3.082zm-.035 9.3h3.083v3.084h-3.083z" fill="#999"/>
    <path d="m82.84 129.7h3.083v3.084h-3.083zm70.95-40.067v-3.083h-3.084v3.083z" fill="#868686"/>
    <path transform="translate(-.04 .057)" d="m153.83 95.66v-3.083h-3.083v3.083zm3.07-3.119v-3.083h-3.083v3.083z" fill="#999" style="-inkscape-stroke:none;font-variation-settings:normal"/>
    <path d="m156.9 95.681v-3.083h-3.084v3.083z" fill="#868686"/>
  </g>
  <g stroke-width=".837" paint-order="markers fill stroke">
    <path d="m123 68.005h3.084v3.083h-3.084z" fill="#663"/>
    <path transform="translate(-.004 .007)" d="M98.416 71.067h3.083v3.083h-3.083zm0 6.042h3.083v3.083h-3.083zm2.994 3.223h3.083v3.083h-3.083zM82.916 74.18h3.083v3.083h-3.083zm0 6.167h3.083v3.083h-3.083z" fill="#222" style="-inkscape-stroke:none;font-variation-settings:normal"/>
    <path d="m89.078 80.339h3.084v3.083h-3.084z" fill="#663"/>
    <path transform="translate(-.004 .007)" d="M89.082 89.598h3.083v3.083h-3.083zm9.334-.107h3.083v3.083h-3.083zm-3.167 3.19h3.083v3.083H95.25zm-12.333-3.083h3.083v3.083h-3.083z" fill="#222" style="-inkscape-stroke:none;font-variation-settings:normal"/>
    <path d="m135.3 111.14h3.084v3.083h-3.084z" fill="#663"/>
    <g fill="#222">
      <path transform="translate(-.004 .007)" d="m138.38 111.13h3.083v3.083h-3.083z" style="-inkscape-stroke:none;font-variation-settings:normal"/>
      <path d="m95.245 101.88h3.084v3.083h-3.084z"/>
      <path transform="translate(-.004 .007)" d="m98.333 101.87h3.083v3.083h-3.083z" style="-inkscape-stroke:none;font-variation-settings:normal"/>
    </g>
    <path d="m39.752 108.03h3.084v3.083h-3.084z" fill="#663"/>
    <path transform="translate(-.004 .007)" d="m39.756 114.19h3.083v3.083h-3.083zm30.826-27.675h3.083v3.083h-3.083zm3.083 3.083h3.083v3.083h-3.083zm0 6.166h3.083v3.083h-3.083zm3.083-9.249h3.083v3.083h-3.083z" fill="#222" style="-inkscape-stroke:none;font-variation-settings:normal"/>
    <path d="M73.661 86.522h3.084v3.083H73.66zm3.083-12.335h3.084v3.083h-3.084zm-37.001 6.167h3.084v3.083h-3.084zm-6.167 6.168h3.084v3.083h-3.084zm40.085-6.168h3.084v3.083H73.66z" fill="#663"/>
    <g fill="#222">
      <path transform="translate(-.004 .007)" d="m70.582 98.848h3.083v3.083h-3.083zm0-6.167h3.083v3.083h-3.083zm70.798 24.599h3.083v3.083h-3.083zm3.09 3.08h3.083v3.083h-3.083zm-12.33.02h3.083v3.083h-3.083z" style="-inkscape-stroke:none;font-variation-settings:normal"/>
      <path transform="translate(-.004 .007)" d="M135.22 123.46h3.083v3.083h-3.083zm-9-6.18h3.083v3.083h-3.083zm-.09-6.15h3.083v3.083h-3.083zm18.34 15.4h3.083v3.083h-3.083zm3.08-9.25h3.083v3.083h-3.083zm-6.17 6.16h3.083v3.083h-3.083zM64.415 98.848h3.083v3.083h-3.083zm0-6.167h3.083v3.083h-3.083z" style="-inkscape-stroke:none;font-variation-settings:normal"/>
    </g>
    <path d="m67.494 95.77h3.084v3.084h-3.084z" fill="#663"/>
    <path transform="translate(-.004 .007)" d="m30.497 74.18h3.083v-3.083h-3.083z" fill="#222" style="-inkscape-stroke:none;font-variation-settings:normal"/>
    <path d="m33.576 74.187h3.084v-3.084h-3.084z" fill="#663"/>
    <path transform="translate(-.004 .007)" d="m36.664 74.18h3.083v-3.083h-3.083zm-6.158 36.93h3.083v3.083h-3.083z" fill="#222" style="-inkscape-stroke:none;font-variation-settings:normal"/>
    <path d="m33.585 111.12h3.084v3.083h-3.084z" fill="#663"/>
    <path transform="translate(-.004 .007)" d="m36.672 111.11h3.083v3.083h-3.083zm36.993-33.846h3.083v3.083h-3.083zm0-6.167h3.083v3.083h-3.083zm-6.167 6.167h3.083v3.083h-3.083zm9.25 3.083h3.083v3.083h-3.083zm-6.166 0h3.083v3.083h-3.083zm-3.084-9.25h3.083v3.083h-3.083z" fill="#222" style="-inkscape-stroke:none;font-variation-settings:normal"/>
    <path d="m150.64 104.97h3.084v3.083h-3.084zm-12.34 21.55h3.084v3.083h-3.084zm-9.25 0h3.084v3.083h-3.084zm18.5-15.38h3.084v3.083h-3.084zm3.09 6.16h3.084v3.083h-3.084zm-9.26 3.07h3.084v3.083h-3.084z" fill="#663"/>
    <path transform="translate(-.004 .007)" d="M85.999 71.067h3.083v3.083H86zm6.167 0h3.083v3.083h-3.083zm0 6.042h3.083v3.083h-3.083z" fill="#222" style="-inkscape-stroke:none;font-variation-settings:normal"/>
    <path d="m82.912 71.074h3.084v3.083h-3.084zm64.634 52.363h3.084v3.083h-3.084zm-15.34-21.56h3.084v3.083h-3.084zm6.17 3.07h3.084v3.083h-3.084z" fill="#663"/>
    <path transform="translate(-.004 .007)" d="m147.55 108.05h3.083v3.083h-3.083z" fill="#222" style="-inkscape-stroke:none;font-variation-settings:normal"/>
    <path d="m104.5 108.04h3.084v3.083h-3.084zm-2.88 3.1h3.084v3.083h-3.084z" fill="#663"/>
    <path transform="translate(-.004 .007)" d="M104.5 104.95h3.083v3.083H104.5zm43.05-3.08h3.083v3.083h-3.083zm-6.17 6.18h3.083v3.083h-3.083zm9.26 3.08h3.083v3.083h-3.083z" fill="#222" style="-inkscape-stroke:none;font-variation-settings:normal"/>
    <path d="m79.792 108.04h3.084v3.083h-3.084z" fill="#663"/>
    <path transform="translate(-.004 .007)" d="M79.796 104.95h3.083v3.083h-3.083zm3.084 3.08h3.083v3.083H82.88zm3.119-6.16h3.083v3.083H86zm64.641 24.64h3.083v3.083h-3.083zm-6.17-15.38h3.083v3.083h-3.083zM79.628 98.848h3.083v3.083h-3.083zm61.752 3.022h3.083v3.083h-3.083zm-30.51 6.16h3.083v3.083h-3.083zm0-6.17h3.083v3.083h-3.083z" fill="#222" style="-inkscape-stroke:none;font-variation-settings:normal"/>
    <path d="M64.411 80.354h3.084v3.083H64.41z" fill="#663"/>
    <path transform="translate(-.004 .007)" d="m39.747 89.598h3.083v3.083h-3.083zm-3.083 3.083h3.083v3.083h-3.083z" fill="#222" style="-inkscape-stroke:none;font-variation-settings:normal"/>
    <path d="m30.493 92.688h3.084v3.083h-3.084z" fill="#663"/>
    <path transform="translate(-.004 .007)" d="m30.497 98.848h3.083v3.083h-3.083z" fill="#222" style="-inkscape-stroke:none;font-variation-settings:normal"/>
    <path d="m33.576 98.855h3.084v3.083h-3.084z" fill="#663"/>
    <path transform="translate(-.004 .007)" d="m36.664 98.848h3.083v3.083h-3.083z" fill="#222" style="-inkscape-stroke:none;font-variation-settings:normal"/>
    <path d="m153.72 120.39h3.084v3.083h-3.084zm-64.415-9.25h3.084v3.083h-3.085z" fill="#663"/>
    <path transform="translate(-.004 .007)" d="M58.248 101.93h3.083v3.083h-3.083zM42.83 74.18h3.083v3.083H42.83zm3.084 3.084h3.083v3.083h-3.083zm3.084 3.083h3.083v3.083h-3.083zm0-6.167h3.083v3.083h-3.083zm3.083 3.084h3.083v3.083h-3.083zm-3.083 15.417h3.083v3.083h-3.083zm0-6.166h3.083v3.083h-3.083zm-6.168 6.166h3.083v3.083H42.83zm0-6.166h3.083v3.083H42.83zm9.251 3.083h3.083v3.083h-3.083z" fill="#222" style="-inkscape-stroke:none;font-variation-settings:normal"/>
    <path d="m48.994 77.27h3.084v3.084h-3.084z" fill="#663"/>
    <path transform="translate(-.004 .007)" d="m58.248 95.764h3.083v3.083h-3.083zm0-6.166h3.083v3.083h-3.083z" fill="#222" style="-inkscape-stroke:none;font-variation-settings:normal"/>
    <path d="M58.244 92.688h3.084v3.083h-3.084zm-3.084 18.429h3.084v3.083H55.16z" fill="#663"/>
    <path transform="translate(-.004 .007)" d="m58.248 77.264h3.083v3.083h-3.083zm-3.084 3.083h3.083v3.083h-3.083z" fill="#222" style="-inkscape-stroke:none;font-variation-settings:normal"/>
    <path d="M58.244 80.354h3.084v3.083h-3.084zm-9.25 3.083h3.084v3.083h-3.084zm6.166 3.085h3.084v3.083H55.16zm-3.083 9.248h3.084v3.084h-3.084zm-6.167-6.165h3.084v3.083H45.91z" fill="#663"/>
    <path transform="translate(-.004 .007)" d="m52.081 108.1h3.083v3.083h-3.083zm0-6.17h3.083v3.083h-3.083zm-6.167 6.17h3.083v3.083h-3.083zm3.084-3.08h3.083v3.083h-3.083zm-3.084-3.09h3.083v3.083h-3.083z" fill="#222" style="-inkscape-stroke:none;font-variation-settings:normal"/>
    <path d="m48.994 101.94h3.084v3.083h-3.084zm0 6.17h3.084v3.083h-3.084zm12.262-3.08h3.084v3.083h-3.084zm-21.513-3.09h3.084v3.083h-3.084z" fill="#663"/>
    <path transform="translate(-.004 .007)" d="M116.83 43.346h3.083v3.083h-3.083zm-6.16 6.166h3.083v3.083h-3.083zM82.916 55.68h3.083v3.083h-3.083zm3.083 3.083h3.083v3.083H86zm3 3.223h3.083v3.083H89zm-58.502-27.89h3.083v3.083h-3.083zm6.167 0h3.083v3.083h-3.083zm6.166-6.168h3.083v3.083H42.83zm3.084 3.083h3.083v3.083h-3.083zm6.167 0h3.083v3.083h-3.083zm3.083 3.085h3.083v3.083h-3.083zm12.334-6.168h3.083v3.083h-3.083zm3.084 3.083h3.083v3.083h-3.083zm3.083 3.085h3.083v3.083h-3.083zm0-6.168h3.083v3.083h-3.083zm3.083 3.083h3.083v3.083h-3.083zm-3.083 15.418h3.083v3.083h-3.083zm0-6.167h3.083v3.083h-3.083zm-6.167 6.167h3.083v3.083h-3.083zm6.167 18.501h3.083v3.083h-3.083zm-6.167 0h3.083v3.083h-3.083zm0-24.668h3.083v3.083h-3.083zm9.25 3.084h3.083v3.083h-3.083zm-18.5-12.335h3.083v3.083h-3.083zm3.083 3.085h3.083v3.083h-3.083z" fill="#222" style="-inkscape-stroke:none;font-variation-settings:normal"/>
    <path d="M33.576 34.103h3.084v3.083h-3.084zm6.167-3.085h3.084V34.1h-3.084zm-9.25 9.251h3.084v3.083h-3.084zm3.083 6.167h3.084v3.083h-3.084zm24.668-12.333h3.084v3.083h-3.084zm15.417-3.085h3.084V34.1H73.66z" fill="#663"/>
    <path transform="translate(-.004 .007)" d="M82.916 49.512h3.083v3.083h-3.083zm0-6.166h3.083v3.083h-3.083zm3.083 3.083h3.083v3.083H86z" fill="#222" style="-inkscape-stroke:none;font-variation-settings:normal"/>
    <path d="m82.912 46.436h3.084v3.083h-3.084z" fill="#663"/>
    <path transform="translate(-.004 .007)" d="m98.333 46.429h3.083v3.083h-3.083zm0-6.167h3.083v3.083h-3.083z" fill="#222" style="-inkscape-stroke:none;font-variation-settings:normal"/>
    <path d="m98.329 43.353h3.084v3.083h-3.084z" fill="#663"/>
    <path transform="translate(-.004 .007)" d="M82.916 31.011h3.083v3.083h-3.083zm-3.084 3.085h3.083v3.083h-3.083zm6.167 0h3.083v3.083H86z" fill="#222" style="-inkscape-stroke:none;font-variation-settings:normal"/>
    <path d="M82.912 34.103h3.084v3.083h-3.084zm-33.918-3.085h3.084V34.1h-3.084zm15.417 0h3.084V34.1H64.41z" fill="#663"/>
    <path transform="translate(-.004 .007)" d="m92.166 27.928h3.083v3.083h-3.083z" fill="#222" style="-inkscape-stroke:none;font-variation-settings:normal"/>
    <path d="M89.078 31.018h3.084V34.1h-3.084z" fill="#663"/>
    <path transform="translate(-.004 .007)" d="M95.249 31.011h3.083v3.083H95.25zm3.084 3.085h3.083v3.083h-3.083zm0-6.168h3.083v3.083h-3.083zm3.077 3.083h3.083v3.083h-3.083zm12.34-3.083h3.083v3.083h-3.083zm6.16 0h3.083v3.083h-3.083z" fill="#222" style="-inkscape-stroke:none;font-variation-settings:normal"/>
    <path d="M98.329 31.018h3.084V34.1h-3.084zm12.337 0h3.084V34.1h-3.084z" fill="#663"/>
    <path transform="translate(-.004 .007)" d="M104.5 34.096h3.083v3.083H104.5zm3.08-3.085h3.083v3.083h-3.083z" fill="#222" style="-inkscape-stroke:none;font-variation-settings:normal"/>
    <path d="M73.661 37.186h3.084v3.083H73.66zm6.167 3.083h3.084v3.083h-3.084zm-3.084 9.25h3.084v3.083h-3.084zm-6.166-6.166h3.084v3.083h-3.084zm0 24.667h3.084v3.083h-3.084zm6.166 0h3.084v3.083h-3.084z" fill="#663"/>
    <path transform="translate(-.004 .007)" d="m76.748 61.846h3.083v3.083h-3.083z" fill="#222" style="-inkscape-stroke:none;font-variation-settings:normal"/>
    <path d="m30.493 64.937h3.084v3.083h-3.084z" fill="#663"/>
    <path transform="translate(-.004 .007)" d="m30.497 58.763h3.083v3.083h-3.083z" fill="#222" style="-inkscape-stroke:none;font-variation-settings:normal"/>
    <path d="m39.743 55.687h3.084v3.083h-3.084z" fill="#663"/>
    <path transform="translate(-.004 .007)" d="M48.998 37.179v3.083h3.083V37.18z" fill="#222" style="-inkscape-stroke:none;font-variation-settings:normal"/>
    <path d="m33.576 58.77h3.084v3.083h-3.084z" fill="#663"/>
    <path transform="translate(-.004 .007)" d="M36.664 58.763h3.083v3.083h-3.083zm40.084-3.083h3.083v3.083h-3.083zm-6.166 6.166h3.083v3.083h-3.083zM36.664 64.93h3.083v3.083h-3.083zm3.083-3.084h3.083v3.083h-3.083zm3.083-18.5v3.083h3.083v-3.083zm43.169 21.569h3.083v3.083H86zm6.167.015h3.083v3.083h-3.083zm18.504-6.167h3.083v3.083h-3.083zm3.08 3.083h3.083v3.083h-3.083zm0 6.167h3.083v3.083h-3.083zm3.08-9.25h3.083v3.083h-3.083zm-6.16 6.167h3.083v3.083h-3.083z" fill="#222" style="-inkscape-stroke:none;font-variation-settings:normal"/>
    <path d="m119.91 58.785h3.084v3.083h-3.084zm-9.24 3.068h3.084v3.083h-3.084zm6.16 3.069h3.084v3.083h-3.084z" fill="#663"/>
    <path transform="translate(-.004 .007)" d="m116.83 49.512h3.083v3.083h-3.083zm3.08-3.083h3.083v3.083h-3.083z" fill="#222" style="-inkscape-stroke:none;font-variation-settings:normal"/>
    <path d="m119.91 52.588h3.084v3.083h-3.084z" fill="#663"/>
    <path transform="translate(-.004 .007)" d="m119.91 67.998h3.083v3.083h-3.083zm-46.245-9.235h3.083v3.083h-3.083zm-3.083-3.083h3.083v3.083h-3.083z" fill="#222" style="-inkscape-stroke:none;font-variation-settings:normal"/>
    <path d="M73.661 55.687h3.084v3.083H73.66zm0 6.166h3.084v3.083H73.66zm15.417-6.166h3.084v3.083h-3.084zm-6.166 3.083h3.084v3.083h-3.084zm12.167 3.083h3.084v3.083h-3.084zm12.527 6.167h3.084v3.083h-3.084z" fill="#663"/>
    <path transform="translate(-.004 .007)" d="m92.166 46.429h3.083v3.083h-3.083zm-55.502 0h3.083v3.083h-3.083zm0-6.167h3.083v3.083h-3.083zm-6.167 6.167h3.083v3.083h-3.083zm61.669-6.167h3.083v3.083h-3.083z" fill="#222" style="-inkscape-stroke:none;font-variation-settings:normal"/>
    <path d="M95.245 49.519h3.084v3.083h-3.084zm-30.834 6.168h3.084v3.083H64.41zM45.91 40.269v3.083h3.084V40.27z" fill="#663"/>
    <path transform="translate(-.004 .007)" d="M85.999 40.262h3.083v3.083H86zm-40.085 6.167v3.083h3.083V46.43zm3.084 3.083v3.083h3.083v-3.083zm-6.168 0v3.083h3.083v-3.083zm3.084 3.084v3.083h3.083v-3.083zM42.83 64.93v3.083h3.083V64.93z" fill="#222" style="-inkscape-stroke:none;font-variation-settings:normal"/>
    <path d="M45.91 49.519v3.083h3.084V49.52zm0 12.334v3.083h3.084v-3.083z" fill="#663"/>
    <path transform="translate(-.004 .007)" d="M48.998 55.68v3.083h3.083V55.68zm-3.084 3.083v3.083h3.083v-3.083zm67.836-15.417h-3.083v-3.083h3.083zm-3.08 3.083h-3.083v-3.083h3.083zm-3.09-3.083h-3.083v-3.083h3.083z" fill="#222" style="-inkscape-stroke:none;font-variation-settings:normal"/>
    <path d="m110.67 43.353h-3.083v-3.084h3.083z" fill="#663"/>
    <path transform="translate(-.004 .007)" d="M52.081 58.763v3.083h3.083v-3.083zm6.167 0v3.083h3.083v-3.083zm0-6.167v3.083h3.083v-3.083zm3.083 9.25v3.083h3.083v-3.083zm0 6.167v3.083h3.083v-3.083zm-9.25-3.083v3.083h3.083V64.93z" fill="#222" style="-inkscape-stroke:none;font-variation-settings:normal"/>
    <path d="M52.077 68.02v3.083h3.084V68.02zm3.083-9.25v3.083h3.084V58.77zm3.084 6.167v3.083h3.084v-3.083z" fill="#663"/>
    <path transform="translate(-.004 .007)" d="m52.081 47.97h3.083v-3.083h-3.083zm9.25-3.083h3.083v-3.083h-3.083z" fill="#222" style="-inkscape-stroke:none;font-variation-settings:normal"/>
    <path d="M61.327 47.977h3.084v-3.084h-3.084zm-6.167-3.083h3.084V41.81H55.16z" fill="#663"/>
    <path transform="translate(-.004 .007)" d="M107.58 64.93v3.083h-3.083V64.93zm-6.17-6.167v3.083h-3.083v-3.083zm6.17 0v3.083h-3.083v-3.083zm-6.17-6.167v3.083h-3.083v-3.083zm3.09 3.084v3.083h-3.083V55.68zm3.08-3.084v3.083h-3.083v-3.083z" fill="#222" style="-inkscape-stroke:none;font-variation-settings:normal"/>
    <path d="m107.58 55.687v3.083h-3.083v-3.083zm-6.17 0v3.083h-3.083v-3.083zm3.09 9.25v3.083h-3.083v-3.083zm3.08-18.501v3.083h-3.083v-3.083z" fill="#663"/>
    <path transform="translate(-.004 .007)" d="M119.91 37.179v3.083h-3.083V37.18z" fill="#222" style="-inkscape-stroke:none;font-variation-settings:normal"/>
    <path d="m119.91 34.103v3.083h-3.083v-3.083z" fill="#663"/>
  </g>
  <g stroke-linecap="square" stroke-linejoin="round" paint-order="markers fill stroke">
    <path transform="translate(-.07 .597)" d="M48.232 27.711v11.731H34.505v-9.304c-.593.395-1.146.842-1.673 1.318v7.986h-4.51a14.613 14.613 0 0 0-.214 1.673h4.724V54.84h-4.778v1.674h4.778V70.24h-4.778v1.673h4.778v13.725h-4.778v1.674h4.778v13.725h-4.778v1.673h4.778v13.727h-4.778v1.674h4.778v13.725h-4.778v1.673h4.778v13.725h-4.778v1.674h4.778v13.727h-3.74c.23.577.491 1.136.79 1.673h2.95v3.693c.527.476 1.08.924 1.673 1.319v-5.012h13.727v7.438h1.673v-7.438H63.63v7.438h1.674v-7.438h13.725v7.438h1.673v-7.438H94.43v7.438h1.674v-7.438h13.726v7.438h1.673v-7.438h13.725v7.438h1.673v-7.438h13.727v7.438h1.674v-7.438h13.725v7.438h1.566c.036 0 .07-.005.107-.005v-7.432h12.562c.299-.537.56-1.097.79-1.674H157.7V148.91h13.726v12.702c.43-1.376.665-2.84.665-4.361V42.21c0-1.522-.234-2.986-.665-4.362v1.595H157.7V27.718c-.036 0-.07-.005-.107-.005h-1.566v11.73H142.3v-11.73h-1.674v11.73H126.9v-11.73h-1.673v11.73h-13.725v-11.73h-1.673v11.73H96.103v-11.73H94.43v11.73H80.703v-11.73h-1.674v11.73H65.304v-11.73H63.63v11.73H49.905v-11.73zM34.505 41.115h13.727V54.84H34.505zm15.401 0h13.725V54.84H49.906zm15.399 0H79.03V54.84H65.305zm15.399 0h13.727V54.84H80.704zm15.4 0h13.726V54.84H96.104zm15.399 0h13.725V54.84h-13.725zm15.399 0h13.727V54.84h-13.727zm15.401 0h13.725V54.84h-13.725zm15.399 0h13.726V54.84h-13.726zm-123.2 15.399h13.727v13.727H34.502zm15.401 0h13.725v13.727H49.903zm15.399 0h13.725v13.727H65.302zm15.399 0h13.727v13.727H80.701zm15.4 0h13.726v13.727H96.101zm15.399 0h13.725v13.727H111.5zm15.399 0h13.727v13.727h-13.727zm15.401 0h13.725v13.727H142.3zm15.399 0h13.726v13.727h-13.726zm-123.2 15.401h13.727V85.64H34.499zm15.401 0h13.725V85.64H49.9zm15.399 0h13.725V85.64H65.299zm15.399 0h13.727V85.64H80.698zm15.4 0h13.726V85.64H96.098zm15.399 0h13.725V85.64h-13.725zm15.399 0h13.727V85.64h-13.727zm15.401 0h13.725V85.64h-13.725zm15.399 0h13.726V85.64h-13.726zm-123.2 15.399h13.727v13.725H34.496zm15.401 0h13.725v13.725H49.897zm15.399 0h13.725v13.725H65.296zm15.399 0h13.727v13.725H80.695zm15.4 0h13.726v13.725H96.095zm15.399 0h13.725v13.725h-13.725zm15.399 0h13.727v13.725h-13.727zm15.401 0h13.725v13.725h-13.725zm15.399 0h13.726v13.725h-13.726zm-123.2 15.399H48.22v13.727H34.493zm15.401 0h13.725v13.727H49.894zm15.399 0h13.725v13.727H65.293zm15.399 0h13.727v13.727H80.692zm15.4 0h13.726v13.727H96.092zm15.399 0h13.725v13.727h-13.725zm15.399 0h13.727v13.727H126.89zm15.401 0h13.725v13.727h-13.725zm15.399 0h13.726v13.727H157.69zm-123.2 15.401h13.727v13.725H34.49zm15.401 0h13.725v13.725H49.891zm15.399 0h13.725v13.725H65.29zm15.399 0h13.727v13.725H80.689zm15.4 0h13.726v13.725H96.089zm15.399 0h13.725v13.725h-13.725zm15.399 0h13.727v13.725h-13.727zm15.401 0h13.725v13.725h-13.725zm15.399 0h13.726v13.725h-13.726zm-123.2 15.399h13.727v13.725H34.487zm15.401 0h13.725v13.725H49.888zm15.399 0h13.725v13.725H65.287zm15.399 0h13.727v13.725H80.686zm15.4 0h13.726v13.725H96.086zm15.399 0h13.725v13.725h-13.725zm15.399 0h13.727v13.725h-13.727zm15.401 0h13.725v13.725h-13.725zm15.399 0h13.726v13.725h-13.726zm-123.2 15.399h13.727v13.727H34.484zm15.401 0H63.61v13.727H49.885zm15.399 0h13.725v13.727H65.284zm15.399 0H94.41v13.727H80.683zm15.4 0h13.726v13.727H96.083zm15.399 0h13.725v13.727h-13.725zm15.399 0h13.727v13.727h-13.727zm15.401 0h13.725v13.727h-13.725z" fill="#fff" fill-opacity=".327" style="-inkscape-stroke:none"/>
    <path transform="translate(-.07 .597)" d="m42.551 26.023c-8.937 0-16.186 7.248-16.186 16.186v115.04c0 8.937 7.248 16.186 16.186 16.186h115.04c8.937 0 16.184-7.248 16.184-16.186v-115.04c0-8.937-7.246-16.186-16.184-16.186zm0 3.375h115.04a12.745 12.745 0 0112.809 12.811v115.04a12.745 12.745 0 01-12.809 12.811h-115.04a12.747 12.747 0 01-12.811-12.811v-115.04a12.747 12.747 0 0112.811-12.811z" style="-inkscape-stroke:none"/>
  </g>
  
  
  
  
  <path transform="translate(29.905 -1.129)" d="m88.792 91.629h-39.15c5.545 5.26 11.346 10.405 13.175 17.323 11.023-6.128 21.684-8.437 34.304-6.772.158 40.337-.431 53.28-11.731 65.527 6.762 2.493 16.592 13.61 18.544 21.851 2.71-9.719 12.962-19.983 18.616-21.864-11.493-11.555-10.748-25.475-10.715-65.689 12.474-1.13 21.892-.175 33.264 6.954 1.756-5.525 5.938-11.282 13.213-17.337l-39.114-.042c28.645-31.547 15.182-72.542-15.194-77.46-30.425 3.748-42.592 46.73-15.212 77.51zm15.157-61.978c16.082 6.595 21.845 42.292-.001 61.946-19.201-17.571-19.362-52.305.001-61.946z" filter="url(#c)" style="mix-blend-mode:normal"/><g stroke-linecap="square" stroke-linejoin="round">
    <g stroke-width="1.51">
      <path transform="translate(32.539 -5.097) scale(.97467)" d="m103.95 24.439c31.116 4.758 35.021 48.922 0 72.511l-.001-3.787c24.419-22.73 14.933-57.17.001-63.556z" fill="url(#d)"/>
      <path transform="matrix(.97467 0 0 .97467 32.539 -5.097)" d="m103.95 24.414c31.116 4.758 35.021 48.947 0 72.536l-.001-3.787c24.419-22.73 14.933-57.17.001-63.556z" fill="url(#e)"/>
      <path transform="matrix(.97467 0 0 .97467 32.539 -5.097)" d="m104 13.672c-31.116 4.758-43.814 47.484-15.603 79.524l12.781 5.1718c-6.573-7.23-23.757-27.292-21.149-46.492 1.716-12.63 17.093-27.986 23.971-31.77z" fill="url(#f)"/>
    </g>
    <g stroke-width="1.51">
      <path d="m133.91 8.23c30.328 4.637 42.69 46.23 15.194 77.458l-12.47 5.079c6.406-7.047 23.182-26.588 20.64-45.302-1.672-12.31-16.66-27.277-23.364-30.965v-6.271z" fill="#8e8e8e"/>
      <path transform="translate(-16.562 1.563) scale(.97467)" d="m168.23 12.106c8.313 5.45 13.825 13.373 16.102 23.84l-10.451-1.476c-.747-3.495 5.958-8.881-4.244-6.922-1.503-2.09-2.582-3.356-4.703-5.62-.782-5.129-9.945-18.276 3.297-9.822z" fill="url(#g)" style="mix-blend-mode:normal"/>
      <path transform="translate(-16.562 1.563) scale(.97467)" d="m180.12 24.679c9.453 16.49 7.846 41.195-10.149 61.632l-12.795 5.21c6.573-7.23 23.785-27.278 21.177-46.478-.416-3.062-1.635-6.283-3.34-9.462-7.782-8.86 1.582-8.304 5.107-10.9z" fill="url(#h)"/>
      <path transform="translate(-16.562 1.563) scale(.97467)" d="m180.07 25.495c9.453 16.49 7.472 39.958-10.523 60.395l-12.795 5.21c6.573-7.23 23.785-27.278 21.177-46.478-.416-3.062-1.635-6.283-3.34-9.462-7.782-8.86 1.956-7.067 5.48-9.665z" fill="url(#i)" filter="url(#j)" style="mix-blend-mode:normal"/>
      <path transform="translate(-16.562 1.563) scale(.97467)" d="m177.1 20.23c2.27 2.83 3.994 5.85 5.05 8.94l-8.333 4.15c-1.545-2.577-3.373-5.098-5.31-7.451z" fill="url(#k)"/>
    </g>
    <path transform="matrix(5.5522,0,0,5.5522,-447.29,-728.77)" d="m104.67 147.84-7.084.195.015.569-.34 1.216c1.88-1.036 3.136-1.466 6.179-1.22l1.23.624z" fill="url(#l)"/>
    <path transform="matrix(.97467 0 0 .97467 32.539 -5.097)" d="m88.397 93.196h-40.168l12.649 7.793 40.3-2.6212-3.1097-1.4418z" fill="url(#m)"/>
    <path transform="matrix(.97467 0 0 .97467 32.539 -5.097)" d="m119.59 93.144 40.137.05165-12.649 7.793-40.314-2.582 3.062-1.481z" fill="url(#n)"/>
    <path transform="matrix(5.5522,0,0,5.5522,-447.29,-728.77)" d="m111.71 148.76 1.0648-1.4082 1.6934-.6559c-1.309 1.093-2.0766 2.1314-2.3866 3.1224z" fill="url(#o)"/>
    <path transform="matrix(5.5522 0 0 5.5522 -447.29 -728.77)" d="m104.67 147.84h6.903l.13346.92155.37154 1.0584c-1.88-1.036-2.945-1.497-5.988-1.251l-1.42.655z" fill="url(#p)"/>
    <path transform="matrix(5.5522 0 0 5.5522 -447.29 -728.77)" d="m106.09 148.57-.73482-.67565-.19518-.18185v12.694h2.857c-2.712-2.283-1.927-9.688-1.927-11.837z" fill="url(#q)"/>
    <path transform="matrix(5.5522 0 0 5.5522 -447.29 -728.77)" d="m108.02 160.41-3.344-.007-.006 3.938c.55-1.18.69-2.255 3.35-3.931z" fill="url(#r)"/>
    <path transform="matrix(5.5522 0 0 5.5522 -447.29 -728.77)" d="m101.32 160.4h3.353l-.006 3.938c-.55-1.18-.687-2.262-3.347-3.938z" fill="url(#s)"/>
    <path transform="matrix(5.5522 0 0 5.5522 -447.29 -728.77)" d="m103.44 148.6.743-.992v12.794l-2.863-.002c2.712-2.283 2.12-9.651 2.12-11.8z" fill="url(#t)"/>
    <path transform="translate(-447.29 -728.77) scale(5.5522)" d="m97.603 148.6-1.03-1.242-1.69-.665c1.31 1.094 2.07 2.132 2.38 3.123z" fill="url(#u)"/>
  </g><path d="m133.85 18.722c-30.328 4.638-34.134 47.683 0 70.675l.001-3.691c-23.8-22.155-14.555-55.722-.001-61.946z" fill="#ccc"/><g transform="translate(99.858 4.023) scale(.97467)" mask="url(#v)" opacity=".501" style="mix-blend-mode:normal">
    <path d="m34.881 15.057c-31.116 4.758-35.025 48.946-.004495 72.535l.002-3.787c-24.42-22.73-14.933-57.17-.002-63.556z"/>
  </g><g stroke-linecap="square" stroke-linejoin="round">
    <path transform="translate(69.727 5.334) scale(.97467)" d="m65.85 2.97c-31.116 4.76-43.8 47.434-15.589 79.474l12.795 5.21c-6.573-7.23-23.785-27.278-21.177-46.478 1.716-12.63 17.093-27.986 23.971-31.77 3.167-1.743 0-3.183 0-6.435z" fill-opacity=".425" mask="url(#w)"/>
    <path transform="matrix(.97467 0 0 .97467 32.539 -5.097)" d="m104 13.672c31.116 4.758 43.771 47.484 15.56 79.524l-12.766 5.158c6.573-7.23 23.785-27.278 21.177-46.478-1.716-12.63-17.093-27.986-23.971-31.77z" fill="url(#x)"/>
    <path transform="matrix(.97467 0 0 .97467 32.539 -5.097)" d="m103.95 16.919c-30.04 4.683-40.265 49.78-5.882 80.007h-40.253l5.8684 7.1155c12.01-4.125 24.008-3.8985 36.357-4.0415 0 41.215-.659 55.602-9.32 71.237 4.86 4.033 9.091 7.9347 13.23 14.875 4.137-6.94 8.2408-10.803 13.101-14.835-8.66-15.633-9.1958-30.059-9.1958-71.278 12.35.144 23.816-.351 36.18 4.94l6.045-8.013h-40.253c34.383-30.228 24.162-75.325-5.878-80.007zm0 7.52c30.616 12.36 25.512 55.793 0 72.485-25.513-16.694-30.616-60.129 0-72.485z" fill="url(#y)"/>
  </g>
  <g transform="translate(-58.743 122.08)" stroke-linecap="square" paint-order="markers fill stroke">
    <rect x="101.92" y="-101.23" width="22.026" height="145.66" ry="2.46" filter="url(#z)" stroke="#000" stroke-width="4"/>
    <rect x="100.99" y="-105.37" width="22.026" height="145.66" ry="2.46" stroke="#000" stroke-width="4"/>
    <path d="M103.62-103.57v14.592h6.624v3.025h-6.624v15.416h6.624v3.025h-6.624v15.202h6.624v3.025h-6.624v15.118h19.393v3.024H103.62v15.436h6.624v3.025h-6.624V2.415h6.624v3.026h-6.624v15.2h6.056v3.025h-6.056v14.829h21.393v-142.07z" fill="#ffc"/>
  </g>
</svg>
